<?xml version="1.0" encoding="utf-8" standalone="no"?>
<!DOCTYPE svg PUBLIC "-//W3C//DTD SVG 1.1//EN"
  "http://www.w3.org/Graphics/SVG/1.1/DTD/svg11.dtd">
<svg xmlns:xlink="http://www.w3.org/1999/xlink" width="432pt" height="288pt" viewBox="0 0 432 288" xmlns="http://www.w3.org/2000/svg" version="1.1">
 <metadata>
  <rdf:RDF xmlns:dc="http://purl.org/dc/elements/1.1/" xmlns:cc="http://creativecommons.org/ns#" xmlns:rdf="http://www.w3.org/1999/02/22-rdf-syntax-ns#">
   <cc:Work>
    <dc:type rdf:resource="http://purl.org/dc/dcmitype/StillImage"/>
    <dc:date>2023-12-17T23:40:04.439626</dc:date>
    <dc:format>image/svg+xml</dc:format>
    <dc:creator>
     <cc:Agent>
      <dc:title>Matplotlib v3.7.1, https://matplotlib.org/</dc:title>
     </cc:Agent>
    </dc:creator>
   </cc:Work>
  </rdf:RDF>
 </metadata>
 <defs>
  <style type="text/css">*{stroke-linejoin: round; stroke-linecap: butt}</style>
 </defs>
 <g id="figure_1">
  <g id="patch_1">
   <path d="M 0 288 
L 432 288 
L 432 0 
L 0 0 
z
" style="fill: #ffffff"/>
  </g>
  <g id="axes_1">
   <g id="patch_2">
    <path d="M 54 256.32 
L 388.8 256.32 
L 388.8 34.56 
L 54 34.56 
z
" style="fill: #ffffff"/>
   </g>
   <g id="matplotlib.axis_1">
    <g id="xtick_1">
     <g id="line2d_1">
      <defs>
       <path id="m96fc3a556d" d="M 0 0 
L 0 3.5 
" style="stroke: #000000; stroke-width: 0.8"/>
      </defs>
      <g>
       <use xlink:href="#m96fc3a556d" x="69.218182" y="256.32" style="stroke: #000000; stroke-width: 0.8"/>
      </g>
     </g>
     <g id="text_1">
      <!-- 0 -->
      <g transform="translate(66.036932 270.918437) scale(0.1 -0.1)">
       <defs>
        <path id="DejaVuSans-30" d="M 2034 4250 
Q 1547 4250 1301 3770 
Q 1056 3291 1056 2328 
Q 1056 1369 1301 889 
Q 1547 409 2034 409 
Q 2525 409 2770 889 
Q 3016 1369 3016 2328 
Q 3016 3291 2770 3770 
Q 2525 4250 2034 4250 
z
M 2034 4750 
Q 2819 4750 3233 4129 
Q 3647 3509 3647 2328 
Q 3647 1150 3233 529 
Q 2819 -91 2034 -91 
Q 1250 -91 836 529 
Q 422 1150 422 2328 
Q 422 3509 836 4129 
Q 1250 4750 2034 4750 
z
" transform="scale(0.015625)"/>
       </defs>
       <use xlink:href="#DejaVuSans-30"/>
      </g>
     </g>
    </g>
    <g id="xtick_2">
     <g id="line2d_2">
      <g>
       <use xlink:href="#m96fc3a556d" x="119.945455" y="256.32" style="stroke: #000000; stroke-width: 0.8"/>
      </g>
     </g>
     <g id="text_2">
      <!-- 5 -->
      <g transform="translate(116.764205 270.918437) scale(0.1 -0.1)">
       <defs>
        <path id="DejaVuSans-35" d="M 691 4666 
L 3169 4666 
L 3169 4134 
L 1269 4134 
L 1269 2991 
Q 1406 3038 1543 3061 
Q 1681 3084 1819 3084 
Q 2600 3084 3056 2656 
Q 3513 2228 3513 1497 
Q 3513 744 3044 326 
Q 2575 -91 1722 -91 
Q 1428 -91 1123 -41 
Q 819 9 494 109 
L 494 744 
Q 775 591 1075 516 
Q 1375 441 1709 441 
Q 2250 441 2565 725 
Q 2881 1009 2881 1497 
Q 2881 1984 2565 2268 
Q 2250 2553 1709 2553 
Q 1456 2553 1204 2497 
Q 953 2441 691 2322 
L 691 4666 
z
" transform="scale(0.015625)"/>
       </defs>
       <use xlink:href="#DejaVuSans-35"/>
      </g>
     </g>
    </g>
    <g id="xtick_3">
     <g id="line2d_3">
      <g>
       <use xlink:href="#m96fc3a556d" x="170.672727" y="256.32" style="stroke: #000000; stroke-width: 0.8"/>
      </g>
     </g>
     <g id="text_3">
      <!-- 10 -->
      <g transform="translate(164.310227 270.918437) scale(0.1 -0.1)">
       <defs>
        <path id="DejaVuSans-31" d="M 794 531 
L 1825 531 
L 1825 4091 
L 703 3866 
L 703 4441 
L 1819 4666 
L 2450 4666 
L 2450 531 
L 3481 531 
L 3481 0 
L 794 0 
L 794 531 
z
" transform="scale(0.015625)"/>
       </defs>
       <use xlink:href="#DejaVuSans-31"/>
       <use xlink:href="#DejaVuSans-30" x="63.623047"/>
      </g>
     </g>
    </g>
    <g id="xtick_4">
     <g id="line2d_4">
      <g>
       <use xlink:href="#m96fc3a556d" x="221.4" y="256.32" style="stroke: #000000; stroke-width: 0.8"/>
      </g>
     </g>
     <g id="text_4">
      <!-- 15 -->
      <g transform="translate(215.0375 270.918437) scale(0.1 -0.1)">
       <use xlink:href="#DejaVuSans-31"/>
       <use xlink:href="#DejaVuSans-35" x="63.623047"/>
      </g>
     </g>
    </g>
    <g id="xtick_5">
     <g id="line2d_5">
      <g>
       <use xlink:href="#m96fc3a556d" x="272.127273" y="256.32" style="stroke: #000000; stroke-width: 0.8"/>
      </g>
     </g>
     <g id="text_5">
      <!-- 20 -->
      <g transform="translate(265.764773 270.918437) scale(0.1 -0.1)">
       <defs>
        <path id="DejaVuSans-32" d="M 1228 531 
L 3431 531 
L 3431 0 
L 469 0 
L 469 531 
Q 828 903 1448 1529 
Q 2069 2156 2228 2338 
Q 2531 2678 2651 2914 
Q 2772 3150 2772 3378 
Q 2772 3750 2511 3984 
Q 2250 4219 1831 4219 
Q 1534 4219 1204 4116 
Q 875 4013 500 3803 
L 500 4441 
Q 881 4594 1212 4672 
Q 1544 4750 1819 4750 
Q 2544 4750 2975 4387 
Q 3406 4025 3406 3419 
Q 3406 3131 3298 2873 
Q 3191 2616 2906 2266 
Q 2828 2175 2409 1742 
Q 1991 1309 1228 531 
z
" transform="scale(0.015625)"/>
       </defs>
       <use xlink:href="#DejaVuSans-32"/>
       <use xlink:href="#DejaVuSans-30" x="63.623047"/>
      </g>
     </g>
    </g>
    <g id="xtick_6">
     <g id="line2d_6">
      <g>
       <use xlink:href="#m96fc3a556d" x="322.854545" y="256.32" style="stroke: #000000; stroke-width: 0.8"/>
      </g>
     </g>
     <g id="text_6">
      <!-- 25 -->
      <g transform="translate(316.492045 270.918437) scale(0.1 -0.1)">
       <use xlink:href="#DejaVuSans-32"/>
       <use xlink:href="#DejaVuSans-35" x="63.623047"/>
      </g>
     </g>
    </g>
    <g id="xtick_7">
     <g id="line2d_7">
      <g>
       <use xlink:href="#m96fc3a556d" x="373.581818" y="256.32" style="stroke: #000000; stroke-width: 0.8"/>
      </g>
     </g>
     <g id="text_7">
      <!-- 30 -->
      <g transform="translate(367.219318 270.918437) scale(0.1 -0.1)">
       <defs>
        <path id="DejaVuSans-33" d="M 2597 2516 
Q 3050 2419 3304 2112 
Q 3559 1806 3559 1356 
Q 3559 666 3084 287 
Q 2609 -91 1734 -91 
Q 1441 -91 1130 -33 
Q 819 25 488 141 
L 488 750 
Q 750 597 1062 519 
Q 1375 441 1716 441 
Q 2309 441 2620 675 
Q 2931 909 2931 1356 
Q 2931 1769 2642 2001 
Q 2353 2234 1838 2234 
L 1294 2234 
L 1294 2753 
L 1863 2753 
Q 2328 2753 2575 2939 
Q 2822 3125 2822 3475 
Q 2822 3834 2567 4026 
Q 2313 4219 1838 4219 
Q 1578 4219 1281 4162 
Q 984 4106 628 3988 
L 628 4550 
Q 988 4650 1302 4700 
Q 1616 4750 1894 4750 
Q 2613 4750 3031 4423 
Q 3450 4097 3450 3541 
Q 3450 3153 3228 2886 
Q 3006 2619 2597 2516 
z
" transform="scale(0.015625)"/>
       </defs>
       <use xlink:href="#DejaVuSans-33"/>
       <use xlink:href="#DejaVuSans-30" x="63.623047"/>
      </g>
     </g>
    </g>
    <g id="text_8">
     <!-- Channel energy [KeV] -->
     <g transform="translate(166.84375 284.596563) scale(0.1 -0.1)">
      <defs>
       <path id="DejaVuSans-43" d="M 4122 4306 
L 4122 3641 
Q 3803 3938 3442 4084 
Q 3081 4231 2675 4231 
Q 1875 4231 1450 3742 
Q 1025 3253 1025 2328 
Q 1025 1406 1450 917 
Q 1875 428 2675 428 
Q 3081 428 3442 575 
Q 3803 722 4122 1019 
L 4122 359 
Q 3791 134 3420 21 
Q 3050 -91 2638 -91 
Q 1578 -91 968 557 
Q 359 1206 359 2328 
Q 359 3453 968 4101 
Q 1578 4750 2638 4750 
Q 3056 4750 3426 4639 
Q 3797 4528 4122 4306 
z
" transform="scale(0.015625)"/>
       <path id="DejaVuSans-68" d="M 3513 2113 
L 3513 0 
L 2938 0 
L 2938 2094 
Q 2938 2591 2744 2837 
Q 2550 3084 2163 3084 
Q 1697 3084 1428 2787 
Q 1159 2491 1159 1978 
L 1159 0 
L 581 0 
L 581 4863 
L 1159 4863 
L 1159 2956 
Q 1366 3272 1645 3428 
Q 1925 3584 2291 3584 
Q 2894 3584 3203 3211 
Q 3513 2838 3513 2113 
z
" transform="scale(0.015625)"/>
       <path id="DejaVuSans-61" d="M 2194 1759 
Q 1497 1759 1228 1600 
Q 959 1441 959 1056 
Q 959 750 1161 570 
Q 1363 391 1709 391 
Q 2188 391 2477 730 
Q 2766 1069 2766 1631 
L 2766 1759 
L 2194 1759 
z
M 3341 1997 
L 3341 0 
L 2766 0 
L 2766 531 
Q 2569 213 2275 61 
Q 1981 -91 1556 -91 
Q 1019 -91 701 211 
Q 384 513 384 1019 
Q 384 1609 779 1909 
Q 1175 2209 1959 2209 
L 2766 2209 
L 2766 2266 
Q 2766 2663 2505 2880 
Q 2244 3097 1772 3097 
Q 1472 3097 1187 3025 
Q 903 2953 641 2809 
L 641 3341 
Q 956 3463 1253 3523 
Q 1550 3584 1831 3584 
Q 2591 3584 2966 3190 
Q 3341 2797 3341 1997 
z
" transform="scale(0.015625)"/>
       <path id="DejaVuSans-6e" d="M 3513 2113 
L 3513 0 
L 2938 0 
L 2938 2094 
Q 2938 2591 2744 2837 
Q 2550 3084 2163 3084 
Q 1697 3084 1428 2787 
Q 1159 2491 1159 1978 
L 1159 0 
L 581 0 
L 581 3500 
L 1159 3500 
L 1159 2956 
Q 1366 3272 1645 3428 
Q 1925 3584 2291 3584 
Q 2894 3584 3203 3211 
Q 3513 2838 3513 2113 
z
" transform="scale(0.015625)"/>
       <path id="DejaVuSans-65" d="M 3597 1894 
L 3597 1613 
L 953 1613 
Q 991 1019 1311 708 
Q 1631 397 2203 397 
Q 2534 397 2845 478 
Q 3156 559 3463 722 
L 3463 178 
Q 3153 47 2828 -22 
Q 2503 -91 2169 -91 
Q 1331 -91 842 396 
Q 353 884 353 1716 
Q 353 2575 817 3079 
Q 1281 3584 2069 3584 
Q 2775 3584 3186 3129 
Q 3597 2675 3597 1894 
z
M 3022 2063 
Q 3016 2534 2758 2815 
Q 2500 3097 2075 3097 
Q 1594 3097 1305 2825 
Q 1016 2553 972 2059 
L 3022 2063 
z
" transform="scale(0.015625)"/>
       <path id="DejaVuSans-6c" d="M 603 4863 
L 1178 4863 
L 1178 0 
L 603 0 
L 603 4863 
z
" transform="scale(0.015625)"/>
       <path id="DejaVuSans-20" transform="scale(0.015625)"/>
       <path id="DejaVuSans-72" d="M 2631 2963 
Q 2534 3019 2420 3045 
Q 2306 3072 2169 3072 
Q 1681 3072 1420 2755 
Q 1159 2438 1159 1844 
L 1159 0 
L 581 0 
L 581 3500 
L 1159 3500 
L 1159 2956 
Q 1341 3275 1631 3429 
Q 1922 3584 2338 3584 
Q 2397 3584 2469 3576 
Q 2541 3569 2628 3553 
L 2631 2963 
z
" transform="scale(0.015625)"/>
       <path id="DejaVuSans-67" d="M 2906 1791 
Q 2906 2416 2648 2759 
Q 2391 3103 1925 3103 
Q 1463 3103 1205 2759 
Q 947 2416 947 1791 
Q 947 1169 1205 825 
Q 1463 481 1925 481 
Q 2391 481 2648 825 
Q 2906 1169 2906 1791 
z
M 3481 434 
Q 3481 -459 3084 -895 
Q 2688 -1331 1869 -1331 
Q 1566 -1331 1297 -1286 
Q 1028 -1241 775 -1147 
L 775 -588 
Q 1028 -725 1275 -790 
Q 1522 -856 1778 -856 
Q 2344 -856 2625 -561 
Q 2906 -266 2906 331 
L 2906 616 
Q 2728 306 2450 153 
Q 2172 0 1784 0 
Q 1141 0 747 490 
Q 353 981 353 1791 
Q 353 2603 747 3093 
Q 1141 3584 1784 3584 
Q 2172 3584 2450 3431 
Q 2728 3278 2906 2969 
L 2906 3500 
L 3481 3500 
L 3481 434 
z
" transform="scale(0.015625)"/>
       <path id="DejaVuSans-79" d="M 2059 -325 
Q 1816 -950 1584 -1140 
Q 1353 -1331 966 -1331 
L 506 -1331 
L 506 -850 
L 844 -850 
Q 1081 -850 1212 -737 
Q 1344 -625 1503 -206 
L 1606 56 
L 191 3500 
L 800 3500 
L 1894 763 
L 2988 3500 
L 3597 3500 
L 2059 -325 
z
" transform="scale(0.015625)"/>
       <path id="DejaVuSans-5b" d="M 550 4863 
L 1875 4863 
L 1875 4416 
L 1125 4416 
L 1125 -397 
L 1875 -397 
L 1875 -844 
L 550 -844 
L 550 4863 
z
" transform="scale(0.015625)"/>
       <path id="DejaVuSans-4b" d="M 628 4666 
L 1259 4666 
L 1259 2694 
L 3353 4666 
L 4166 4666 
L 1850 2491 
L 4331 0 
L 3500 0 
L 1259 2247 
L 1259 0 
L 628 0 
L 628 4666 
z
" transform="scale(0.015625)"/>
       <path id="DejaVuSans-56" d="M 1831 0 
L 50 4666 
L 709 4666 
L 2188 738 
L 3669 4666 
L 4325 4666 
L 2547 0 
L 1831 0 
z
" transform="scale(0.015625)"/>
       <path id="DejaVuSans-5d" d="M 1947 4863 
L 1947 -844 
L 622 -844 
L 622 -397 
L 1369 -397 
L 1369 4416 
L 622 4416 
L 622 4863 
L 1947 4863 
z
" transform="scale(0.015625)"/>
      </defs>
      <use xlink:href="#DejaVuSans-43"/>
      <use xlink:href="#DejaVuSans-68" x="69.824219"/>
      <use xlink:href="#DejaVuSans-61" x="133.203125"/>
      <use xlink:href="#DejaVuSans-6e" x="194.482422"/>
      <use xlink:href="#DejaVuSans-6e" x="257.861328"/>
      <use xlink:href="#DejaVuSans-65" x="321.240234"/>
      <use xlink:href="#DejaVuSans-6c" x="382.763672"/>
      <use xlink:href="#DejaVuSans-20" x="410.546875"/>
      <use xlink:href="#DejaVuSans-65" x="442.333984"/>
      <use xlink:href="#DejaVuSans-6e" x="503.857422"/>
      <use xlink:href="#DejaVuSans-65" x="567.236328"/>
      <use xlink:href="#DejaVuSans-72" x="628.759766"/>
      <use xlink:href="#DejaVuSans-67" x="668.123047"/>
      <use xlink:href="#DejaVuSans-79" x="731.599609"/>
      <use xlink:href="#DejaVuSans-20" x="790.779297"/>
      <use xlink:href="#DejaVuSans-5b" x="822.566406"/>
      <use xlink:href="#DejaVuSans-4b" x="861.580078"/>
      <use xlink:href="#DejaVuSans-65" x="922.15625"/>
      <use xlink:href="#DejaVuSans-56" x="983.679688"/>
      <use xlink:href="#DejaVuSans-5d" x="1052.087891"/>
     </g>
    </g>
   </g>
   <g id="matplotlib.axis_2">
    <g id="ytick_1">
     <g id="line2d_8">
      <defs>
       <path id="m64eea6c366" d="M 0 0 
L -3.5 0 
" style="stroke: #000000; stroke-width: 0.8"/>
      </defs>
      <g>
       <use xlink:href="#m64eea6c366" x="54" y="246.24" style="stroke: #000000; stroke-width: 0.8"/>
      </g>
     </g>
     <g id="text_9">
      <!-- 0.0 -->
      <g transform="translate(31.096875 250.039219) scale(0.1 -0.1)">
       <defs>
        <path id="DejaVuSans-2e" d="M 684 794 
L 1344 794 
L 1344 0 
L 684 0 
L 684 794 
z
" transform="scale(0.015625)"/>
       </defs>
       <use xlink:href="#DejaVuSans-30"/>
       <use xlink:href="#DejaVuSans-2e" x="63.623047"/>
       <use xlink:href="#DejaVuSans-30" x="95.410156"/>
      </g>
     </g>
    </g>
    <g id="ytick_2">
     <g id="line2d_9">
      <g>
       <use xlink:href="#m64eea6c366" x="54" y="205.92" style="stroke: #000000; stroke-width: 0.8"/>
      </g>
     </g>
     <g id="text_10">
      <!-- 0.2 -->
      <g transform="translate(31.096875 209.719219) scale(0.1 -0.1)">
       <use xlink:href="#DejaVuSans-30"/>
       <use xlink:href="#DejaVuSans-2e" x="63.623047"/>
       <use xlink:href="#DejaVuSans-32" x="95.410156"/>
      </g>
     </g>
    </g>
    <g id="ytick_3">
     <g id="line2d_10">
      <g>
       <use xlink:href="#m64eea6c366" x="54" y="165.6" style="stroke: #000000; stroke-width: 0.8"/>
      </g>
     </g>
     <g id="text_11">
      <!-- 0.4 -->
      <g transform="translate(31.096875 169.399219) scale(0.1 -0.1)">
       <defs>
        <path id="DejaVuSans-34" d="M 2419 4116 
L 825 1625 
L 2419 1625 
L 2419 4116 
z
M 2253 4666 
L 3047 4666 
L 3047 1625 
L 3713 1625 
L 3713 1100 
L 3047 1100 
L 3047 0 
L 2419 0 
L 2419 1100 
L 313 1100 
L 313 1709 
L 2253 4666 
z
" transform="scale(0.015625)"/>
       </defs>
       <use xlink:href="#DejaVuSans-30"/>
       <use xlink:href="#DejaVuSans-2e" x="63.623047"/>
       <use xlink:href="#DejaVuSans-34" x="95.410156"/>
      </g>
     </g>
    </g>
    <g id="ytick_4">
     <g id="line2d_11">
      <g>
       <use xlink:href="#m64eea6c366" x="54" y="125.28" style="stroke: #000000; stroke-width: 0.8"/>
      </g>
     </g>
     <g id="text_12">
      <!-- 0.6 -->
      <g transform="translate(31.096875 129.079219) scale(0.1 -0.1)">
       <defs>
        <path id="DejaVuSans-36" d="M 2113 2584 
Q 1688 2584 1439 2293 
Q 1191 2003 1191 1497 
Q 1191 994 1439 701 
Q 1688 409 2113 409 
Q 2538 409 2786 701 
Q 3034 994 3034 1497 
Q 3034 2003 2786 2293 
Q 2538 2584 2113 2584 
z
M 3366 4563 
L 3366 3988 
Q 3128 4100 2886 4159 
Q 2644 4219 2406 4219 
Q 1781 4219 1451 3797 
Q 1122 3375 1075 2522 
Q 1259 2794 1537 2939 
Q 1816 3084 2150 3084 
Q 2853 3084 3261 2657 
Q 3669 2231 3669 1497 
Q 3669 778 3244 343 
Q 2819 -91 2113 -91 
Q 1303 -91 875 529 
Q 447 1150 447 2328 
Q 447 3434 972 4092 
Q 1497 4750 2381 4750 
Q 2619 4750 2861 4703 
Q 3103 4656 3366 4563 
z
" transform="scale(0.015625)"/>
       </defs>
       <use xlink:href="#DejaVuSans-30"/>
       <use xlink:href="#DejaVuSans-2e" x="63.623047"/>
       <use xlink:href="#DejaVuSans-36" x="95.410156"/>
      </g>
     </g>
    </g>
    <g id="ytick_5">
     <g id="line2d_12">
      <g>
       <use xlink:href="#m64eea6c366" x="54" y="84.96" style="stroke: #000000; stroke-width: 0.8"/>
      </g>
     </g>
     <g id="text_13">
      <!-- 0.8 -->
      <g transform="translate(31.096875 88.759219) scale(0.1 -0.1)">
       <defs>
        <path id="DejaVuSans-38" d="M 2034 2216 
Q 1584 2216 1326 1975 
Q 1069 1734 1069 1313 
Q 1069 891 1326 650 
Q 1584 409 2034 409 
Q 2484 409 2743 651 
Q 3003 894 3003 1313 
Q 3003 1734 2745 1975 
Q 2488 2216 2034 2216 
z
M 1403 2484 
Q 997 2584 770 2862 
Q 544 3141 544 3541 
Q 544 4100 942 4425 
Q 1341 4750 2034 4750 
Q 2731 4750 3128 4425 
Q 3525 4100 3525 3541 
Q 3525 3141 3298 2862 
Q 3072 2584 2669 2484 
Q 3125 2378 3379 2068 
Q 3634 1759 3634 1313 
Q 3634 634 3220 271 
Q 2806 -91 2034 -91 
Q 1263 -91 848 271 
Q 434 634 434 1313 
Q 434 1759 690 2068 
Q 947 2378 1403 2484 
z
M 1172 3481 
Q 1172 3119 1398 2916 
Q 1625 2713 2034 2713 
Q 2441 2713 2670 2916 
Q 2900 3119 2900 3481 
Q 2900 3844 2670 4047 
Q 2441 4250 2034 4250 
Q 1625 4250 1398 4047 
Q 1172 3844 1172 3481 
z
" transform="scale(0.015625)"/>
       </defs>
       <use xlink:href="#DejaVuSans-30"/>
       <use xlink:href="#DejaVuSans-2e" x="63.623047"/>
       <use xlink:href="#DejaVuSans-38" x="95.410156"/>
      </g>
     </g>
    </g>
    <g id="ytick_6">
     <g id="line2d_13">
      <g>
       <use xlink:href="#m64eea6c366" x="54" y="44.64" style="stroke: #000000; stroke-width: 0.8"/>
      </g>
     </g>
     <g id="text_14">
      <!-- 1.0 -->
      <g transform="translate(31.096875 48.439219) scale(0.1 -0.1)">
       <use xlink:href="#DejaVuSans-31"/>
       <use xlink:href="#DejaVuSans-2e" x="63.623047"/>
       <use xlink:href="#DejaVuSans-30" x="95.410156"/>
      </g>
     </g>
    </g>
    <g id="text_15">
     <!-- Intensity -->
     <g transform="translate(25.017187 167.2025) rotate(-90) scale(0.1 -0.1)">
      <defs>
       <path id="DejaVuSans-49" d="M 628 4666 
L 1259 4666 
L 1259 0 
L 628 0 
L 628 4666 
z
" transform="scale(0.015625)"/>
       <path id="DejaVuSans-74" d="M 1172 4494 
L 1172 3500 
L 2356 3500 
L 2356 3053 
L 1172 3053 
L 1172 1153 
Q 1172 725 1289 603 
Q 1406 481 1766 481 
L 2356 481 
L 2356 0 
L 1766 0 
Q 1100 0 847 248 
Q 594 497 594 1153 
L 594 3053 
L 172 3053 
L 172 3500 
L 594 3500 
L 594 4494 
L 1172 4494 
z
" transform="scale(0.015625)"/>
       <path id="DejaVuSans-73" d="M 2834 3397 
L 2834 2853 
Q 2591 2978 2328 3040 
Q 2066 3103 1784 3103 
Q 1356 3103 1142 2972 
Q 928 2841 928 2578 
Q 928 2378 1081 2264 
Q 1234 2150 1697 2047 
L 1894 2003 
Q 2506 1872 2764 1633 
Q 3022 1394 3022 966 
Q 3022 478 2636 193 
Q 2250 -91 1575 -91 
Q 1294 -91 989 -36 
Q 684 19 347 128 
L 347 722 
Q 666 556 975 473 
Q 1284 391 1588 391 
Q 1994 391 2212 530 
Q 2431 669 2431 922 
Q 2431 1156 2273 1281 
Q 2116 1406 1581 1522 
L 1381 1569 
Q 847 1681 609 1914 
Q 372 2147 372 2553 
Q 372 3047 722 3315 
Q 1072 3584 1716 3584 
Q 2034 3584 2315 3537 
Q 2597 3491 2834 3397 
z
" transform="scale(0.015625)"/>
       <path id="DejaVuSans-69" d="M 603 3500 
L 1178 3500 
L 1178 0 
L 603 0 
L 603 3500 
z
M 603 4863 
L 1178 4863 
L 1178 4134 
L 603 4134 
L 603 4863 
z
" transform="scale(0.015625)"/>
      </defs>
      <use xlink:href="#DejaVuSans-49"/>
      <use xlink:href="#DejaVuSans-6e" x="29.492188"/>
      <use xlink:href="#DejaVuSans-74" x="92.871094"/>
      <use xlink:href="#DejaVuSans-65" x="132.080078"/>
      <use xlink:href="#DejaVuSans-6e" x="193.603516"/>
      <use xlink:href="#DejaVuSans-73" x="256.982422"/>
      <use xlink:href="#DejaVuSans-69" x="309.082031"/>
      <use xlink:href="#DejaVuSans-74" x="336.865234"/>
      <use xlink:href="#DejaVuSans-79" x="376.074219"/>
     </g>
    </g>
   </g>
   <g id="line2d_14">
    <path d="M 69.218182 239.522089 
L 79.326474 239.392217 
L 79.400799 238.942317 
L 79.549451 239.298387 
L 79.623776 239.082856 
L 79.698102 239.218198 
L 79.772428 238.929658 
L 79.846753 239.677028 
L 79.921079 239.450221 
L 79.995405 239.266067 
L 80.218382 239.629961 
L 80.367033 239.169878 
L 80.441359 239.412852 
L 80.515684 238.912125 
L 80.59001 239.539979 
L 80.664336 239.269269 
L 80.738661 239.484081 
L 80.812987 239.137096 
L 80.887313 239.850392 
L 80.961638 239.817863 
L 81.035964 238.933572 
L 81.11029 239.539444 
L 81.184615 239.37327 
L 81.258941 239.215504 
L 81.407592 239.857313 
L 81.556244 239.231937 
L 81.630569 239.986512 
L 81.704895 239.883422 
L 81.853546 238.795324 
L 81.927872 239.692932 
L 82.002198 239.448757 
L 82.076523 239.02984 
L 82.150849 239.542594 
L 82.225175 238.888951 
L 82.2995 239.42059 
L 82.373826 239.089507 
L 82.448152 239.263697 
L 82.522478 239.52828 
L 82.596803 239.374159 
L 82.671129 239.885326 
L 82.745455 239.395031 
L 82.81978 239.49788 
L 83.042757 239.327381 
L 83.191409 239.527195 
L 83.265734 239.445007 
L 83.34006 238.845284 
L 83.488711 239.711317 
L 83.563037 239.235144 
L 83.637363 239.555045 
L 83.711688 238.882417 
L 83.786014 239.163796 
L 83.86034 239.444602 
L 83.934665 239.416231 
L 84.008991 239.112319 
L 84.157642 239.500725 
L 84.306294 238.997953 
L 84.380619 239.338885 
L 84.529271 238.978798 
L 84.603596 239.554471 
L 84.677922 239.097437 
L 84.752248 239.305338 
L 84.826573 238.958067 
L 84.975225 239.158368 
L 85.123876 238.87928 
L 85.198202 239.617013 
L 85.272527 239.286693 
L 85.346853 239.367163 
L 85.495504 239.058229 
L 85.792807 239.25254 
L 85.867133 238.552068 
L 86.015784 239.381551 
L 86.164436 238.920251 
L 86.238761 239.4247 
L 86.313087 239.272026 
L 86.387413 239.627394 
L 86.61039 239.013917 
L 86.684715 239.567191 
L 86.833367 238.897859 
L 86.907692 239.571291 
L 86.982018 239.438452 
L 87.130669 239.24672 
L 87.204995 239.488733 
L 87.353646 239.006511 
L 87.427972 239.520448 
L 87.502298 239.403353 
L 87.576623 239.191925 
L 87.7996 239.905494 
L 88.096903 239.341893 
L 88.171229 239.797701 
L 88.245554 239.657071 
L 88.394206 239.944738 
L 88.468531 239.303069 
L 88.617183 239.977083 
L 88.691508 239.91135 
L 88.765834 239.651521 
L 88.84016 239.847378 
L 88.988811 239.270805 
L 89.063137 240.113745 
L 89.137463 240.078148 
L 89.286114 239.887601 
L 89.36044 240.051402 
L 89.434765 239.730053 
L 89.657742 240.355778 
L 89.880719 239.814121 
L 90.029371 240.488179 
L 90.178022 239.996374 
L 90.252348 239.947086 
L 90.326673 240.211111 
L 90.400999 240.161193 
L 90.475325 240.244524 
L 90.54965 240.144519 
L 90.623976 239.841792 
L 90.846953 240.535946 
L 90.921279 240.11594 
L 90.995604 240.694457 
L 91.06993 240.165546 
L 91.144256 240.616751 
L 91.292907 240.143263 
L 91.367233 240.662844 
L 91.441558 240.205327 
L 91.515884 240.846473 
L 91.59021 240.317919 
L 91.664535 240.452893 
L 91.738861 240.464693 
L 91.813187 240.890456 
L 91.887512 240.380547 
L 91.961838 240.501397 
L 92.036164 240.487766 
L 92.11049 240.737799 
L 92.184815 240.640961 
L 92.259141 240.306289 
L 92.333467 240.722783 
L 92.407792 240.134489 
L 92.482118 240.794883 
L 92.556444 240.574301 
L 92.630769 240.652505 
L 92.705095 240.278444 
L 92.779421 240.610554 
L 92.853746 240.238378 
L 92.928072 240.52611 
L 93.002398 240.35071 
L 93.076723 240.680606 
L 93.151049 240.327424 
L 93.225375 240.497225 
L 93.374026 240.368723 
L 93.522677 240.337186 
L 93.597003 240.263635 
L 93.745654 240.585471 
L 93.81998 239.454229 
L 93.894306 240.543011 
L 93.968631 240.361539 
L 94.042957 240.093478 
L 94.191608 240.577216 
L 94.265934 240.286362 
L 94.34026 240.359412 
L 94.637562 240.105063 
L 94.711888 240.119922 
L 94.786214 240.675869 
L 94.934865 239.981259 
L 95.157842 240.057761 
L 95.232168 240.098288 
L 95.306494 239.792343 
L 95.380819 240.085974 
L 95.529471 239.823519 
L 95.678122 239.966622 
L 95.901099 239.555364 
L 95.975425 239.404238 
L 96.124076 239.804926 
L 96.57003 239.54317 
L 96.644356 239.08911 
L 96.718681 239.321857 
L 96.793007 238.981884 
L 96.867333 239.63847 
L 97.015984 239.106181 
L 97.09031 239.324061 
L 97.164635 238.797058 
L 97.313287 239.300364 
L 97.387612 238.98177 
L 97.461938 239.385761 
L 97.536264 239.057732 
L 97.610589 239.474467 
L 97.759241 238.77138 
L 97.833566 239.009321 
L 97.907892 238.790775 
L 97.982218 239.344864 
L 98.056543 238.772546 
L 98.130869 239.103749 
L 98.353846 238.562655 
L 98.651149 238.425499 
L 98.725475 238.613527 
L 98.7998 238.151087 
L 98.874126 238.742421 
L 98.948452 238.191337 
L 99.022777 238.643853 
L 99.171429 238.201958 
L 99.245754 238.394858 
L 99.468731 238.180983 
L 99.543057 238.241741 
L 99.617383 237.750109 
L 99.691708 238.239206 
L 99.766034 238.218441 
L 99.989011 237.856447 
L 100.137662 238.435467 
L 100.286314 237.903883 
L 100.360639 238.421358 
L 100.657942 237.531957 
L 100.732268 237.52006 
L 100.955245 237.944084 
L 101.02957 237.811421 
L 101.103896 237.663732 
L 101.178222 238.019799 
L 101.252547 237.708995 
L 101.326873 238.129919 
L 101.475524 237.578209 
L 101.54985 237.639458 
L 101.624176 238.358262 
L 101.772827 237.537378 
L 101.921479 237.507843 
L 101.995804 238.013504 
L 102.218781 237.370251 
L 102.441758 237.995024 
L 102.516084 237.455846 
L 102.59041 237.729408 
L 102.664735 237.684233 
L 102.813387 237.315461 
L 102.887712 237.449096 
L 103.036364 237.198713 
L 103.110689 237.57103 
L 103.185015 237.364242 
L 103.259341 237.675001 
L 103.407992 237.036932 
L 103.556643 237.177645 
L 103.630969 237.527856 
L 103.705295 237.430815 
L 103.77962 237.520892 
L 103.928272 236.991284 
L 104.002597 237.137369 
L 104.151249 236.948319 
L 104.2999 237.264345 
L 104.374226 236.930041 
L 104.522877 237.156074 
L 104.597203 237.131673 
L 104.745854 237.502338 
L 104.894505 236.950096 
L 104.968831 237.729492 
L 105.043157 236.682684 
L 105.117483 237.140162 
L 105.191808 236.794583 
L 105.34046 237.187079 
L 105.414785 236.837057 
L 105.489111 236.992384 
L 105.563437 236.992093 
L 105.637762 237.437218 
L 105.712088 236.497143 
L 105.786414 237.346492 
L 105.860739 236.877509 
L 105.935065 237.315744 
L 106.009391 237.280521 
L 106.083716 237.38456 
L 106.158042 236.333447 
L 106.232368 237.170503 
L 106.306693 236.841274 
L 106.455345 237.046951 
L 106.603996 236.240311 
L 106.752647 236.839537 
L 106.826973 236.829837 
L 106.901299 237.149534 
L 106.975624 237.064054 
L 107.124276 236.632029 
L 107.198601 237.407079 
L 107.272927 236.14689 
L 107.347253 236.844841 
L 107.421578 236.549793 
L 107.495904 237.114996 
L 107.57023 236.475626 
L 107.644555 236.797922 
L 107.718881 236.994889 
L 107.793207 236.249539 
L 107.867532 236.585772 
L 108.090509 236.824679 
L 108.313487 236.356022 
L 108.387812 236.205965 
L 108.536464 236.737494 
L 108.685115 236.611988 
L 108.759441 236.662163 
L 108.833766 236.204104 
L 108.908092 237.098805 
L 108.982418 236.149157 
L 109.056743 236.400808 
L 109.131069 236.195631 
L 109.205395 236.502725 
L 109.27972 236.003943 
L 109.354046 236.421561 
L 109.428372 235.898327 
L 109.502697 236.188423 
L 109.577023 236.03231 
L 109.651349 236.313916 
L 109.874326 235.528744 
L 109.948651 236.321805 
L 110.022977 236.021685 
L 110.097303 236.202366 
L 110.171628 235.132427 
L 110.245954 236.146916 
L 110.32028 235.54312 
L 110.394605 235.964857 
L 110.468931 235.342468 
L 110.543257 235.408909 
L 110.691908 235.723935 
L 110.914885 235.261254 
L 110.989211 235.229886 
L 111.063536 235.430575 
L 111.212188 234.587018 
L 111.286513 235.474462 
L 111.435165 234.445897 
L 111.509491 234.722786 
L 111.583816 234.474425 
L 111.658142 234.940026 
L 111.806793 233.996852 
L 111.881119 234.557501 
L 112.02977 233.753142 
L 112.104096 234.078551 
L 112.178422 233.516138 
L 112.252747 233.91857 
L 112.327073 232.931124 
L 112.401399 233.71426 
L 112.624376 232.864169 
L 112.698701 233.059015 
L 112.773027 232.134743 
L 112.847353 232.860043 
L 112.996004 232.142603 
L 113.07033 232.106453 
L 113.144655 232.426271 
L 113.218981 232.399168 
L 113.293307 231.316456 
L 113.367632 231.768319 
L 113.516284 230.750864 
L 113.590609 231.066916 
L 114.036563 229.56517 
L 114.110889 229.830946 
L 114.185215 229.843727 
L 114.408192 228.546664 
L 114.482517 229.120347 
L 114.705495 228.496098 
L 114.77982 228.497851 
L 114.928472 226.864231 
L 115.002797 227.618172 
L 115.077123 226.831564 
L 115.151449 227.333256 
L 115.374426 225.573437 
L 115.523077 225.842097 
L 115.597403 226.127651 
L 115.746054 224.90076 
L 115.82038 224.903907 
L 116.117682 222.453544 
L 116.192008 223.135136 
L 116.266334 221.763555 
L 116.340659 222.684295 
L 116.414985 222.356334 
L 116.489311 221.813078 
L 116.563636 222.097846 
L 116.637962 221.311126 
L 116.712288 221.366601 
L 116.786613 221.346333 
L 117.083916 219.41919 
L 117.158242 219.32526 
L 117.232567 219.562628 
L 117.455544 218.54665 
L 117.604196 218.831844 
L 117.678521 217.889097 
L 117.752847 218.656669 
L 117.827173 216.906273 
L 117.901499 217.588662 
L 117.975824 217.240119 
L 118.124476 215.583503 
L 118.273127 215.773956 
L 118.347453 215.379523 
L 118.421778 215.480024 
L 118.496104 216.10681 
L 118.57043 213.904436 
L 118.644755 214.244054 
L 118.719081 214.260546 
L 118.793407 214.536399 
L 118.942058 213.734539 
L 119.090709 214.017547 
L 119.165035 213.978991 
L 119.610989 212.176897 
L 119.685315 213.414048 
L 119.75964 212.850341 
L 119.982617 211.421002 
L 120.131269 212.37746 
L 120.205594 211.539235 
L 120.27992 211.699132 
L 120.354246 211.632154 
L 120.428571 213.187206 
L 120.577223 210.784324 
L 120.651548 212.426426 
L 120.725874 211.865444 
L 120.8002 211.732826 
L 120.874525 212.106165 
L 120.948851 213.20944 
L 121.097502 211.917609 
L 121.171828 212.919905 
L 121.246154 211.958206 
L 121.32048 212.209493 
L 121.617782 211.991139 
L 121.766434 212.440453 
L 121.840759 212.499725 
L 121.915085 213.566182 
L 121.989411 213.461135 
L 122.138062 213.135314 
L 122.212388 213.076657 
L 122.361039 213.77587 
L 122.435365 212.980602 
L 122.50969 214.259525 
L 122.584016 213.023713 
L 122.806993 215.094675 
L 122.881319 213.8167 
L 122.955644 214.384573 
L 123.02997 215.120446 
L 123.104296 215.06334 
L 123.252947 215.001816 
L 123.55025 217.101001 
L 123.624575 215.776822 
L 123.773227 216.794662 
L 123.847552 216.621046 
L 123.921878 216.814291 
L 123.996204 217.482154 
L 124.070529 216.68043 
L 124.442158 219.338312 
L 124.590809 218.745814 
L 124.665135 219.269338 
L 124.739461 218.926196 
L 124.813786 220.810732 
L 124.888112 220.68639 
L 125.036763 220.792547 
L 125.111089 220.353578 
L 125.25974 221.584408 
L 125.334066 221.01473 
L 125.408392 222.177857 
L 125.482717 221.603067 
L 125.631369 221.967127 
L 125.854346 223.273168 
L 125.928671 223.313449 
L 126.002997 223.917778 
L 126.077323 223.104258 
L 126.151648 224.595353 
L 126.225974 223.668744 
L 126.448951 225.015894 
L 126.597602 225.091688 
L 126.820579 226.178661 
L 126.894905 226.14479 
L 126.969231 225.936384 
L 127.043556 226.39301 
L 127.117882 225.736766 
L 127.48951 227.644682 
L 127.563836 227.398743 
L 127.638162 227.503824 
L 127.712488 228.403449 
L 127.786813 228.259265 
L 127.935465 227.866584 
L 128.00979 229.075891 
L 128.084116 228.412339 
L 128.307093 229.069683 
L 128.381419 229.338228 
L 128.455744 229.116772 
L 128.53007 229.332528 
L 128.604396 230.297051 
L 128.678721 229.915038 
L 129.05035 231.080267 
L 129.124675 230.565688 
L 129.199001 230.956876 
L 129.273327 230.778983 
L 129.421978 231.438776 
L 129.496304 231.31228 
L 129.570629 232.021034 
L 129.644955 230.99647 
L 129.719281 231.467048 
L 129.793606 231.540651 
L 129.942258 232.246829 
L 130.016583 231.883228 
L 130.23956 232.521682 
L 130.313886 232.640364 
L 130.388212 232.580334 
L 130.462537 232.510134 
L 130.611189 232.875904 
L 130.685514 233.032056 
L 130.75984 232.479953 
L 130.834166 233.188921 
L 130.908492 233.144218 
L 130.982817 232.976895 
L 131.057143 233.303408 
L 131.205794 232.677131 
L 131.28012 232.733207 
L 131.428771 233.591656 
L 131.577423 232.89884 
L 131.651748 233.559673 
L 131.726074 233.350314 
L 131.8004 233.435929 
L 131.874725 233.850395 
L 131.949051 233.797953 
L 132.023377 233.771577 
L 132.097702 234.285221 
L 132.172028 233.739978 
L 132.246354 233.919574 
L 132.320679 234.020094 
L 132.395005 233.370872 
L 132.469331 234.039271 
L 132.543656 233.743796 
L 132.692308 234.130326 
L 132.766633 233.857113 
L 132.840959 234.870089 
L 132.915285 234.486592 
L 132.98961 234.708405 
L 133.138262 234.338932 
L 133.212587 234.323623 
L 133.361239 234.745793 
L 133.435564 233.780729 
L 133.50989 234.463391 
L 133.584216 233.87756 
L 133.658541 234.567007 
L 133.732867 234.390404 
L 133.807193 234.34759 
L 133.881518 233.962853 
L 134.03017 234.617972 
L 134.104496 234.478571 
L 134.178821 234.767506 
L 134.253147 234.740256 
L 134.327473 234.465182 
L 134.476124 235.437019 
L 134.55045 235.050067 
L 134.624775 235.35753 
L 134.699101 235.307295 
L 134.773427 234.884125 
L 134.847752 234.974657 
L 134.996404 234.971764 
L 135.219381 234.637923 
L 135.293706 235.27745 
L 135.368032 234.991473 
L 135.516683 234.790949 
L 135.591009 234.353391 
L 135.73966 235.122902 
L 135.813986 234.440256 
L 135.888312 234.485836 
L 136.185614 234.003823 
L 136.25994 234.182499 
L 136.408591 234.561733 
L 136.482917 233.617464 
L 136.557243 233.969045 
L 136.631568 233.833654 
L 136.78022 234.269923 
L 136.854545 233.398413 
L 136.928871 233.888442 
L 137.003197 233.792538 
L 137.077522 232.874604 
L 137.151848 233.53114 
L 137.226174 233.275972 
L 137.449151 232.694008 
L 137.523477 233.061159 
L 137.672128 232.236739 
L 137.746454 232.358928 
L 137.820779 232.144322 
L 137.895105 232.684939 
L 138.118082 231.212927 
L 138.192408 231.206309 
L 138.266733 231.985106 
L 138.564036 229.993017 
L 138.638362 230.142985 
L 138.712687 230.116631 
L 138.861339 229.188701 
L 138.935664 229.405284 
L 139.00999 228.617868 
L 139.084316 228.833618 
L 139.232967 228.010975 
L 139.307293 228.513537 
L 139.381618 227.046441 
L 139.455944 227.1835 
L 139.753247 225.490907 
L 139.827572 225.177685 
L 139.901898 225.356913 
L 139.976224 225.068209 
L 140.050549 225.422467 
L 140.199201 223.577676 
L 140.273526 223.224965 
L 140.496503 221.160624 
L 140.570829 221.332833 
L 140.645155 221.146565 
L 141.016783 217.981969 
L 141.091109 217.765861 
L 141.537063 214.003912 
L 141.685714 212.190585 
L 141.908691 210.224815 
L 141.983017 210.524227 
L 142.131668 206.791877 
L 142.205994 206.337206 
L 142.28032 206.643282 
L 142.428971 204.860847 
L 142.503297 204.869757 
L 142.651948 202.415059 
L 142.726274 202.224327 
L 142.949251 197.498722 
L 143.023576 197.15236 
L 143.320879 192.984684 
L 143.395205 192.997299 
L 143.46953 192.204627 
L 143.692507 187.640525 
L 143.766833 187.71881 
L 143.98981 183.711484 
L 144.435764 176.326462 
L 144.51009 175.819978 
L 144.658741 171.532018 
L 144.807393 168.593407 
L 145.03037 164.16254 
L 145.104695 164.301926 
L 145.401998 156.738459 
L 145.699301 151.773221 
L 145.922278 146.766345 
L 146.145255 141.33657 
L 146.21958 141.82725 
L 146.293906 137.006334 
L 146.368232 137.329574 
L 146.73986 128.049686 
L 146.814186 127.027739 
L 146.888511 127.725255 
L 147.111489 119.850379 
L 147.483117 112.604913 
L 148.077722 99.296857 
L 148.152048 98.961015 
L 148.375025 91.646575 
L 148.449351 92.030882 
L 148.523676 91.970783 
L 148.746653 84.332535 
L 148.820979 84.894584 
L 149.043956 77.57133 
L 149.192607 79.310059 
L 149.48991 69.822702 
L 149.564236 71.296285 
L 149.638561 69.921864 
L 149.712887 66.005644 
L 149.787213 69.331962 
L 149.935864 63.275455 
L 150.01019 63.303167 
L 150.084515 62.905691 
L 150.158841 60.601021 
L 150.233167 63.012539 
L 150.456144 57.211479 
L 150.53047 58.455095 
L 150.753447 53.35172 
L 150.827772 53.164021 
L 150.902098 53.993427 
L 151.050749 50.204065 
L 151.199401 51.309164 
L 151.496703 44.64 
L 151.571029 47.790385 
L 151.645355 45.468237 
L 151.71968 47.81254 
L 151.794006 45.166166 
L 151.868332 47.173397 
L 151.942657 45.885273 
L 152.016983 47.935729 
L 152.091309 44.837383 
L 152.165634 45.851224 
L 152.23996 49.182024 
L 152.314286 44.89255 
L 152.388611 45.040482 
L 152.537263 46.15501 
L 152.611588 48.619232 
L 152.685914 48.025959 
L 152.76024 45.800948 
L 152.834565 48.091169 
L 152.908891 46.695883 
L 153.057542 48.405313 
L 153.206194 47.191843 
L 153.280519 50.268505 
L 153.354845 49.139499 
L 153.503497 52.610793 
L 153.577822 50.638304 
L 153.652148 51.529189 
L 153.726474 54.280891 
L 153.800799 51.204077 
L 153.949451 53.805043 
L 154.46973 60.752046 
L 154.692707 65.343236 
L 154.767033 64.256789 
L 154.841359 66.370254 
L 154.915684 65.296319 
L 155.807592 81.640924 
L 155.881918 81.795877 
L 155.956244 86.81762 
L 156.030569 84.390731 
L 156.327872 92.471848 
L 156.402198 92.805026 
L 156.476523 95.941064 
L 156.550849 94.275823 
L 156.848152 103.836678 
L 156.922478 103.888354 
L 157.21978 108.769423 
L 157.294106 108.16434 
L 157.442757 113.710537 
L 157.517083 112.048182 
L 157.665734 118.294778 
L 157.74006 118.247526 
L 160.118482 161.363463 
L 160.192807 161.976993 
L 160.415784 166.659877 
L 160.49011 166.380324 
L 160.564436 169.302225 
L 160.638761 168.937304 
L 161.159041 177.11369 
L 161.382018 180.024862 
L 161.604995 184.406877 
L 161.679321 183.614657 
L 163.091508 199.954177 
L 163.165834 199.702468 
L 163.388811 203.304009 
L 163.463137 202.558452 
L 163.983417 209.627646 
L 164.057742 207.86493 
L 164.429371 211.547307 
L 164.503696 211.903482 
L 164.726673 213.583112 
L 164.875325 215.055704 
L 164.94965 214.680744 
L 165.172627 216.886314 
L 165.246953 216.680059 
L 165.46993 219.542415 
L 165.544256 219.456869 
L 166.436164 224.603463 
L 166.51049 224.096329 
L 166.733467 226.42733 
L 166.807792 226.209492 
L 166.956444 227.387697 
L 167.105095 227.360339 
L 167.253746 228.326462 
L 167.328072 228.112861 
L 167.402398 229.159059 
L 167.476723 228.870567 
L 167.774026 230.336695 
L 167.922677 230.815322 
L 167.997003 231.801351 
L 168.071329 231.517354 
L 168.517283 233.092498 
L 168.665934 234.025151 
L 168.74026 234.000201 
L 168.814585 234.460002 
L 168.888911 234.126049 
L 169.111888 235.209707 
L 169.186214 235.026176 
L 169.409191 236.020646 
L 169.483516 235.820246 
L 169.780819 236.852209 
L 169.855145 236.84892 
L 169.929471 237.628831 
L 170.003796 237.149267 
L 170.226773 237.914155 
L 170.44975 238.387758 
L 170.821379 239.400166 
L 170.895704 239.01075 
L 171.044356 239.65 
L 171.341658 239.982129 
L 171.49031 240.779317 
L 171.638961 240.209529 
L 171.787612 240.860782 
L 171.861938 240.761289 
L 171.936264 240.926556 
L 172.010589 240.677729 
L 172.307892 241.607433 
L 172.382218 241.363537 
L 172.456543 241.422347 
L 172.530869 241.399984 
L 172.605195 241.920232 
L 172.67952 241.369726 
L 172.902498 242.172032 
L 172.976823 242.006504 
L 173.348452 242.716446 
L 173.422777 242.566803 
L 173.497103 242.71251 
L 173.571429 242.655162 
L 173.645754 242.435221 
L 173.72008 242.77132 
L 173.794406 242.521533 
L 173.868731 243.096416 
L 173.943057 242.995303 
L 174.091708 243.196935 
L 174.166034 242.916376 
L 174.24036 243.250894 
L 174.314685 243.070043 
L 174.389011 243.587512 
L 174.463337 243.215981 
L 174.537662 243.595695 
L 174.611988 243.494014 
L 174.834965 243.58383 
L 174.983616 243.945816 
L 175.057942 243.618819 
L 175.280919 244.080022 
L 175.42957 243.725029 
L 175.578222 244.010601 
L 175.652547 243.952078 
L 175.94985 244.238931 
L 176.024176 244.082658 
L 176.321479 244.621097 
L 176.395804 244.262636 
L 176.47013 244.539948 
L 176.544456 244.44754 
L 176.618781 244.354849 
L 176.693107 244.425363 
L 176.841758 244.553707 
L 177.064735 244.649175 
L 177.139061 244.55048 
L 177.213387 244.80003 
L 177.287712 244.742575 
L 177.362038 244.88166 
L 177.510689 244.688176 
L 177.585015 244.640928 
L 177.659341 244.962312 
L 177.733666 244.770179 
L 177.807992 244.908873 
L 177.882318 244.691963 
L 177.956643 244.778985 
L 178.030969 244.799291 
L 178.105295 244.650442 
L 178.17962 245.004071 
L 178.253946 244.887678 
L 178.402597 244.909273 
L 178.476923 244.793082 
L 178.551249 244.991056 
L 178.625574 244.923474 
L 178.922877 244.969694 
L 179.071528 244.845943 
L 179.294505 245.076692 
L 179.443157 244.966608 
L 179.517483 245.062471 
L 179.591808 244.897022 
L 179.666134 245.083154 
L 179.74046 244.8992 
L 179.889111 245.129812 
L 179.963437 244.924693 
L 180.186414 245.167776 
L 180.483716 245.16379 
L 180.558042 245.329132 
L 180.632368 245.117158 
L 180.706693 245.260491 
L 180.781019 245.169862 
L 181.078322 245.273073 
L 181.152647 245.136514 
L 181.226973 245.191863 
L 181.598601 245.197652 
L 181.747253 245.346471 
L 181.821578 245.340626 
L 181.895904 245.449413 
L 181.97023 245.310557 
L 182.044555 245.396598 
L 182.193207 245.349562 
L 182.341858 245.172542 
L 182.490509 245.380534 
L 182.564835 245.227037 
L 182.713487 245.441435 
L 182.787812 245.295143 
L 182.862138 245.388163 
L 182.936464 245.605672 
L 183.085115 245.356953 
L 183.233766 245.388006 
L 183.754046 245.483375 
L 183.828372 245.549751 
L 184.051349 245.374728 
L 184.125674 245.368767 
L 184.2 245.510694 
L 184.274326 245.454988 
L 184.348651 245.366718 
L 184.571628 245.486711 
L 184.794605 245.40796 
L 185.017582 245.511468 
L 185.166234 245.46372 
L 185.240559 245.485272 
L 185.314885 245.304788 
L 185.389211 245.471589 
L 185.463536 245.400747 
L 185.686513 245.601669 
L 185.835165 245.429891 
L 185.909491 245.571733 
L 186.058142 245.516749 
L 186.132468 245.635123 
L 186.281119 245.388355 
L 186.355445 245.576279 
L 186.42977 245.418151 
L 186.504096 245.595871 
L 186.652747 245.391279 
L 186.95005 245.623007 
L 187.098701 245.466681 
L 187.247353 245.595673 
L 187.47033 245.482682 
L 187.544655 245.616387 
L 187.618981 245.486004 
L 187.693307 245.644748 
L 187.767632 245.564943 
L 187.990609 245.552253 
L 188.733866 245.555354 
L 188.882517 245.659453 
L 189.105495 245.52131 
L 189.17982 245.575627 
L 189.254146 245.484927 
L 189.328472 245.566934 
L 189.477123 245.536422 
L 189.625774 245.555268 
L 189.7001 245.482114 
L 189.774426 245.598344 
L 189.848751 245.523143 
L 189.923077 245.619199 
L 190.071728 245.522346 
L 190.22038 245.653563 
L 190.517682 245.425373 
L 190.740659 245.74395 
L 190.814985 245.546413 
L 190.889311 245.60187 
L 191.260939 245.555218 
L 191.335265 245.720399 
L 191.40959 245.646112 
L 191.558242 245.587173 
L 191.632567 245.772714 
L 191.781219 245.66948 
L 192.078521 245.566627 
L 192.227173 245.708887 
L 192.45015 245.52942 
L 192.524476 245.558393 
L 192.598801 245.415872 
L 192.747453 245.603053 
L 192.97043 245.654647 
L 193.044755 245.543213 
L 193.119081 245.739413 
L 193.193407 245.575331 
L 193.342058 245.723944 
L 193.490709 245.616219 
L 193.565035 245.709257 
L 193.639361 245.633167 
L 193.788012 245.651239 
L 193.862338 245.715193 
L 194.010989 245.553979 
L 194.233966 245.593463 
L 194.605594 245.713929 
L 194.67992 245.51443 
L 194.754246 245.55539 
L 194.902897 245.599175 
L 195.051548 245.679911 
L 195.274525 245.669528 
L 195.348851 245.450224 
L 195.497502 245.721459 
L 195.571828 245.57951 
L 195.646154 245.706354 
L 195.72048 245.646255 
L 195.943457 245.62905 
L 196.166434 245.656331 
L 196.240759 245.70338 
L 196.463736 245.566674 
L 196.686713 245.75072 
L 196.761039 245.466461 
L 196.835365 245.563366 
L 196.90969 245.717282 
L 196.984016 245.577615 
L 197.058342 245.710928 
L 197.132667 245.642498 
L 197.355644 245.686719 
L 197.578621 245.664897 
L 198.098901 245.612341 
L 198.396204 245.836711 
L 198.693506 245.647222 
L 198.842158 245.792232 
L 198.916484 245.612923 
L 198.990809 245.681242 
L 199.65974 245.64195 
L 199.734066 245.609928 
L 199.957043 245.732377 
L 200.031369 245.644718 
L 200.18002 245.754859 
L 200.328671 245.63674 
L 200.551648 245.617898 
L 200.625974 245.583816 
L 200.774625 245.695373 
L 200.848951 245.673507 
L 200.923277 245.820985 
L 200.997602 245.727867 
L 201.071928 245.794186 
L 201.294905 245.619301 
L 201.592208 245.719017 
L 201.666533 245.815359 
L 201.740859 245.667833 
L 201.815185 245.75289 
L 201.963836 245.649331 
L 202.038162 245.587429 
L 202.112488 245.758346 
L 202.186813 245.694307 
L 202.632767 245.688531 
L 202.855744 245.673035 
L 203.078721 245.576701 
L 203.153047 245.733328 
L 203.227373 245.677299 
L 203.45035 245.653217 
L 203.524675 245.812 
L 203.599001 245.755133 
L 203.821978 245.627827 
L 203.970629 245.674933 
L 204.193606 245.665007 
L 204.342258 245.808415 
L 204.565235 245.620993 
L 204.63956 245.63198 
L 204.713886 245.783649 
L 204.788212 245.725233 
L 205.382817 245.637673 
L 205.457143 245.782411 
L 205.531469 245.667766 
L 205.605794 245.716715 
L 206.572028 245.605818 
L 206.646354 245.772158 
L 206.720679 245.6881 
L 206.869331 245.899221 
L 206.943656 245.767895 
L 207.017982 245.83569 
L 207.166633 245.681681 
L 207.240959 245.780982 
L 207.315285 245.691795 
L 207.38961 245.753982 
L 207.538262 245.81652 
L 207.686913 245.602593 
L 207.761239 245.775276 
L 207.835564 245.721271 
L 207.90989 245.609632 
L 208.058541 245.760819 
L 208.207193 245.759721 
L 208.281518 245.719952 
L 208.355844 245.847969 
L 208.43017 245.573169 
L 208.504496 245.741251 
L 208.578821 245.655416 
L 208.95045 245.84425 
L 209.396404 245.676814 
L 209.693706 245.744703 
L 209.991009 245.707357 
L 210.065335 245.564727 
L 210.13966 245.659703 
L 210.288312 245.651758 
L 210.585614 245.609069 
L 210.65994 245.710645 
L 210.734266 245.532026 
L 210.882917 245.784669 
L 211.105894 245.617726 
L 211.328871 245.680011 
L 211.477522 245.684664 
L 211.923477 245.699476 
L 211.997802 245.562529 
L 212.146454 245.722708 
L 212.220779 245.631457 
L 212.295105 245.723631 
L 212.369431 245.622269 
L 212.518082 245.837399 
L 212.666733 245.645717 
L 212.88971 245.685132 
L 213.335664 245.706249 
L 213.484316 245.764068 
L 213.558641 245.604146 
L 213.632967 245.687254 
L 213.707293 245.677291 
L 213.855944 245.796367 
L 213.93027 245.65747 
L 214.004595 245.75316 
L 214.153247 245.641853 
L 214.227572 245.789465 
L 214.301898 245.749893 
L 214.524875 245.638475 
L 214.822178 245.735827 
L 214.896503 245.610821 
L 215.045155 245.737555 
L 215.193806 245.535003 
L 215.268132 245.804023 
L 215.342458 245.671365 
L 215.63976 245.745913 
L 216.011389 245.600611 
L 216.085714 245.732117 
L 216.16004 245.652952 
L 216.308691 245.621834 
L 216.457343 245.706591 
L 216.531668 245.520967 
L 216.605994 245.769145 
L 216.68032 245.706114 
L 216.828971 245.68584 
L 216.977622 245.643928 
L 217.200599 245.655274 
L 217.274925 245.679108 
L 217.349251 245.559546 
L 217.497902 245.646698 
L 217.795205 245.613558 
L 217.86953 245.613815 
L 217.943856 245.76881 
L 218.092507 245.626657 
L 218.166833 245.769746 
L 218.241159 245.653973 
L 218.315485 245.743121 
L 218.538462 245.639013 
L 218.687113 245.74001 
L 218.761439 245.600888 
L 218.91009 245.727072 
L 219.281718 245.599992 
L 219.356044 245.501333 
L 219.504695 245.658882 
L 219.727672 245.78763 
L 219.876324 245.640334 
L 220.024975 245.796513 
L 220.099301 245.712958 
L 220.173626 245.760992 
L 220.322278 245.622288 
L 220.61958 245.617421 
L 220.693906 245.548609 
L 220.842557 245.680226 
L 221.065534 245.611496 
L 221.66014 245.601988 
L 221.734466 245.692816 
L 221.808791 245.61276 
L 222.031768 245.610804 
L 222.106094 245.498655 
L 222.18042 245.563226 
L 222.626374 245.644474 
L 222.775025 245.614968 
L 222.998002 245.652246 
L 223.072328 245.491317 
L 223.146653 245.57672 
L 223.220979 245.74806 
L 223.295305 245.714139 
L 223.36963 245.585789 
L 223.443956 245.697867 
L 223.518282 245.633749 
L 223.666933 245.607379 
L 224.038561 245.627752 
L 224.187213 245.684888 
L 224.261538 245.593776 
L 224.335864 245.73975 
L 224.41019 245.563196 
L 224.484515 245.649808 
L 224.633167 245.576462 
L 224.707493 245.737975 
L 224.781818 245.500404 
L 224.856144 245.658835 
L 224.93047 245.6158 
L 225.079121 245.592031 
L 225.971029 245.628199 
L 226.11968 245.480234 
L 226.194006 245.749361 
L 226.268332 245.625249 
L 226.342657 245.499371 
L 226.416983 245.630391 
L 226.491309 245.552879 
L 226.63996 245.545194 
L 227.234565 245.618351 
L 227.383217 245.565672 
L 228.052148 245.631433 
L 228.126474 245.52579 
L 228.275125 245.607112 
L 228.423776 245.536634 
L 228.498102 245.713886 
L 228.572428 245.544734 
L 228.646753 245.619869 
L 229.092707 245.547874 
L 229.39001 245.546592 
L 229.464336 245.696007 
L 229.538661 245.503279 
L 229.612987 245.616498 
L 229.687313 245.47328 
L 229.761638 245.609303 
L 229.835964 245.563455 
L 229.984615 245.494671 
L 230.133267 245.702158 
L 230.356244 245.571641 
L 230.430569 245.675692 
L 230.653546 245.493502 
L 230.802198 245.649336 
L 230.950849 245.569941 
L 231.0995 245.567596 
L 231.322478 245.521749 
L 231.396803 245.673555 
L 231.471129 245.460914 
L 231.545455 245.657413 
L 231.61978 245.608572 
L 231.694106 245.403082 
L 231.842757 245.678533 
L 231.917083 245.591027 
L 231.991409 245.736892 
L 232.065734 245.546011 
L 232.14006 245.623045 
L 232.288711 245.600809 
L 232.363037 245.550856 
L 232.437363 245.693589 
L 232.511688 245.629026 
L 232.586014 245.529356 
L 232.66034 245.664285 
L 232.734665 245.508072 
L 232.808991 245.733398 
L 232.883317 245.467561 
L 232.957642 245.633243 
L 233.180619 245.420357 
L 233.403596 245.608707 
L 233.552248 245.474704 
L 233.700899 245.617479 
L 233.775225 245.50744 
L 233.923876 245.616088 
L 234.295504 245.507391 
L 234.444156 245.607653 
L 234.592807 245.495915 
L 234.667133 245.613001 
L 234.741459 245.463155 
L 234.815784 245.53222 
L 235.113087 245.645213 
L 235.187413 245.543089 
L 235.261738 245.617079 
L 235.856344 245.561185 
L 236.004995 245.64096 
L 236.079321 245.484243 
L 236.302298 245.811033 
L 236.376623 245.500023 
L 236.450949 245.63154 
L 236.673926 245.473255 
L 236.822577 245.717442 
L 236.896903 245.424303 
L 236.971229 245.550113 
L 237.11988 245.613802 
L 237.342857 245.605363 
L 237.417183 245.712499 
L 237.491508 245.471364 
L 237.565834 245.570646 
L 237.64016 245.460075 
L 237.714486 245.635882 
L 237.788811 245.563179 
L 238.086114 245.660594 
L 238.234765 245.494774 
L 238.309091 245.544472 
L 238.383417 245.421589 
L 238.457742 245.502168 
L 238.532068 245.661635 
L 238.606394 245.597591 
L 238.829371 245.593651 
L 239.126673 245.581985 
L 239.200999 245.447597 
L 239.275325 245.603261 
L 239.34965 245.496056 
L 239.423976 245.547949 
L 239.498302 245.491868 
L 239.572627 245.629117 
L 239.646953 245.425262 
L 239.795604 245.683083 
L 240.092907 245.46036 
L 240.315884 245.603686 
L 240.464535 245.598238 
L 240.538861 245.714586 
L 240.613187 245.441256 
L 240.687512 245.581643 
L 240.836164 245.600178 
L 240.984815 245.645443 
L 241.059141 245.416574 
L 241.207792 245.64448 
L 241.356444 245.517909 
L 241.430769 245.670324 
L 241.505095 245.525095 
L 241.579421 245.615744 
L 241.876723 245.586096 
L 242.025375 245.628935 
L 242.248352 245.480396 
L 242.471329 245.685564 
L 242.545654 245.509442 
L 242.61998 245.623348 
L 242.694306 245.494772 
L 242.768631 245.558218 
L 242.917283 245.713134 
L 242.991608 245.508182 
L 243.065934 245.60888 
L 243.14026 245.672405 
L 243.288911 245.584752 
L 243.437562 245.662293 
L 243.586214 245.549151 
L 243.660539 245.703802 
L 243.734865 245.660812 
L 243.957842 245.729365 
L 244.032168 245.560046 
L 244.180819 245.633787 
L 244.255145 245.556358 
L 244.329471 245.631433 
L 244.626773 245.719952 
L 244.998402 245.481615 
L 245.147053 245.697532 
L 245.444356 245.557607 
L 245.518681 245.635462 
L 245.667333 245.576109 
L 245.89031 245.725008 
L 246.113287 245.602414 
L 246.261938 245.678258 
L 246.410589 245.708887 
L 246.484915 245.821877 
L 246.559241 245.761649 
L 246.707892 245.621464 
L 246.930869 245.725556 
L 247.07952 245.635571 
L 247.153846 245.743618 
L 247.228172 245.670414 
L 247.302498 245.744346 
L 247.376823 245.59765 
L 247.451149 245.682367 
L 247.748452 245.606449 
L 247.822777 245.737504 
L 247.897103 245.636254 
L 247.971429 245.858028 
L 248.045754 245.585839 
L 248.12008 245.748954 
L 248.194406 245.656943 
L 248.566034 245.712553 
L 248.789011 245.544329 
L 249.011988 245.794518 
L 249.383616 245.639773 
L 249.532268 245.756716 
L 250.052547 245.709902 
L 250.126873 245.848614 
L 250.201199 245.769742 
L 250.572827 245.698474 
L 250.647153 245.83959 
L 250.721479 245.772797 
L 250.944456 245.611269 
L 251.093107 245.863424 
L 251.167433 245.65483 
L 251.241758 245.781371 
L 251.316084 245.646132 
L 251.39041 245.719571 
L 251.539061 245.813488 
L 251.687712 245.66238 
L 251.836364 245.756893 
L 252.133666 245.785182 
L 252.282318 245.613391 
L 252.356643 245.801409 
L 252.430969 245.671533 
L 252.57962 245.764211 
L 252.802597 245.783111 
L 253.0999 245.76932 
L 253.248551 245.639041 
L 253.62018 245.853429 
L 253.694505 245.750883 
L 253.768831 245.83315 
L 254.066134 245.819329 
L 254.14046 245.692297 
L 254.214785 245.907516 
L 254.289111 245.82814 
L 254.437762 245.874427 
L 254.512088 245.713787 
L 254.586414 245.776576 
L 254.735065 245.857031 
L 254.809391 245.851869 
L 254.883716 245.720493 
L 254.958042 245.812109 
L 255.552647 245.698124 
L 255.626973 245.878577 
L 255.701299 245.824184 
L 256.072927 245.863795 
L 256.147253 245.728648 
L 256.221578 245.800216 
L 256.816184 245.879614 
L 257.039161 245.808691 
L 257.113487 245.904001 
L 257.187812 245.789404 
L 257.262138 245.848751 
L 257.633766 245.88579 
L 257.856743 245.838539 
L 258.005395 245.851341 
L 258.07972 245.744636 
L 258.154046 245.882372 
L 258.228372 245.821985 
L 258.302697 245.722788 
L 258.377023 245.838242 
L 258.451349 245.773009 
L 258.674326 245.908923 
L 258.748651 245.866857 
L 258.897303 245.905661 
L 259.268931 245.868289 
L 259.937862 245.839004 
L 260.160839 245.804098 
L 260.309491 245.881393 
L 260.383816 245.831285 
L 260.458142 245.919712 
L 260.532468 245.839656 
L 260.82977 245.861799 
L 262.390609 245.851416 
L 262.539261 245.960772 
L 262.687912 245.841663 
L 262.836563 245.908584 
L 262.910889 245.863795 
L 263.05954 245.944898 
L 263.208192 245.849507 
L 263.356843 245.966104 
L 263.431169 245.85273 
L 263.505495 245.909959 
L 263.802797 246.016842 
L 264.174426 245.884136 
L 264.248751 246.005832 
L 264.397403 245.904857 
L 265.437962 245.926854 
L 265.512288 246.039375 
L 265.586613 245.983636 
L 265.958242 245.920798 
L 266.032567 245.993431 
L 266.181219 245.85649 
L 266.627173 245.974443 
L 266.701499 245.892653 
L 266.85015 246.029039 
L 266.998801 245.998181 
L 267.667732 245.972821 
L 276.066533 246.054826 
L 305.350849 246.191509 
L 373.581818 246.237863 
L 373.581818 246.237863 
" clip-path="url(#p00931c2204)" style="fill: none; stroke: #0000ff; stroke-width: 1.5; stroke-linecap: square"/>
   </g>
   <g id="line2d_15">
    <path d="M 69.218182 246.24 
L 129.496304 246.131586 
L 131.354446 245.895086 
L 132.617982 245.52314 
L 133.584216 245.023101 
L 134.476124 244.302303 
L 135.293706 243.329589 
L 136.036963 242.095382 
L 136.78022 240.42869 
L 137.523477 238.217254 
L 138.341059 235.004521 
L 139.158641 230.797982 
L 139.976224 225.411381 
L 140.868132 217.982799 
L 141.834366 207.897233 
L 142.874925 194.515704 
L 144.064136 176.078088 
L 145.550649 149.112113 
L 149.341259 78.17604 
L 150.307493 65.050158 
L 151.050749 57.656059 
L 151.645355 53.687929 
L 152.091309 51.927931 
L 152.462937 51.282877 
L 152.685914 51.258305 
L 152.908891 51.505938 
L 153.206194 52.257589 
L 153.577822 53.866048 
L 154.098102 57.330972 
L 154.692707 62.929571 
L 155.435964 72.144018 
L 156.402198 87.168029 
L 157.74006 111.803441 
L 161.307692 179.116144 
L 162.571229 198.066931 
L 163.686114 211.605884 
L 164.726673 221.575409 
L 165.692907 228.727636 
L 166.584815 233.76773 
L 167.476723 237.5536 
L 168.294306 240.126365 
L 169.111888 242.017175 
L 169.929471 243.377466 
L 170.747053 244.335671 
L 171.638961 245.045077 
L 172.605195 245.536738 
L 173.794406 245.886712 
L 175.42957 246.111518 
L 178.105295 246.219124 
L 187.098701 246.239989 
L 373.581818 246.24 
L 373.581818 246.24 
" clip-path="url(#p00931c2204)" style="fill: none; stroke: #ff0000; stroke-width: 1.5; stroke-linecap: square"/>
   </g>
   <g id="line2d_16">
    <path d="M 69.218182 246.24 
L 128.604396 246.129018 
L 130.536863 245.887669 
L 131.874725 245.499351 
L 132.915285 244.961742 
L 133.807193 244.244512 
L 134.624775 243.292319 
L 135.442358 241.960681 
L 136.185614 240.324239 
L 137.003197 237.931636 
L 137.820779 234.772121 
L 138.638362 230.683445 
L 139.53027 224.969062 
L 140.422178 217.750169 
L 141.388412 208.041526 
L 142.428971 195.256966 
L 143.618182 177.72798 
L 145.104695 152.101301 
L 149.341259 76.269505 
L 150.307493 64.037249 
L 151.050749 57.176426 
L 151.645355 53.502944 
L 152.091309 51.875478 
L 152.462937 51.279278 
L 152.685914 51.256571 
L 152.908891 51.485428 
L 153.206194 52.180226 
L 153.577822 53.667713 
L 154.098102 56.875259 
L 154.692707 62.067466 
L 155.435964 70.639476 
L 156.402198 84.690932 
L 157.74006 107.955824 
L 161.827972 181.767486 
L 163.091508 199.593385 
L 164.206394 212.367167 
L 165.246953 221.83368 
L 166.213187 228.685489 
L 167.105095 233.565228 
L 167.997003 237.275592 
L 168.888911 240.029406 
L 169.706494 241.883406 
L 170.524076 243.236526 
L 171.415984 244.277452 
L 172.307892 244.983834 
L 173.348452 245.512822 
L 174.537662 245.863842 
L 176.172827 246.096877 
L 178.774226 246.213336 
L 186.504096 246.239936 
L 373.581818 246.24 
L 373.581818 246.24 
" clip-path="url(#p00931c2204)" style="fill: none; stroke: #008000; stroke-width: 1.5; stroke-linecap: square"/>
   </g>
   <g id="patch_3">
    <path d="M 54 256.32 
L 54 34.56 
" style="fill: none; stroke: #000000; stroke-width: 0.8; stroke-linejoin: miter; stroke-linecap: square"/>
   </g>
   <g id="patch_4">
    <path d="M 388.8 256.32 
L 388.8 34.56 
" style="fill: none; stroke: #000000; stroke-width: 0.8; stroke-linejoin: miter; stroke-linecap: square"/>
   </g>
   <g id="patch_5">
    <path d="M 54 256.32 
L 388.8 256.32 
" style="fill: none; stroke: #000000; stroke-width: 0.8; stroke-linejoin: miter; stroke-linecap: square"/>
   </g>
   <g id="patch_6">
    <path d="M 54 34.56 
L 388.8 34.56 
" style="fill: none; stroke: #000000; stroke-width: 0.8; stroke-linejoin: miter; stroke-linecap: square"/>
   </g>
   <g id="text_16">
    <!-- Test of fano calculation -->
    <g transform="translate(152.237813 28.56) scale(0.12 -0.12)">
     <defs>
      <path id="DejaVuSans-54" d="M -19 4666 
L 3928 4666 
L 3928 4134 
L 2272 4134 
L 2272 0 
L 1638 0 
L 1638 4134 
L -19 4134 
L -19 4666 
z
" transform="scale(0.015625)"/>
      <path id="DejaVuSans-6f" d="M 1959 3097 
Q 1497 3097 1228 2736 
Q 959 2375 959 1747 
Q 959 1119 1226 758 
Q 1494 397 1959 397 
Q 2419 397 2687 759 
Q 2956 1122 2956 1747 
Q 2956 2369 2687 2733 
Q 2419 3097 1959 3097 
z
M 1959 3584 
Q 2709 3584 3137 3096 
Q 3566 2609 3566 1747 
Q 3566 888 3137 398 
Q 2709 -91 1959 -91 
Q 1206 -91 779 398 
Q 353 888 353 1747 
Q 353 2609 779 3096 
Q 1206 3584 1959 3584 
z
" transform="scale(0.015625)"/>
      <path id="DejaVuSans-66" d="M 2375 4863 
L 2375 4384 
L 1825 4384 
Q 1516 4384 1395 4259 
Q 1275 4134 1275 3809 
L 1275 3500 
L 2222 3500 
L 2222 3053 
L 1275 3053 
L 1275 0 
L 697 0 
L 697 3053 
L 147 3053 
L 147 3500 
L 697 3500 
L 697 3744 
Q 697 4328 969 4595 
Q 1241 4863 1831 4863 
L 2375 4863 
z
" transform="scale(0.015625)"/>
      <path id="DejaVuSans-63" d="M 3122 3366 
L 3122 2828 
Q 2878 2963 2633 3030 
Q 2388 3097 2138 3097 
Q 1578 3097 1268 2742 
Q 959 2388 959 1747 
Q 959 1106 1268 751 
Q 1578 397 2138 397 
Q 2388 397 2633 464 
Q 2878 531 3122 666 
L 3122 134 
Q 2881 22 2623 -34 
Q 2366 -91 2075 -91 
Q 1284 -91 818 406 
Q 353 903 353 1747 
Q 353 2603 823 3093 
Q 1294 3584 2113 3584 
Q 2378 3584 2631 3529 
Q 2884 3475 3122 3366 
z
" transform="scale(0.015625)"/>
      <path id="DejaVuSans-75" d="M 544 1381 
L 544 3500 
L 1119 3500 
L 1119 1403 
Q 1119 906 1312 657 
Q 1506 409 1894 409 
Q 2359 409 2629 706 
Q 2900 1003 2900 1516 
L 2900 3500 
L 3475 3500 
L 3475 0 
L 2900 0 
L 2900 538 
Q 2691 219 2414 64 
Q 2138 -91 1772 -91 
Q 1169 -91 856 284 
Q 544 659 544 1381 
z
M 1991 3584 
L 1991 3584 
z
" transform="scale(0.015625)"/>
     </defs>
     <use xlink:href="#DejaVuSans-54"/>
     <use xlink:href="#DejaVuSans-65" x="44.083984"/>
     <use xlink:href="#DejaVuSans-73" x="105.607422"/>
     <use xlink:href="#DejaVuSans-74" x="157.707031"/>
     <use xlink:href="#DejaVuSans-20" x="196.916016"/>
     <use xlink:href="#DejaVuSans-6f" x="228.703125"/>
     <use xlink:href="#DejaVuSans-66" x="289.884766"/>
     <use xlink:href="#DejaVuSans-20" x="325.089844"/>
     <use xlink:href="#DejaVuSans-66" x="356.876953"/>
     <use xlink:href="#DejaVuSans-61" x="392.082031"/>
     <use xlink:href="#DejaVuSans-6e" x="453.361328"/>
     <use xlink:href="#DejaVuSans-6f" x="516.740234"/>
     <use xlink:href="#DejaVuSans-20" x="577.921875"/>
     <use xlink:href="#DejaVuSans-63" x="609.708984"/>
     <use xlink:href="#DejaVuSans-61" x="664.689453"/>
     <use xlink:href="#DejaVuSans-6c" x="725.96875"/>
     <use xlink:href="#DejaVuSans-63" x="753.751953"/>
     <use xlink:href="#DejaVuSans-75" x="808.732422"/>
     <use xlink:href="#DejaVuSans-6c" x="872.111328"/>
     <use xlink:href="#DejaVuSans-61" x="899.894531"/>
     <use xlink:href="#DejaVuSans-74" x="961.173828"/>
     <use xlink:href="#DejaVuSans-69" x="1000.382812"/>
     <use xlink:href="#DejaVuSans-6f" x="1028.166016"/>
     <use xlink:href="#DejaVuSans-6e" x="1089.347656"/>
    </g>
   </g>
   <g id="legend_1">
    <g id="patch_7">
     <path d="M 208.2375 86.594375 
L 381.8 86.594375 
Q 383.8 86.594375 383.8 84.594375 
L 383.8 41.56 
Q 383.8 39.56 381.8 39.56 
L 208.2375 39.56 
Q 206.2375 39.56 206.2375 41.56 
L 206.2375 84.594375 
Q 206.2375 86.594375 208.2375 86.594375 
z
" style="fill: #ffffff; opacity: 0.8; stroke: #cccccc; stroke-linejoin: miter"/>
    </g>
    <g id="line2d_17">
     <path d="M 210.2375 47.658438 
L 220.2375 47.658438 
L 230.2375 47.658438 
" style="fill: none; stroke: #0000ff; stroke-width: 1.5; stroke-linecap: square"/>
    </g>
    <g id="text_17">
     <!-- Original spectrum -->
     <g transform="translate(238.2375 51.158438) scale(0.1 -0.1)">
      <defs>
       <path id="DejaVuSans-4f" d="M 2522 4238 
Q 1834 4238 1429 3725 
Q 1025 3213 1025 2328 
Q 1025 1447 1429 934 
Q 1834 422 2522 422 
Q 3209 422 3611 934 
Q 4013 1447 4013 2328 
Q 4013 3213 3611 3725 
Q 3209 4238 2522 4238 
z
M 2522 4750 
Q 3503 4750 4090 4092 
Q 4678 3434 4678 2328 
Q 4678 1225 4090 567 
Q 3503 -91 2522 -91 
Q 1538 -91 948 565 
Q 359 1222 359 2328 
Q 359 3434 948 4092 
Q 1538 4750 2522 4750 
z
" transform="scale(0.015625)"/>
       <path id="DejaVuSans-70" d="M 1159 525 
L 1159 -1331 
L 581 -1331 
L 581 3500 
L 1159 3500 
L 1159 2969 
Q 1341 3281 1617 3432 
Q 1894 3584 2278 3584 
Q 2916 3584 3314 3078 
Q 3713 2572 3713 1747 
Q 3713 922 3314 415 
Q 2916 -91 2278 -91 
Q 1894 -91 1617 61 
Q 1341 213 1159 525 
z
M 3116 1747 
Q 3116 2381 2855 2742 
Q 2594 3103 2138 3103 
Q 1681 3103 1420 2742 
Q 1159 2381 1159 1747 
Q 1159 1113 1420 752 
Q 1681 391 2138 391 
Q 2594 391 2855 752 
Q 3116 1113 3116 1747 
z
" transform="scale(0.015625)"/>
       <path id="DejaVuSans-6d" d="M 3328 2828 
Q 3544 3216 3844 3400 
Q 4144 3584 4550 3584 
Q 5097 3584 5394 3201 
Q 5691 2819 5691 2113 
L 5691 0 
L 5113 0 
L 5113 2094 
Q 5113 2597 4934 2840 
Q 4756 3084 4391 3084 
Q 3944 3084 3684 2787 
Q 3425 2491 3425 1978 
L 3425 0 
L 2847 0 
L 2847 2094 
Q 2847 2600 2669 2842 
Q 2491 3084 2119 3084 
Q 1678 3084 1418 2786 
Q 1159 2488 1159 1978 
L 1159 0 
L 581 0 
L 581 3500 
L 1159 3500 
L 1159 2956 
Q 1356 3278 1631 3431 
Q 1906 3584 2284 3584 
Q 2666 3584 2933 3390 
Q 3200 3197 3328 2828 
z
" transform="scale(0.015625)"/>
      </defs>
      <use xlink:href="#DejaVuSans-4f"/>
      <use xlink:href="#DejaVuSans-72" x="78.710938"/>
      <use xlink:href="#DejaVuSans-69" x="119.824219"/>
      <use xlink:href="#DejaVuSans-67" x="147.607422"/>
      <use xlink:href="#DejaVuSans-69" x="211.083984"/>
      <use xlink:href="#DejaVuSans-6e" x="238.867188"/>
      <use xlink:href="#DejaVuSans-61" x="302.246094"/>
      <use xlink:href="#DejaVuSans-6c" x="363.525391"/>
      <use xlink:href="#DejaVuSans-20" x="391.308594"/>
      <use xlink:href="#DejaVuSans-73" x="423.095703"/>
      <use xlink:href="#DejaVuSans-70" x="475.195312"/>
      <use xlink:href="#DejaVuSans-65" x="538.671875"/>
      <use xlink:href="#DejaVuSans-63" x="600.195312"/>
      <use xlink:href="#DejaVuSans-74" x="655.175781"/>
      <use xlink:href="#DejaVuSans-72" x="694.384766"/>
      <use xlink:href="#DejaVuSans-75" x="735.498047"/>
      <use xlink:href="#DejaVuSans-6d" x="798.876953"/>
     </g>
    </g>
    <g id="line2d_18">
     <path d="M 210.2375 62.336563 
L 220.2375 62.336563 
L 230.2375 62.336563 
" style="fill: none; stroke: #ff0000; stroke-width: 1.5; stroke-linecap: square"/>
    </g>
    <g id="text_18">
     <!-- Fitted Gaussian -->
     <g transform="translate(238.2375 65.836563) scale(0.1 -0.1)">
      <defs>
       <path id="DejaVuSans-46" d="M 628 4666 
L 3309 4666 
L 3309 4134 
L 1259 4134 
L 1259 2759 
L 3109 2759 
L 3109 2228 
L 1259 2228 
L 1259 0 
L 628 0 
L 628 4666 
z
" transform="scale(0.015625)"/>
       <path id="DejaVuSans-64" d="M 2906 2969 
L 2906 4863 
L 3481 4863 
L 3481 0 
L 2906 0 
L 2906 525 
Q 2725 213 2448 61 
Q 2172 -91 1784 -91 
Q 1150 -91 751 415 
Q 353 922 353 1747 
Q 353 2572 751 3078 
Q 1150 3584 1784 3584 
Q 2172 3584 2448 3432 
Q 2725 3281 2906 2969 
z
M 947 1747 
Q 947 1113 1208 752 
Q 1469 391 1925 391 
Q 2381 391 2643 752 
Q 2906 1113 2906 1747 
Q 2906 2381 2643 2742 
Q 2381 3103 1925 3103 
Q 1469 3103 1208 2742 
Q 947 2381 947 1747 
z
" transform="scale(0.015625)"/>
       <path id="DejaVuSans-47" d="M 3809 666 
L 3809 1919 
L 2778 1919 
L 2778 2438 
L 4434 2438 
L 4434 434 
Q 4069 175 3628 42 
Q 3188 -91 2688 -91 
Q 1594 -91 976 548 
Q 359 1188 359 2328 
Q 359 3472 976 4111 
Q 1594 4750 2688 4750 
Q 3144 4750 3555 4637 
Q 3966 4525 4313 4306 
L 4313 3634 
Q 3963 3931 3569 4081 
Q 3175 4231 2741 4231 
Q 1884 4231 1454 3753 
Q 1025 3275 1025 2328 
Q 1025 1384 1454 906 
Q 1884 428 2741 428 
Q 3075 428 3337 486 
Q 3600 544 3809 666 
z
" transform="scale(0.015625)"/>
      </defs>
      <use xlink:href="#DejaVuSans-46"/>
      <use xlink:href="#DejaVuSans-69" x="50.269531"/>
      <use xlink:href="#DejaVuSans-74" x="78.052734"/>
      <use xlink:href="#DejaVuSans-74" x="117.261719"/>
      <use xlink:href="#DejaVuSans-65" x="156.470703"/>
      <use xlink:href="#DejaVuSans-64" x="217.994141"/>
      <use xlink:href="#DejaVuSans-20" x="281.470703"/>
      <use xlink:href="#DejaVuSans-47" x="313.257812"/>
      <use xlink:href="#DejaVuSans-61" x="390.748047"/>
      <use xlink:href="#DejaVuSans-75" x="452.027344"/>
      <use xlink:href="#DejaVuSans-73" x="515.40625"/>
      <use xlink:href="#DejaVuSans-73" x="567.505859"/>
      <use xlink:href="#DejaVuSans-69" x="619.605469"/>
      <use xlink:href="#DejaVuSans-61" x="647.388672"/>
      <use xlink:href="#DejaVuSans-6e" x="708.667969"/>
     </g>
    </g>
    <g id="line2d_19">
     <path d="M 210.2375 77.014688 
L 220.2375 77.014688 
L 230.2375 77.014688 
" style="fill: none; stroke: #008000; stroke-width: 1.5; stroke-linecap: square"/>
    </g>
    <g id="text_19">
     <!-- Sigma calculated using fano -->
     <g transform="translate(238.2375 80.514688) scale(0.1 -0.1)">
      <defs>
       <path id="DejaVuSans-53" d="M 3425 4513 
L 3425 3897 
Q 3066 4069 2747 4153 
Q 2428 4238 2131 4238 
Q 1616 4238 1336 4038 
Q 1056 3838 1056 3469 
Q 1056 3159 1242 3001 
Q 1428 2844 1947 2747 
L 2328 2669 
Q 3034 2534 3370 2195 
Q 3706 1856 3706 1288 
Q 3706 609 3251 259 
Q 2797 -91 1919 -91 
Q 1588 -91 1214 -16 
Q 841 59 441 206 
L 441 856 
Q 825 641 1194 531 
Q 1563 422 1919 422 
Q 2459 422 2753 634 
Q 3047 847 3047 1241 
Q 3047 1584 2836 1778 
Q 2625 1972 2144 2069 
L 1759 2144 
Q 1053 2284 737 2584 
Q 422 2884 422 3419 
Q 422 4038 858 4394 
Q 1294 4750 2059 4750 
Q 2388 4750 2728 4690 
Q 3069 4631 3425 4513 
z
" transform="scale(0.015625)"/>
      </defs>
      <use xlink:href="#DejaVuSans-53"/>
      <use xlink:href="#DejaVuSans-69" x="63.476562"/>
      <use xlink:href="#DejaVuSans-67" x="91.259766"/>
      <use xlink:href="#DejaVuSans-6d" x="154.736328"/>
      <use xlink:href="#DejaVuSans-61" x="252.148438"/>
      <use xlink:href="#DejaVuSans-20" x="313.427734"/>
      <use xlink:href="#DejaVuSans-63" x="345.214844"/>
      <use xlink:href="#DejaVuSans-61" x="400.195312"/>
      <use xlink:href="#DejaVuSans-6c" x="461.474609"/>
      <use xlink:href="#DejaVuSans-63" x="489.257812"/>
      <use xlink:href="#DejaVuSans-75" x="544.238281"/>
      <use xlink:href="#DejaVuSans-6c" x="607.617188"/>
      <use xlink:href="#DejaVuSans-61" x="635.400391"/>
      <use xlink:href="#DejaVuSans-74" x="696.679688"/>
      <use xlink:href="#DejaVuSans-65" x="735.888672"/>
      <use xlink:href="#DejaVuSans-64" x="797.412109"/>
      <use xlink:href="#DejaVuSans-20" x="860.888672"/>
      <use xlink:href="#DejaVuSans-75" x="892.675781"/>
      <use xlink:href="#DejaVuSans-73" x="956.054688"/>
      <use xlink:href="#DejaVuSans-69" x="1008.154297"/>
      <use xlink:href="#DejaVuSans-6e" x="1035.9375"/>
      <use xlink:href="#DejaVuSans-67" x="1099.316406"/>
      <use xlink:href="#DejaVuSans-20" x="1162.792969"/>
      <use xlink:href="#DejaVuSans-66" x="1194.580078"/>
      <use xlink:href="#DejaVuSans-61" x="1229.785156"/>
      <use xlink:href="#DejaVuSans-6e" x="1291.064453"/>
      <use xlink:href="#DejaVuSans-6f" x="1354.443359"/>
     </g>
    </g>
   </g>
  </g>
 </g>
 <defs>
  <clipPath id="p00931c2204">
   <rect x="54" y="34.56" width="334.8" height="221.76"/>
  </clipPath>
 </defs>
</svg>
