<?xml version="1.0" encoding="utf-8" standalone="no"?>
<!DOCTYPE svg PUBLIC "-//W3C//DTD SVG 1.1//EN"
  "http://www.w3.org/Graphics/SVG/1.1/DTD/svg11.dtd">
<svg xmlns:xlink="http://www.w3.org/1999/xlink" width="460.8pt" height="345.6pt" viewBox="0 0 460.8 345.6" xmlns="http://www.w3.org/2000/svg" version="1.1">
 <metadata>
  <rdf:RDF xmlns:dc="http://purl.org/dc/elements/1.1/" xmlns:cc="http://creativecommons.org/ns#" xmlns:rdf="http://www.w3.org/1999/02/22-rdf-syntax-ns#">
   <cc:Work>
    <dc:type rdf:resource="http://purl.org/dc/dcmitype/StillImage"/>
    <dc:date>2023-12-28T22:18:10.666784</dc:date>
    <dc:format>image/svg+xml</dc:format>
    <dc:creator>
     <cc:Agent>
      <dc:title>Matplotlib v3.7.1, https://matplotlib.org/</dc:title>
     </cc:Agent>
    </dc:creator>
   </cc:Work>
  </rdf:RDF>
 </metadata>
 <defs>
  <style type="text/css">*{stroke-linejoin: round; stroke-linecap: butt}</style>
 </defs>
 <g id="figure_1">
  <g id="patch_1">
   <path d="M 0 345.6 
L 460.8 345.6 
L 460.8 0 
L 0 0 
z
" style="fill: #ffffff"/>
  </g>
  <g id="axes_1">
   <g id="patch_2">
    <path d="M 57.6 307.584 
L 414.72 307.584 
L 414.72 41.472 
L 57.6 41.472 
z
" style="fill: #ffffff"/>
   </g>
   <g id="matplotlib.axis_1">
    <g id="xtick_1">
     <g id="line2d_1">
      <defs>
       <path id="m59b8c4528c" d="M 0 0 
L 0 3.5 
" style="stroke: #000000; stroke-width: 0.8"/>
      </defs>
      <g>
       <use xlink:href="#m59b8c4528c" x="73.832727" y="307.584" style="stroke: #000000; stroke-width: 0.8"/>
      </g>
     </g>
     <g id="text_1">
      <!-- 0 -->
      <g transform="translate(70.651477 322.182437) scale(0.1 -0.1)">
       <defs>
        <path id="DejaVuSans-30" d="M 2034 4250 
Q 1547 4250 1301 3770 
Q 1056 3291 1056 2328 
Q 1056 1369 1301 889 
Q 1547 409 2034 409 
Q 2525 409 2770 889 
Q 3016 1369 3016 2328 
Q 3016 3291 2770 3770 
Q 2525 4250 2034 4250 
z
M 2034 4750 
Q 2819 4750 3233 4129 
Q 3647 3509 3647 2328 
Q 3647 1150 3233 529 
Q 2819 -91 2034 -91 
Q 1250 -91 836 529 
Q 422 1150 422 2328 
Q 422 3509 836 4129 
Q 1250 4750 2034 4750 
z
" transform="scale(0.015625)"/>
       </defs>
       <use xlink:href="#DejaVuSans-30"/>
      </g>
     </g>
    </g>
    <g id="xtick_2">
     <g id="line2d_2">
      <g>
       <use xlink:href="#m59b8c4528c" x="153.113447" y="307.584" style="stroke: #000000; stroke-width: 0.8"/>
      </g>
     </g>
     <g id="text_2">
      <!-- 1000 -->
      <g transform="translate(140.388447 322.182437) scale(0.1 -0.1)">
       <defs>
        <path id="DejaVuSans-31" d="M 794 531 
L 1825 531 
L 1825 4091 
L 703 3866 
L 703 4441 
L 1819 4666 
L 2450 4666 
L 2450 531 
L 3481 531 
L 3481 0 
L 794 0 
L 794 531 
z
" transform="scale(0.015625)"/>
       </defs>
       <use xlink:href="#DejaVuSans-31"/>
       <use xlink:href="#DejaVuSans-30" x="63.623047"/>
       <use xlink:href="#DejaVuSans-30" x="127.246094"/>
       <use xlink:href="#DejaVuSans-30" x="190.869141"/>
      </g>
     </g>
    </g>
    <g id="xtick_3">
     <g id="line2d_3">
      <g>
       <use xlink:href="#m59b8c4528c" x="232.394166" y="307.584" style="stroke: #000000; stroke-width: 0.8"/>
      </g>
     </g>
     <g id="text_3">
      <!-- 2000 -->
      <g transform="translate(219.669166 322.182437) scale(0.1 -0.1)">
       <defs>
        <path id="DejaVuSans-32" d="M 1228 531 
L 3431 531 
L 3431 0 
L 469 0 
L 469 531 
Q 828 903 1448 1529 
Q 2069 2156 2228 2338 
Q 2531 2678 2651 2914 
Q 2772 3150 2772 3378 
Q 2772 3750 2511 3984 
Q 2250 4219 1831 4219 
Q 1534 4219 1204 4116 
Q 875 4013 500 3803 
L 500 4441 
Q 881 4594 1212 4672 
Q 1544 4750 1819 4750 
Q 2544 4750 2975 4387 
Q 3406 4025 3406 3419 
Q 3406 3131 3298 2873 
Q 3191 2616 2906 2266 
Q 2828 2175 2409 1742 
Q 1991 1309 1228 531 
z
" transform="scale(0.015625)"/>
       </defs>
       <use xlink:href="#DejaVuSans-32"/>
       <use xlink:href="#DejaVuSans-30" x="63.623047"/>
       <use xlink:href="#DejaVuSans-30" x="127.246094"/>
       <use xlink:href="#DejaVuSans-30" x="190.869141"/>
      </g>
     </g>
    </g>
    <g id="xtick_4">
     <g id="line2d_4">
      <g>
       <use xlink:href="#m59b8c4528c" x="311.674885" y="307.584" style="stroke: #000000; stroke-width: 0.8"/>
      </g>
     </g>
     <g id="text_4">
      <!-- 3000 -->
      <g transform="translate(298.949885 322.182437) scale(0.1 -0.1)">
       <defs>
        <path id="DejaVuSans-33" d="M 2597 2516 
Q 3050 2419 3304 2112 
Q 3559 1806 3559 1356 
Q 3559 666 3084 287 
Q 2609 -91 1734 -91 
Q 1441 -91 1130 -33 
Q 819 25 488 141 
L 488 750 
Q 750 597 1062 519 
Q 1375 441 1716 441 
Q 2309 441 2620 675 
Q 2931 909 2931 1356 
Q 2931 1769 2642 2001 
Q 2353 2234 1838 2234 
L 1294 2234 
L 1294 2753 
L 1863 2753 
Q 2328 2753 2575 2939 
Q 2822 3125 2822 3475 
Q 2822 3834 2567 4026 
Q 2313 4219 1838 4219 
Q 1578 4219 1281 4162 
Q 984 4106 628 3988 
L 628 4550 
Q 988 4650 1302 4700 
Q 1616 4750 1894 4750 
Q 2613 4750 3031 4423 
Q 3450 4097 3450 3541 
Q 3450 3153 3228 2886 
Q 3006 2619 2597 2516 
z
" transform="scale(0.015625)"/>
       </defs>
       <use xlink:href="#DejaVuSans-33"/>
       <use xlink:href="#DejaVuSans-30" x="63.623047"/>
       <use xlink:href="#DejaVuSans-30" x="127.246094"/>
       <use xlink:href="#DejaVuSans-30" x="190.869141"/>
      </g>
     </g>
    </g>
    <g id="xtick_5">
     <g id="line2d_5">
      <g>
       <use xlink:href="#m59b8c4528c" x="390.955604" y="307.584" style="stroke: #000000; stroke-width: 0.8"/>
      </g>
     </g>
     <g id="text_5">
      <!-- 4000 -->
      <g transform="translate(378.230604 322.182437) scale(0.1 -0.1)">
       <defs>
        <path id="DejaVuSans-34" d="M 2419 4116 
L 825 1625 
L 2419 1625 
L 2419 4116 
z
M 2253 4666 
L 3047 4666 
L 3047 1625 
L 3713 1625 
L 3713 1100 
L 3047 1100 
L 3047 0 
L 2419 0 
L 2419 1100 
L 313 1100 
L 313 1709 
L 2253 4666 
z
" transform="scale(0.015625)"/>
       </defs>
       <use xlink:href="#DejaVuSans-34"/>
       <use xlink:href="#DejaVuSans-30" x="63.623047"/>
       <use xlink:href="#DejaVuSans-30" x="127.246094"/>
       <use xlink:href="#DejaVuSans-30" x="190.869141"/>
      </g>
     </g>
    </g>
   </g>
   <g id="matplotlib.axis_2">
    <g id="ytick_1">
     <g id="line2d_6">
      <defs>
       <path id="mdbe3ea08bb" d="M 0 0 
L -3.5 0 
" style="stroke: #000000; stroke-width: 0.8"/>
      </defs>
      <g>
       <use xlink:href="#mdbe3ea08bb" x="57.6" y="295.488" style="stroke: #000000; stroke-width: 0.8"/>
      </g>
     </g>
     <g id="text_6">
      <!-- 0.0 -->
      <g transform="translate(34.696875 299.287219) scale(0.1 -0.1)">
       <defs>
        <path id="DejaVuSans-2e" d="M 684 794 
L 1344 794 
L 1344 0 
L 684 0 
L 684 794 
z
" transform="scale(0.015625)"/>
       </defs>
       <use xlink:href="#DejaVuSans-30"/>
       <use xlink:href="#DejaVuSans-2e" x="63.623047"/>
       <use xlink:href="#DejaVuSans-30" x="95.410156"/>
      </g>
     </g>
    </g>
    <g id="ytick_2">
     <g id="line2d_7">
      <g>
       <use xlink:href="#mdbe3ea08bb" x="57.6" y="247.104" style="stroke: #000000; stroke-width: 0.8"/>
      </g>
     </g>
     <g id="text_7">
      <!-- 0.2 -->
      <g transform="translate(34.696875 250.903219) scale(0.1 -0.1)">
       <use xlink:href="#DejaVuSans-30"/>
       <use xlink:href="#DejaVuSans-2e" x="63.623047"/>
       <use xlink:href="#DejaVuSans-32" x="95.410156"/>
      </g>
     </g>
    </g>
    <g id="ytick_3">
     <g id="line2d_8">
      <g>
       <use xlink:href="#mdbe3ea08bb" x="57.6" y="198.72" style="stroke: #000000; stroke-width: 0.8"/>
      </g>
     </g>
     <g id="text_8">
      <!-- 0.4 -->
      <g transform="translate(34.696875 202.519219) scale(0.1 -0.1)">
       <use xlink:href="#DejaVuSans-30"/>
       <use xlink:href="#DejaVuSans-2e" x="63.623047"/>
       <use xlink:href="#DejaVuSans-34" x="95.410156"/>
      </g>
     </g>
    </g>
    <g id="ytick_4">
     <g id="line2d_9">
      <g>
       <use xlink:href="#mdbe3ea08bb" x="57.6" y="150.336" style="stroke: #000000; stroke-width: 0.8"/>
      </g>
     </g>
     <g id="text_9">
      <!-- 0.6 -->
      <g transform="translate(34.696875 154.135219) scale(0.1 -0.1)">
       <defs>
        <path id="DejaVuSans-36" d="M 2113 2584 
Q 1688 2584 1439 2293 
Q 1191 2003 1191 1497 
Q 1191 994 1439 701 
Q 1688 409 2113 409 
Q 2538 409 2786 701 
Q 3034 994 3034 1497 
Q 3034 2003 2786 2293 
Q 2538 2584 2113 2584 
z
M 3366 4563 
L 3366 3988 
Q 3128 4100 2886 4159 
Q 2644 4219 2406 4219 
Q 1781 4219 1451 3797 
Q 1122 3375 1075 2522 
Q 1259 2794 1537 2939 
Q 1816 3084 2150 3084 
Q 2853 3084 3261 2657 
Q 3669 2231 3669 1497 
Q 3669 778 3244 343 
Q 2819 -91 2113 -91 
Q 1303 -91 875 529 
Q 447 1150 447 2328 
Q 447 3434 972 4092 
Q 1497 4750 2381 4750 
Q 2619 4750 2861 4703 
Q 3103 4656 3366 4563 
z
" transform="scale(0.015625)"/>
       </defs>
       <use xlink:href="#DejaVuSans-30"/>
       <use xlink:href="#DejaVuSans-2e" x="63.623047"/>
       <use xlink:href="#DejaVuSans-36" x="95.410156"/>
      </g>
     </g>
    </g>
    <g id="ytick_5">
     <g id="line2d_10">
      <g>
       <use xlink:href="#mdbe3ea08bb" x="57.6" y="101.952" style="stroke: #000000; stroke-width: 0.8"/>
      </g>
     </g>
     <g id="text_10">
      <!-- 0.8 -->
      <g transform="translate(34.696875 105.751219) scale(0.1 -0.1)">
       <defs>
        <path id="DejaVuSans-38" d="M 2034 2216 
Q 1584 2216 1326 1975 
Q 1069 1734 1069 1313 
Q 1069 891 1326 650 
Q 1584 409 2034 409 
Q 2484 409 2743 651 
Q 3003 894 3003 1313 
Q 3003 1734 2745 1975 
Q 2488 2216 2034 2216 
z
M 1403 2484 
Q 997 2584 770 2862 
Q 544 3141 544 3541 
Q 544 4100 942 4425 
Q 1341 4750 2034 4750 
Q 2731 4750 3128 4425 
Q 3525 4100 3525 3541 
Q 3525 3141 3298 2862 
Q 3072 2584 2669 2484 
Q 3125 2378 3379 2068 
Q 3634 1759 3634 1313 
Q 3634 634 3220 271 
Q 2806 -91 2034 -91 
Q 1263 -91 848 271 
Q 434 634 434 1313 
Q 434 1759 690 2068 
Q 947 2378 1403 2484 
z
M 1172 3481 
Q 1172 3119 1398 2916 
Q 1625 2713 2034 2713 
Q 2441 2713 2670 2916 
Q 2900 3119 2900 3481 
Q 2900 3844 2670 4047 
Q 2441 4250 2034 4250 
Q 1625 4250 1398 4047 
Q 1172 3844 1172 3481 
z
" transform="scale(0.015625)"/>
       </defs>
       <use xlink:href="#DejaVuSans-30"/>
       <use xlink:href="#DejaVuSans-2e" x="63.623047"/>
       <use xlink:href="#DejaVuSans-38" x="95.410156"/>
      </g>
     </g>
    </g>
    <g id="ytick_6">
     <g id="line2d_11">
      <g>
       <use xlink:href="#mdbe3ea08bb" x="57.6" y="53.568" style="stroke: #000000; stroke-width: 0.8"/>
      </g>
     </g>
     <g id="text_11">
      <!-- 1.0 -->
      <g transform="translate(34.696875 57.367219) scale(0.1 -0.1)">
       <use xlink:href="#DejaVuSans-31"/>
       <use xlink:href="#DejaVuSans-2e" x="63.623047"/>
       <use xlink:href="#DejaVuSans-30" x="95.410156"/>
      </g>
     </g>
    </g>
   </g>
   <g id="line2d_12">
    <path d="M 73.832727 295.488 
L 77.638202 295.488 
L 77.955325 135.540893 
L 78.113886 255.501223 
L 78.193167 255.501223 
L 78.431009 290.489653 
L 78.51029 292.988826 
L 78.748132 255.501223 
L 78.906693 255.501223 
L 78.985974 275.494612 
L 79.144535 255.501223 
L 79.382378 290.489653 
L 79.540939 294.238413 
L 79.6995 255.501223 
L 79.778781 275.494612 
L 79.937343 255.501223 
L 80.175185 290.489653 
L 80.333746 215.514446 
L 80.571588 285.491306 
L 80.809431 294.238413 
L 80.967992 295.175603 
L 81.205834 255.501223 
L 81.443676 290.489653 
L 81.681518 294.863207 
L 81.760799 295.175603 
L 81.919361 255.501223 
L 82.157203 290.489653 
L 82.315764 294.238413 
L 82.474326 255.501223 
L 82.712168 290.489653 
L 82.870729 294.238413 
L 83.029291 255.501223 
L 83.108571 275.494612 
L 83.267133 215.514446 
L 83.504975 285.491306 
L 83.742817 294.238413 
L 83.901379 295.175603 
L 84.05994 215.514446 
L 84.297782 285.491306 
L 84.377063 290.489653 
L 84.614905 255.501223 
L 84.852747 290.489653 
L 85.011309 255.501223 
L 85.249151 290.489653 
L 85.486993 294.863207 
L 85.724835 295.409901 
L 85.962677 255.501223 
L 86.121239 255.501223 
L 86.359081 290.489653 
L 86.517642 255.501223 
L 86.755485 290.489653 
L 86.993327 255.501223 
L 87.072607 255.501223 
L 87.231169 285.491306 
L 87.38973 255.501223 
L 87.627572 290.489653 
L 87.865415 294.863207 
L 88.023976 295.331802 
L 88.182537 255.501223 
L 88.42038 290.489653 
L 88.658222 294.863207 
L 88.816783 295.331802 
L 88.975345 255.501223 
L 89.213187 290.489653 
L 89.292468 292.988826 
L 89.451029 255.501223 
L 89.688871 290.489653 
L 89.768152 292.988826 
L 89.926713 255.501223 
L 90.085275 285.491306 
L 90.243836 255.501223 
L 90.481678 290.489653 
L 90.64024 294.238413 
L 90.798801 255.501223 
L 91.036643 290.489653 
L 91.115924 292.988826 
L 91.274486 255.501223 
L 91.512328 290.489653 
L 91.75017 255.501223 
L 91.988012 290.489653 
L 92.146573 294.238413 
L 92.305135 255.501223 
L 92.542977 290.489653 
L 92.780819 294.863207 
L 93.018661 295.409901 
L 93.415065 295.485559 
L 93.494346 295.48678 
L 93.652907 255.501223 
L 93.890749 290.489653 
L 93.97003 292.988826 
L 94.128591 255.501223 
L 94.366434 290.489653 
L 94.604276 294.863207 
L 94.762837 295.331802 
L 94.921399 255.501223 
L 95.07996 285.491306 
L 95.238521 255.501223 
L 95.476364 290.489653 
L 95.714206 294.863207 
L 95.793487 295.175603 
L 95.952048 255.501223 
L 96.110609 285.491306 
L 96.269171 255.501223 
L 96.507013 290.489653 
L 96.744855 294.863207 
L 96.982697 295.409901 
L 97.379101 295.485559 
L 97.537662 255.501223 
L 97.616943 275.494612 
L 97.775504 255.501223 
L 98.013347 290.489653 
L 98.171908 255.501223 
L 98.251189 275.494612 
L 98.40975 215.514446 
L 98.647592 285.491306 
L 98.806154 292.988826 
L 98.964715 215.514446 
L 99.281838 275.494612 
L 99.361119 285.491306 
L 99.51968 255.501223 
L 99.757522 290.489653 
L 99.995365 294.863207 
L 100.233207 295.409901 
L 100.312488 295.44895 
L 100.55033 255.501223 
L 100.708891 285.491306 
L 100.867453 255.501223 
L 101.105295 290.489653 
L 101.343137 255.501223 
L 101.580979 290.489653 
L 101.818821 294.863207 
L 102.056663 295.409901 
L 102.215225 255.501223 
L 102.453067 290.489653 
L 102.611628 294.238413 
L 102.849471 255.501223 
L 103.008032 285.491306 
L 103.325155 215.514446 
L 103.562997 285.491306 
L 103.721558 215.514446 
L 103.959401 285.491306 
L 104.197243 294.238413 
L 104.435085 295.331802 
L 104.672927 295.468475 
L 104.99005 295.48678 
L 105.148611 175.527669 
L 105.307173 275.494612 
L 105.545015 292.988826 
L 105.782857 295.175603 
L 106.020699 295.44895 
L 106.258541 255.501223 
L 106.654945 255.501223 
L 106.813506 175.527669 
L 107.051349 280.492959 
L 107.289191 255.501223 
L 107.527033 255.501223 
L 107.606314 275.494612 
L 107.844156 255.501223 
L 108.081998 290.489653 
L 108.31984 294.863207 
L 108.478402 295.331802 
L 108.716244 255.501223 
L 108.874805 255.501223 
L 109.112647 290.489653 
L 109.35049 294.863207 
L 109.588332 255.501223 
L 109.667612 275.494612 
L 109.826174 255.501223 
L 109.905455 275.494612 
L 110.064016 255.501223 
L 110.301858 290.489653 
L 110.46042 294.238413 
L 110.618981 255.501223 
L 110.777542 285.491306 
L 110.936104 135.540893 
L 111.173946 255.501223 
L 111.253227 275.494612 
L 111.411788 215.514446 
L 111.491069 255.501223 
L 111.64963 215.514446 
L 111.808192 255.501223 
L 112.125315 255.501223 
L 112.363157 290.489653 
L 112.521718 294.238413 
L 112.75956 255.501223 
L 112.997403 290.489653 
L 113.235245 294.863207 
L 113.314525 295.175603 
L 113.473087 215.514446 
L 113.710929 285.491306 
L 113.948771 294.238413 
L 114.186613 295.331802 
L 114.424456 295.468475 
L 114.741578 295.48678 
L 114.90014 255.501223 
L 115.137982 290.489653 
L 115.296543 294.238413 
L 115.613666 215.514446 
L 115.772228 275.494612 
L 115.930789 255.501223 
L 116.01007 275.494612 
L 116.168631 255.501223 
L 116.247912 175.527669 
L 116.406474 255.501223 
L 116.802877 255.501223 
L 116.882158 275.494612 
L 117.040719 255.501223 
L 117.12 275.494612 
L 117.278561 215.514446 
L 117.437123 275.494612 
L 117.674965 255.501223 
L 117.833526 285.491306 
L 117.992088 255.501223 
L 118.071369 275.494612 
L 118.309211 255.501223 
L 118.388492 255.501223 
L 118.626334 290.489653 
L 118.705614 292.988826 
L 118.943457 255.501223 
L 119.260579 255.501223 
L 119.419141 215.514446 
L 119.656983 285.491306 
L 119.894825 294.238413 
L 119.974106 294.863207 
L 120.132667 215.514446 
L 120.370509 285.491306 
L 120.608352 255.501223 
L 120.687632 255.501223 
L 120.925475 290.489653 
L 121.163317 255.501223 
L 121.55972 255.501223 
L 121.639001 275.494612 
L 121.797562 215.514446 
L 122.035405 285.491306 
L 122.114685 290.489653 
L 122.273247 255.501223 
L 122.352527 275.494612 
L 122.59037 255.501223 
L 122.748931 255.501223 
L 122.986773 290.489653 
L 123.224615 294.863207 
L 123.303896 295.175603 
L 123.462458 215.514446 
L 123.621019 275.494612 
L 123.858861 255.501223 
L 123.938142 255.501223 
L 124.017423 215.514446 
L 124.255265 285.491306 
L 124.493107 294.238413 
L 124.730949 295.331802 
L 124.81023 295.409901 
L 125.048072 215.514446 
L 125.285914 285.491306 
L 125.365195 290.489653 
L 125.523756 255.501223 
L 125.761598 290.489653 
L 125.92016 294.238413 
L 126.158002 255.501223 
L 126.237283 255.501223 
L 126.316563 215.514446 
L 126.554406 285.491306 
L 126.633686 290.489653 
L 126.792248 255.501223 
L 127.03009 290.489653 
L 127.109371 292.988826 
L 127.347213 255.501223 
L 127.426494 255.501223 
L 127.505774 275.494612 
L 127.664336 215.514446 
L 127.902178 255.501223 
L 128.14002 255.501223 
L 128.298581 215.514446 
L 128.457143 255.501223 
L 128.694985 255.501223 
L 128.932827 290.489653 
L 129.170669 175.527669 
L 129.24995 175.527669 
L 129.408511 245.504529 
L 129.567073 255.501223 
L 129.646354 215.514446 
L 129.884196 285.491306 
L 130.042757 292.988826 
L 130.201319 255.501223 
L 130.280599 275.494612 
L 130.439161 175.527669 
L 130.518442 195.521058 
L 130.677003 255.501223 
L 130.756284 235.507835 
L 130.835564 215.514446 
L 130.994126 275.494612 
L 131.152687 255.501223 
L 131.231968 215.514446 
L 131.311249 255.501223 
L 131.390529 215.514446 
L 131.628372 285.491306 
L 131.707652 290.489653 
L 131.866214 255.501223 
L 132.104056 290.489653 
L 132.341898 255.501223 
L 132.421179 255.501223 
L 132.50046 215.514446 
L 132.659021 275.494612 
L 132.817582 255.501223 
L 133.055425 290.489653 
L 133.293267 255.501223 
L 133.531109 255.501223 
L 133.768951 290.489653 
L 133.848232 292.988826 
L 134.006793 255.501223 
L 134.244635 290.489653 
L 134.561758 215.514446 
L 134.72032 275.494612 
L 134.958162 255.501223 
L 135.037443 175.527669 
L 135.275285 280.492959 
L 135.513127 255.501223 
L 135.592408 255.501223 
L 135.83025 290.489653 
L 136.068092 294.863207 
L 136.147373 295.175603 
L 136.305934 255.501223 
L 136.385215 275.494612 
L 136.623057 255.501223 
L 136.860899 255.501223 
L 136.94018 275.494612 
L 137.098741 255.501223 
L 137.257303 285.491306 
L 137.415864 255.501223 
L 137.653706 290.489653 
L 137.891548 294.863207 
L 137.970829 295.175603 
L 138.129391 175.527669 
L 138.287952 265.497917 
L 138.525794 255.501223 
L 138.684356 285.491306 
L 138.842917 255.501223 
L 139.080759 290.489653 
L 139.239321 294.238413 
L 139.477163 255.501223 
L 139.873566 255.501223 
L 140.111409 290.489653 
L 140.349251 294.863207 
L 140.428531 295.175603 
L 140.666374 175.527669 
L 140.824935 265.497917 
L 140.983497 215.514446 
L 141.221339 285.491306 
L 141.459181 294.238413 
L 141.538462 294.863207 
L 141.697023 255.501223 
L 141.776304 275.494612 
L 142.014146 255.501223 
L 142.093427 275.494612 
L 142.251988 255.501223 
L 142.48983 290.489653 
L 142.648392 294.238413 
L 142.806953 255.501223 
L 142.965514 285.491306 
L 143.203357 255.501223 
L 143.441199 290.489653 
L 143.59976 255.501223 
L 143.837602 290.489653 
L 143.996164 294.238413 
L 144.154725 255.501223 
L 144.234006 275.494612 
L 144.392567 255.501223 
L 144.471848 275.494612 
L 144.70969 255.501223 
L 144.947532 290.489653 
L 145.185375 294.863207 
L 145.423217 255.501223 
L 145.661059 290.489653 
L 145.898901 294.863207 
L 146.136743 215.514446 
L 146.295305 215.514446 
L 146.533147 285.491306 
L 146.770989 294.238413 
L 147.008831 255.501223 
L 147.088112 255.501223 
L 147.246673 285.491306 
L 147.405235 215.514446 
L 147.563796 275.494612 
L 147.722358 215.514446 
L 147.9602 285.491306 
L 148.198042 255.501223 
L 148.277323 275.494612 
L 148.515165 235.507835 
L 148.594446 215.514446 
L 148.753007 255.501223 
L 148.832288 215.514446 
L 148.911568 255.501223 
L 149.07013 215.514446 
L 149.149411 255.501223 
L 149.307972 215.514446 
L 149.704376 290.489653 
L 149.783656 292.988826 
L 149.942218 255.501223 
L 150.18006 290.489653 
L 150.497183 215.514446 
L 150.655744 255.501223 
L 150.735025 255.501223 
L 150.814306 275.494612 
L 151.052148 255.501223 
L 151.28999 255.501223 
L 151.448551 285.491306 
L 151.765674 175.527669 
L 151.844955 235.507835 
L 152.003516 135.540893 
L 152.162078 255.501223 
L 152.479201 255.501223 
L 152.637762 215.514446 
L 152.796324 275.494612 
L 152.954885 255.501223 
L 153.034166 175.527669 
L 153.113447 255.501223 
L 153.192727 235.507835 
L 153.272008 215.514446 
L 153.351289 255.501223 
L 153.50985 215.514446 
L 153.668412 53.568 
L 153.826973 215.514446 
L 153.985534 215.514446 
L 154.144096 255.501223 
L 154.302657 215.514446 
L 154.461219 255.501223 
L 154.61978 175.527669 
L 154.857622 255.501223 
L 154.936903 275.494612 
L 155.095465 175.527669 
L 155.333307 255.501223 
L 155.571149 255.501223 
L 155.65043 275.494612 
L 155.808991 175.527669 
L 155.967552 255.501223 
L 156.046833 255.501223 
L 156.126114 275.494612 
L 156.363956 215.514446 
L 156.443237 215.514446 
L 156.601798 255.501223 
L 156.83964 255.501223 
L 156.998202 285.491306 
L 157.156763 255.501223 
L 157.236044 135.540893 
L 157.394605 235.507835 
L 157.553167 255.501223 
L 157.632448 255.501223 
L 157.711728 215.514446 
L 158.028851 275.494612 
L 158.266693 255.501223 
L 158.345974 255.501223 
L 158.425255 175.527669 
L 158.504535 215.514446 
L 158.663097 175.527669 
L 158.742378 255.501223 
L 158.821658 175.527669 
L 158.98022 255.501223 
L 159.138781 215.514446 
L 159.218062 215.514446 
L 159.297343 135.540893 
L 159.455904 215.514446 
L 159.535185 215.514446 
L 159.773027 285.491306 
L 160.09015 135.540893 
L 160.407273 255.501223 
L 160.486553 175.527669 
L 160.724396 255.501223 
L 160.803676 255.501223 
L 160.882957 215.514446 
L 160.962238 95.554116 
L 161.20008 275.494612 
L 161.358641 255.501223 
L 161.437922 215.514446 
L 161.596484 275.494612 
L 161.755045 135.540893 
L 162.072168 255.501223 
L 162.151449 255.501223 
L 162.230729 275.494612 
L 162.389291 215.514446 
L 162.547852 255.501223 
L 162.627133 255.501223 
L 162.785694 285.491306 
L 163.023536 255.501223 
L 163.261379 290.489653 
L 163.499221 215.514446 
L 163.657782 255.501223 
L 163.816344 255.501223 
L 164.054186 215.514446 
L 164.212747 255.501223 
L 164.371309 255.501223 
L 164.52987 215.514446 
L 164.688432 255.501223 
L 164.767712 255.501223 
L 164.926274 215.514446 
L 165.084835 255.501223 
L 165.164116 215.514446 
L 165.322677 275.494612 
L 165.560519 255.501223 
L 165.719081 255.501223 
L 165.877642 215.514446 
L 166.115485 255.501223 
L 166.274046 255.501223 
L 166.353327 215.514446 
L 166.591169 275.494612 
L 166.74973 215.514446 
L 166.987572 285.491306 
L 167.304695 215.514446 
L 167.383976 175.527669 
L 167.701099 285.491306 
L 167.85966 215.514446 
L 168.018222 255.501223 
L 168.097502 255.501223 
L 168.335345 290.489653 
L 168.573187 294.863207 
L 168.811029 295.409901 
L 169.207433 295.485559 
L 169.365994 215.514446 
L 169.524555 255.501223 
L 169.603836 255.501223 
L 169.762398 285.491306 
L 169.920959 255.501223 
L 170.158801 290.489653 
L 170.396643 255.501223 
L 170.475924 255.501223 
L 170.634486 285.491306 
L 170.793047 255.501223 
L 170.872328 175.527669 
L 171.030889 255.501223 
L 171.189451 255.501223 
L 171.348012 215.514446 
L 171.427293 255.501223 
L 171.506573 215.514446 
L 171.744416 285.491306 
L 171.902977 255.501223 
L 171.982258 215.514446 
L 172.140819 255.501223 
L 172.2201 255.501223 
L 172.299381 275.494612 
L 172.457942 255.501223 
L 172.537223 275.494612 
L 172.695784 255.501223 
L 172.854346 175.527669 
L 173.171469 255.501223 
L 173.33003 175.527669 
L 173.647153 285.491306 
L 173.805714 255.501223 
L 173.884995 275.494612 
L 174.043556 255.501223 
L 174.202118 215.514446 
L 174.360679 275.494612 
L 174.519241 255.501223 
L 174.677802 285.491306 
L 174.836364 215.514446 
L 175.074206 285.491306 
L 175.232767 255.501223 
L 175.391329 285.491306 
L 175.54989 255.501223 
L 175.787732 290.489653 
L 176.025574 215.514446 
L 176.104855 235.507835 
L 176.263417 255.501223 
L 176.342697 255.501223 
L 176.421978 275.494612 
L 176.65982 215.514446 
L 176.818382 255.501223 
L 176.897662 255.501223 
L 176.976943 215.514446 
L 177.056224 255.501223 
L 177.214785 175.527669 
L 177.373347 275.494612 
L 177.611189 255.501223 
L 177.69047 175.527669 
L 177.849031 215.514446 
L 177.928312 215.514446 
L 178.166154 255.501223 
L 178.721119 255.501223 
L 178.87968 285.491306 
L 179.038242 255.501223 
L 179.117522 275.494612 
L 179.355365 255.501223 
L 179.434645 215.514446 
L 179.593207 275.494612 
L 179.751768 255.501223 
L 179.831049 275.494612 
L 180.068891 215.514446 
L 180.148172 215.514446 
L 180.306733 255.501223 
L 180.465295 215.514446 
L 180.544575 255.501223 
L 180.623856 215.514446 
L 180.782418 255.501223 
L 180.940979 215.514446 
L 181.178821 255.501223 
L 181.258102 135.540893 
L 181.337383 175.527669 
L 181.416663 175.527669 
L 181.575225 275.494612 
L 181.733786 175.527669 
L 181.892348 255.501223 
L 182.288751 255.501223 
L 182.368032 53.568 
L 182.605874 275.494612 
L 182.685155 285.491306 
L 182.843716 95.554116 
L 183.002278 255.501223 
L 183.081558 275.494612 
L 183.319401 255.501223 
L 183.477962 215.514446 
L 183.557243 215.514446 
L 183.715804 255.501223 
L 183.795085 275.494612 
L 183.953646 215.514446 
L 184.112208 255.501223 
L 184.270769 255.501223 
L 184.429331 215.514446 
L 184.587892 255.501223 
L 184.667173 255.501223 
L 184.746454 135.540893 
L 184.825734 255.501223 
L 184.905015 175.527669 
L 185.063576 255.501223 
L 185.142857 275.494612 
L 185.380699 255.501223 
L 185.618541 255.501223 
L 185.697822 215.514446 
L 185.856384 255.501223 
L 186.094226 255.501223 
L 186.252787 95.554116 
L 186.411349 215.514446 
L 186.490629 175.527669 
L 186.56991 255.501223 
L 186.728472 175.527669 
L 186.887033 245.504529 
L 186.966314 255.501223 
L 187.045594 215.514446 
L 187.204156 275.494612 
L 187.362717 215.514446 
L 187.441998 255.501223 
L 187.600559 135.540893 
L 187.838402 275.494612 
L 187.917682 285.491306 
L 188.076244 215.514446 
L 188.234805 255.501223 
L 188.314086 255.501223 
L 188.472647 175.527669 
L 188.551928 175.527669 
L 188.869051 285.491306 
L 189.106893 255.501223 
L 189.186174 175.527669 
L 189.344735 265.497917 
L 189.582577 215.514446 
L 189.741139 255.501223 
L 189.978981 255.501223 
L 190.058262 135.540893 
L 190.296104 255.501223 
L 190.454665 255.501223 
L 190.533946 275.494612 
L 190.771788 255.501223 
L 191.00963 255.501223 
L 191.088911 275.494612 
L 191.247473 215.514446 
L 191.485315 285.491306 
L 191.643876 292.988826 
L 191.881718 255.501223 
L 191.960999 255.501223 
L 192.04028 215.514446 
L 192.11956 255.501223 
L 192.198841 215.514446 
L 192.357403 275.494612 
L 192.515964 215.514446 
L 192.595245 255.501223 
L 192.674525 135.540893 
L 192.833087 275.494612 
L 192.991648 255.501223 
L 193.070929 215.514446 
L 193.229491 275.494612 
L 193.467333 255.501223 
L 193.546613 255.501223 
L 193.705175 285.491306 
L 193.943017 255.501223 
L 194.101578 255.501223 
L 194.26014 215.514446 
L 194.418701 255.501223 
L 194.577263 215.514446 
L 194.656543 255.501223 
L 194.815105 215.514446 
L 194.973666 255.501223 
L 195.132228 255.501223 
L 195.211508 275.494612 
L 195.37007 255.501223 
L 195.449351 275.494612 
L 195.687193 255.501223 
L 195.845754 255.501223 
L 195.925035 215.514446 
L 196.321439 290.489653 
L 196.48 255.501223 
L 196.559281 275.494612 
L 196.717842 215.514446 
L 196.955684 255.501223 
L 197.193526 255.501223 
L 197.431369 290.489653 
L 197.58993 255.501223 
L 197.748492 285.491306 
L 197.986334 255.501223 
L 198.144895 285.491306 
L 198.462018 215.514446 
L 198.620579 255.501223 
L 198.779141 175.527669 
L 198.858422 255.501223 
L 198.937702 215.514446 
L 199.096264 275.494612 
L 199.334106 255.501223 
L 199.651229 255.501223 
L 199.889071 290.489653 
L 199.968352 292.988826 
L 200.206194 255.501223 
L 200.523317 255.501223 
L 200.761159 290.489653 
L 200.84044 292.988826 
L 201.078282 255.501223 
L 201.157562 275.494612 
L 201.316124 255.501223 
L 201.474685 175.527669 
L 201.791808 285.491306 
L 201.95037 255.501223 
L 202.02965 215.514446 
L 202.267493 285.491306 
L 202.426054 292.988826 
L 202.663896 215.514446 
L 202.743177 175.527669 
L 202.901738 265.497917 
L 203.13958 255.501223 
L 203.218861 215.514446 
L 203.377423 255.501223 
L 203.535984 215.514446 
L 203.773826 285.491306 
L 203.853107 290.489653 
L 204.011668 255.501223 
L 204.24951 290.489653 
L 204.328791 292.988826 
L 204.566633 255.501223 
L 204.804476 255.501223 
L 204.883756 275.494612 
L 205.042318 255.501223 
L 205.121598 215.514446 
L 205.28016 275.494612 
L 205.518002 255.501223 
L 205.597283 255.501223 
L 205.835125 290.489653 
L 205.914406 292.988826 
L 206.072967 255.501223 
L 206.152248 175.527669 
L 206.469371 285.491306 
L 206.627932 292.988826 
L 206.786494 255.501223 
L 206.945055 285.491306 
L 207.182897 255.501223 
L 207.420739 255.501223 
L 207.50002 275.494612 
L 207.737862 255.501223 
L 207.896424 255.501223 
L 207.975704 275.494612 
L 208.213546 255.501223 
L 208.292827 255.501223 
L 208.530669 290.489653 
L 208.689231 255.501223 
L 208.927073 290.489653 
L 209.164915 294.863207 
L 209.323477 215.514446 
L 209.482038 275.494612 
L 209.640599 255.501223 
L 209.71988 275.494612 
L 209.878442 255.501223 
L 210.116284 290.489653 
L 210.274845 294.238413 
L 210.671249 215.514446 
L 210.82981 255.501223 
L 210.909091 255.501223 
L 211.146933 290.489653 
L 211.384775 294.863207 
L 211.622617 255.501223 
L 212.019021 255.501223 
L 212.256863 290.489653 
L 212.494705 255.501223 
L 212.811828 255.501223 
L 212.891109 275.494612 
L 213.128951 255.501223 
L 213.208232 255.501223 
L 213.287512 275.494612 
L 213.446074 255.501223 
L 213.525355 275.494612 
L 213.683916 255.501223 
L 213.763197 275.494612 
L 213.921758 215.514446 
L 214.1596 285.491306 
L 214.397443 294.238413 
L 214.635285 295.331802 
L 214.793846 255.501223 
L 214.873127 275.494612 
L 215.031688 255.501223 
L 215.110969 275.494612 
L 215.348811 255.501223 
L 215.428092 255.501223 
L 215.665934 290.489653 
L 215.903776 294.863207 
L 216.141618 295.409901 
L 216.30018 255.501223 
L 216.379461 275.494612 
L 216.617303 255.501223 
L 216.696583 255.501223 
L 216.934426 290.489653 
L 217.092987 255.501223 
L 217.330829 290.489653 
L 217.568671 294.863207 
L 217.806513 295.409901 
L 218.123636 215.514446 
L 218.282198 255.501223 
L 218.361479 255.501223 
L 218.599321 290.489653 
L 218.678601 292.988826 
L 218.837163 255.501223 
L 218.916444 275.494612 
L 219.075005 255.501223 
L 219.233566 285.491306 
L 219.392128 255.501223 
L 219.62997 290.489653 
L 219.788531 255.501223 
L 220.026374 290.489653 
L 220.184935 294.238413 
L 220.343497 255.501223 
L 220.502058 285.491306 
L 220.660619 255.501223 
L 220.898462 290.489653 
L 221.136304 294.863207 
L 221.374146 295.409901 
L 221.532707 255.501223 
L 221.770549 290.489653 
L 222.008392 294.863207 
L 222.166953 255.501223 
L 222.404795 290.489653 
L 222.642637 255.501223 
L 222.721918 255.501223 
L 222.95976 290.489653 
L 223.197602 294.863207 
L 223.435445 295.409901 
L 223.831848 295.485559 
L 224.06969 295.487695 
L 224.228252 255.501223 
L 224.466094 290.489653 
L 224.703936 294.863207 
L 224.941778 295.409901 
L 225.338182 295.485559 
L 226.765235 295.488 
L 226.923796 255.501223 
L 227.161638 290.489653 
L 227.399481 294.863207 
L 227.637323 295.409901 
L 227.954446 295.483119 
L 228.113007 255.501223 
L 228.350849 290.489653 
L 228.588691 294.863207 
L 228.826533 295.409901 
L 229.222937 295.485559 
L 230.729271 295.488 
L 230.887832 255.501223 
L 231.125674 290.489653 
L 231.363516 294.863207 
L 231.601359 295.409901 
L 231.680639 295.44895 
L 231.839201 255.501223 
L 232.077043 290.489653 
L 232.314885 294.863207 
L 232.552727 295.409901 
L 232.949131 295.485559 
L 233.028412 295.48678 
L 233.186973 255.501223 
L 233.424815 290.489653 
L 233.662657 294.863207 
L 233.9005 295.409901 
L 234.138342 295.478238 
L 234.376184 255.501223 
L 234.455465 255.501223 
L 234.693307 290.489653 
L 234.931149 294.863207 
L 235.08971 295.331802 
L 235.248272 255.501223 
L 235.327552 275.494612 
L 235.486114 255.501223 
L 235.723956 290.489653 
L 235.961798 294.863207 
L 236.19964 295.409901 
L 236.596044 295.485559 
L 241.67001 295.488 
L 241.828571 255.501223 
L 241.987133 285.491306 
L 242.145694 255.501223 
L 242.383536 290.489653 
L 242.621379 294.863207 
L 242.859221 295.409901 
L 243.255624 295.485559 
L 244.761958 295.488 
L 244.920519 255.501223 
L 245.158362 290.489653 
L 245.396204 294.863207 
L 245.634046 295.409901 
L 246.03045 295.485559 
L 247.14038 295.488 
L 247.298941 255.501223 
L 247.536783 290.489653 
L 247.774625 294.863207 
L 248.012468 295.409901 
L 248.408871 295.485559 
L 250.153047 295.488 
L 250.311608 255.501223 
L 250.549451 290.489653 
L 250.787293 294.863207 
L 250.945854 295.331802 
L 251.104416 255.501223 
L 251.342258 290.489653 
L 251.421538 292.988826 
L 251.5801 255.501223 
L 251.738661 285.491306 
L 251.897223 255.501223 
L 252.135065 290.489653 
L 252.372907 294.863207 
L 252.610749 295.409901 
L 252.927872 295.483119 
L 253.086434 255.501223 
L 253.324276 290.489653 
L 253.562118 294.863207 
L 253.79996 295.409901 
L 254.196364 295.485559 
L 255.227013 295.488 
L 255.464855 255.501223 
L 255.544136 255.501223 
L 255.623417 275.494612 
L 255.781978 255.501223 
L 256.01982 290.489653 
L 256.257662 294.863207 
L 256.495504 295.409901 
L 256.891908 295.485559 
L 257.209031 295.487847 
L 257.367592 255.501223 
L 257.605435 290.489653 
L 257.843277 294.863207 
L 258.081119 295.409901 
L 258.477522 295.485559 
L 259.587453 295.488 
L 259.746014 255.501223 
L 259.983856 290.489653 
L 260.063137 292.988826 
L 260.221698 255.501223 
L 260.45954 290.489653 
L 260.697383 294.863207 
L 260.935225 295.409901 
L 261.331628 295.485559 
L 261.49019 295.48739 
L 261.648751 255.501223 
L 261.886593 290.489653 
L 262.124436 294.863207 
L 262.362278 295.409901 
L 262.520839 255.501223 
L 262.60012 275.494612 
L 262.758681 255.501223 
L 262.996523 290.489653 
L 263.234366 294.863207 
L 263.472208 295.409901 
L 263.551489 295.44895 
L 263.71005 255.501223 
L 263.947892 290.489653 
L 264.027173 292.988826 
L 264.185734 255.501223 
L 264.423576 290.489653 
L 264.661419 294.863207 
L 264.899261 295.409901 
L 265.295664 295.485559 
L 266.247033 295.487999 
L 266.405594 255.501223 
L 266.643437 290.489653 
L 266.881279 294.863207 
L 267.119121 295.409901 
L 267.515524 295.485559 
L 267.991209 295.487962 
L 268.14977 255.501223 
L 268.387612 290.489653 
L 268.625455 294.863207 
L 268.863297 295.409901 
L 269.2597 295.485559 
L 269.576823 295.487847 
L 269.735385 255.501223 
L 269.973227 290.489653 
L 270.131788 255.501223 
L 270.36963 290.489653 
L 270.607473 294.863207 
L 270.845315 295.409901 
L 271.241718 295.485559 
L 271.320999 295.48678 
L 271.47956 255.501223 
L 271.717403 290.489653 
L 271.955245 294.863207 
L 272.113806 255.501223 
L 272.351648 290.489653 
L 272.589491 294.863207 
L 272.827333 295.409901 
L 273.223736 295.485559 
L 273.461578 255.501223 
L 273.540859 255.501223 
L 273.778701 290.489653 
L 274.016543 294.863207 
L 274.175105 295.331802 
L 274.333666 255.501223 
L 274.571508 290.489653 
L 274.809351 294.863207 
L 275.047193 295.409901 
L 275.443596 295.485559 
L 278.376983 295.488 
L 278.535544 255.501223 
L 278.773387 290.489653 
L 279.011229 294.863207 
L 279.249071 295.409901 
L 279.645475 295.485559 
L 281.706773 295.488 
L 281.865335 255.501223 
L 282.103177 290.489653 
L 282.341019 294.863207 
L 282.578861 295.409901 
L 282.975265 295.485559 
L 287.256424 295.488 
L 287.414985 255.501223 
L 287.652827 290.489653 
L 287.890669 294.863207 
L 288.049231 255.501223 
L 288.287073 290.489653 
L 288.524915 294.863207 
L 288.762757 295.409901 
L 289.159161 295.485559 
L 296.532268 295.488 
L 310.644236 295.488 
L 310.802797 255.501223 
L 311.040639 290.489653 
L 311.278482 294.863207 
L 311.516324 295.409901 
L 311.912727 295.485559 
L 313.815465 295.488 
L 313.974026 255.501223 
L 314.211868 290.489653 
L 314.44971 294.863207 
L 314.608272 255.501223 
L 314.846114 290.489653 
L 315.083956 294.863207 
L 315.321798 295.409901 
L 315.718202 295.485559 
L 316.907413 295.488 
L 317.065974 255.501223 
L 317.303816 290.489653 
L 317.541658 294.863207 
L 317.7795 295.409901 
L 318.175904 295.485559 
L 325.549011 295.488 
L 387.387972 295.488 
L 387.546533 255.501223 
L 387.784376 290.489653 
L 388.022218 294.863207 
L 388.26006 295.409901 
L 388.656464 295.485559 
L 396.02957 295.488 
L 398.328711 295.488 
L 398.328711 295.488 
" clip-path="url(#pe83f634430)" style="fill: none; stroke: #1f77b4; stroke-width: 1.5; stroke-linecap: square"/>
   </g>
   <g id="line2d_13">
    <path d="M 73.832727 295.488 
L 81.84008 295.488 
L 82.077922 294.596281 
L 82.315764 294.455067 
L 82.474326 294.437815 
L 82.553606 294.034198 
L 82.791449 288.742801 
L 83.108571 283.33894 
L 83.187852 283.060143 
L 83.742817 275.857415 
L 84.139221 268.648517 
L 84.535624 263.45097 
L 84.773467 263.157373 
L 84.932028 263.121671 
L 85.011309 262.76583 
L 85.407712 258.090896 
L 85.645554 257.856274 
L 85.804116 257.826891 
L 85.883397 257.202503 
L 86.200519 252.975888 
L 86.359081 252.429186 
L 86.755485 247.57466 
L 86.834765 247.429786 
L 86.993327 244.894117 
L 87.469011 237.939934 
L 87.786134 238.031437 
L 88.103257 233.467832 
L 88.182537 233.550724 
L 88.578941 238.034078 
L 88.737502 238.669477 
L 88.975345 236.46742 
L 89.292468 237.500746 
L 89.53031 240.59484 
L 89.768152 241.197326 
L 90.243836 246.132529 
L 90.481678 246.278919 
L 90.560959 246.290542 
L 90.64024 246.646058 
L 90.878082 250.150531 
L 91.274486 246.520917 
L 91.353766 246.362059 
L 91.512328 244.037547 
L 91.591608 244.453821 
L 91.829451 246.055328 
L 91.988012 246.469454 
L 92.225854 250.166596 
L 92.463696 247.131503 
L 92.542977 247.42119 
L 92.622258 247.884399 
L 92.780819 246.895603 
L 92.8601 247.168349 
L 93.177223 251.016261 
L 93.256503 251.219426 
L 93.335784 250.924309 
L 93.494346 248.970766 
L 93.652907 250.524181 
L 93.732188 249.839775 
L 93.890749 247.303924 
L 93.97003 247.402589 
L 94.287153 251.120186 
L 94.366434 251.555458 
L 94.921399 258.709631 
L 95.000679 258.775201 
L 95.159241 258.232754 
L 95.238521 258.531395 
L 95.397083 256.513751 
L 95.634925 254.423102 
L 95.714206 253.841542 
L 96.031329 246.727585 
L 96.269171 239.943236 
L 96.427732 239.101419 
L 96.507013 239.398806 
L 96.586294 239.325707 
L 96.982697 229.963048 
L 97.061978 230.163175 
L 97.141259 231.411997 
L 97.220539 231.183357 
L 97.458382 228.883528 
L 97.696224 228.545042 
L 97.775504 228.517131 
L 97.854785 228.829848 
L 98.171908 232.956149 
L 98.33047 232.855158 
L 98.726873 228.732125 
L 98.885435 227.040397 
L 98.964715 227.132255 
L 99.123277 227.762437 
L 99.281838 225.723132 
L 99.361119 226.210663 
L 99.598961 229.043582 
L 99.836803 229.471994 
L 99.995365 229.524699 
L 100.153926 227.070723 
L 100.391768 224.663306 
L 100.788172 223.581829 
L 100.867453 222.889436 
L 100.946733 223.285971 
L 101.105295 224.800294 
L 101.263856 221.260401 
L 101.422418 216.936634 
L 101.580979 217.8207 
L 101.73954 220.127911 
L 101.977383 217.725832 
L 102.135944 217.466184 
L 102.294505 221.967662 
L 102.611628 231.402631 
L 102.849471 234.266419 
L 103.087313 237.644438 
L 103.166593 237.329709 
L 103.562997 224.968766 
L 103.721558 224.523716 
L 103.800839 224.806558 
L 104.355804 232.93047 
L 104.514366 230.727082 
L 104.752208 227.515295 
L 104.831489 227.515295 
L 104.910769 227.078707 
L 105.069331 219.809789 
L 105.307173 212.423474 
L 105.465734 209.9775 
L 105.782857 204.534041 
L 106.020699 202.461642 
L 106.258541 197.908389 
L 106.337822 198.451597 
L 106.654945 203.042248 
L 106.813506 206.050812 
L 107.051349 212.119243 
L 107.289191 209.590471 
L 107.685594 216.287048 
L 107.764875 216.4768 
L 107.844156 216.284594 
L 108.240559 208.848752 
L 108.636963 201.206081 
L 108.716244 200.495279 
L 108.795524 200.71157 
L 109.033367 211.101948 
L 109.112647 210.912219 
L 109.42977 204.525991 
L 109.667612 188.932927 
L 110.064016 180.89476 
L 110.143297 180.523999 
L 110.381139 177.724901 
L 110.5397 177.724901 
L 110.698262 182.254377 
L 110.936104 186.199336 
L 111.094665 188.180104 
L 111.332507 192.154361 
L 111.411788 192.154361 
L 111.57035 192.60922 
L 111.728911 195.153995 
L 111.966753 198.996606 
L 112.046034 199.353285 
L 112.125315 198.112898 
L 112.363157 190.749938 
L 112.521718 189.693479 
L 112.68028 192.331277 
L 113.076683 200.145033 
L 113.314525 200.782657 
L 113.393806 200.83314 
L 113.473087 201.150053 
L 113.710929 204.406508 
L 113.79021 203.756587 
L 113.869491 204.364156 
L 114.265894 210.194878 
L 114.424456 206.648194 
L 114.662298 199.567825 
L 114.820859 199.654458 
L 114.979421 198.483428 
L 115.296543 206.460106 
L 115.375824 206.460106 
L 115.534386 205.687244 
L 116.089351 213.206885 
L 116.168631 213.685704 
L 116.327193 211.214894 
L 116.406474 211.359616 
L 116.485754 211.539551 
L 116.644316 209.063659 
L 116.882158 206.047092 
L 117.12 207.015899 
L 117.199281 206.685312 
L 117.674965 198.829269 
L 117.754246 200.020437 
L 117.912807 205.021506 
L 117.992088 204.670001 
L 118.309211 198.222317 
L 118.467772 193.50011 
L 118.705614 184.422422 
L 118.943457 182.798649 
L 119.181299 182.566039 
L 119.894825 172.667549 
L 119.974106 172.706044 
L 120.291229 180.493984 
L 120.370509 179.909679 
L 120.529071 179.247053 
L 120.687632 178.061926 
L 120.766913 178.874114 
L 120.925475 182.658923 
L 121.004755 183.192557 
L 121.163317 180.703475 
L 121.242597 180.811654 
L 121.55972 184.687518 
L 121.639001 184.620602 
L 121.797562 185.1114 
L 121.956124 187.790461 
L 122.035405 187.645738 
L 122.193966 186.517725 
L 122.748931 194.60039 
L 122.828212 194.264877 
L 122.986773 191.86111 
L 123.145335 192.958266 
L 123.303896 190.653294 
L 123.621019 183.875749 
L 123.858861 188.093454 
L 124.096703 194.627294 
L 124.334545 203.694664 
L 124.413826 204.145215 
L 124.493107 203.232814 
L 124.81023 194.920301 
L 124.88951 195.973558 
L 125.048072 200.751091 
L 125.206633 199.861731 
L 125.285914 200.051589 
L 125.603037 206.236011 
L 125.682318 205.767508 
L 125.999441 199.33988 
L 126.078721 199.411516 
L 126.712967 208.357085 
L 126.871528 213.153604 
L 126.950809 212.750459 
L 127.188651 208.705671 
L 127.267932 209.386085 
L 127.664336 204.089677 
L 127.743616 204.089677 
L 127.822897 203.777483 
L 127.981459 200.65167 
L 128.377862 188.519438 
L 128.457143 188.103869 
L 128.774266 192.992665 
L 128.853546 192.302631 
L 129.24995 180.000674 
L 129.487792 175.016158 
L 129.725634 168.759783 
L 129.963477 167.864123 
L 130.122038 167.175634 
L 130.280599 169.505836 
L 130.914845 148.438729 
L 131.073407 146.48195 
L 131.46981 138.402432 
L 131.549091 139.309488 
L 131.786933 144.207214 
L 131.945495 141.878857 
L 132.024775 141.889839 
L 132.183337 144.222067 
L 132.262617 143.874116 
L 132.659021 136.395587 
L 132.738302 136.904294 
L 132.817582 137.529287 
L 132.896863 136.963344 
L 132.976144 137.790779 
L 133.293267 146.089998 
L 133.531109 146.103974 
L 133.61039 146.58364 
L 134.165355 156.715637 
L 134.244635 156.023243 
L 134.403197 155.503949 
L 134.561758 161.563598 
L 134.7996 169.432491 
L 134.878881 169.670751 
L 135.196004 173.686558 
L 135.354565 168.035241 
L 135.592408 164.222027 
L 135.83025 162.746608 
L 135.90953 163.155001 
L 136.543776 189.571685 
L 136.702338 188.98739 
L 136.94018 192.402163 
L 137.098741 194.515402 
L 137.257303 192.80499 
L 137.495145 190.685157 
L 137.653706 191.133119 
L 137.732987 190.866786 
L 137.891548 188.939956 
L 138.05011 191.374222 
L 138.446513 201.617646 
L 138.525794 201.254229 
L 138.842917 191.628057 
L 139.001479 190.951032 
L 139.080759 191.168116 
L 139.318601 194.385045 
L 139.556444 193.153028 
L 139.635724 193.036228 
L 139.715005 193.358526 
L 139.873566 195.75699 
L 139.952847 195.160524 
L 140.26997 191.019022 
L 140.745654 196.71136 
L 140.904216 202.009794 
L 141.062777 209.493724 
L 141.142058 209.34034 
L 141.459181 197.641555 
L 141.538462 197.929548 
L 142.014146 189.630367 
L 142.093427 189.494584 
L 142.172707 189.756839 
L 142.331269 192.232604 
L 142.410549 191.856795 
L 142.48983 191.767009 
L 142.648392 192.981904 
L 142.806953 193.089599 
L 142.886234 194.059578 
L 142.965514 193.897915 
L 143.044795 193.253077 
L 143.361918 195.819088 
L 143.52048 198.394167 
L 143.837602 195.594396 
L 144.075445 190.430841 
L 144.154725 191.462329 
L 144.392567 201.085748 
L 144.471848 200.937425 
L 144.551129 201.423625 
L 144.947532 206.170714 
L 145.026813 206.85137 
L 145.264655 204.483959 
L 145.502498 200.868846 
L 145.661059 200.48311 
L 145.81962 202.422586 
L 146.216024 210.35827 
L 146.295305 209.707045 
L 146.612428 204.851301 
L 146.691708 204.592553 
L 146.770989 205.937327 
L 147.008831 219.867716 
L 147.088112 219.443653 
L 147.246673 216.060341 
L 147.325954 215.990642 
L 147.563796 213.567266 
L 147.801638 213.260593 
L 147.880919 213.23503 
L 148.118761 212.254561 
L 148.198042 211.415751 
L 148.277323 211.577173 
L 148.435884 213.471936 
L 148.594446 209.718892 
L 148.673726 209.883944 
L 148.753007 209.822594 
L 149.149411 201.239625 
L 149.228691 201.639011 
L 149.307972 201.49804 
L 149.466533 199.593959 
L 149.625095 200.026251 
L 149.704376 199.628869 
L 150.814306 170.495191 
L 150.972867 172.751156 
L 151.369271 175.80609 
L 151.527832 176.030071 
L 151.686394 173.691686 
L 152.003516 166.113441 
L 152.082797 166.04955 
L 152.320639 163.491132 
L 152.637762 157.044575 
L 152.717043 158.112266 
L 153.034166 166.749029 
L 153.272008 155.236693 
L 153.430569 145.834268 
L 153.589131 135.755491 
L 153.747692 135.506741 
L 153.826973 135.506741 
L 153.985534 133.74224 
L 154.144096 131.475445 
L 154.302657 132.371369 
L 154.381938 132.366045 
L 154.5405 133.996714 
L 154.857622 124.754077 
L 154.936903 124.48484 
L 155.016184 123.575847 
L 155.095465 121.196638 
L 155.491868 98.681665 
L 155.65043 96.112961 
L 155.72971 97.38255 
L 155.808991 97.220403 
L 155.888272 96.921762 
L 155.967552 96.989041 
L 156.126114 98.156743 
L 156.205395 97.932883 
L 156.522517 91.657541 
L 156.681079 88.608749 
L 156.918921 78.88932 
L 157.156763 74.809924 
L 157.315325 73.474145 
L 157.473886 75.419065 
L 157.632448 71.889215 
L 157.711728 71.889215 
L 157.94957 71.128696 
L 158.108132 68.052859 
L 158.345974 64.492879 
L 158.583816 62.009364 
L 158.663097 63.24858 
L 159.138781 79.216579 
L 159.218062 79.407767 
L 159.376623 78.757242 
L 159.455904 78.757242 
L 159.535185 78.469733 
L 159.693746 76.292361 
L 159.931588 79.002883 
L 160.09015 78.704242 
L 160.248711 82.93072 
L 160.327992 81.19526 
L 160.645115 73.306431 
L 160.803676 76.046648 
L 161.041518 92.034419 
L 161.20008 92.034419 
L 161.517203 83.581463 
L 161.755045 85.669533 
L 161.992887 91.982023 
L 162.31001 75.871359 
L 162.389291 77.274538 
L 162.468571 80.15471 
L 162.547852 78.986281 
L 162.706414 75.145085 
L 162.864975 75.145085 
L 162.944256 74.551674 
L 163.182098 64.050096 
L 163.41994 66.6453 
L 163.499221 66.19649 
L 163.578501 64.375964 
L 163.657782 64.882613 
L 163.816344 68.487607 
L 164.212747 58.273538 
L 164.292028 58.273538 
L 164.52987 55.706892 
L 164.609151 53.568 
L 165.005554 64.684286 
L 165.6398 73.412105 
L 165.719081 73.269047 
L 165.877642 71.155808 
L 166.511888 83.835241 
L 166.591169 83.835241 
L 167.225415 97.777488 
L 167.542537 92.352209 
L 167.621818 93.320253 
L 168.018222 112.512683 
L 168.097502 112.813503 
L 168.256064 117.300384 
L 168.493906 114.926741 
L 168.573187 115.520152 
L 168.811029 128.92223 
L 168.89031 127.238803 
L 169.048871 125.213293 
L 169.207433 126.843357 
L 169.365994 124.705675 
L 169.445275 126.561656 
L 169.683117 140.922703 
L 169.762398 140.922703 
L 169.841678 139.848658 
L 170.07952 131.43394 
L 170.158801 132.168201 
L 170.317363 136.6572 
L 170.396643 136.273069 
L 170.713766 131.186666 
L 170.793047 131.516224 
L 171.11017 135.217811 
L 171.189451 135.516702 
L 171.348012 138.603027 
L 171.665135 148.631257 
L 171.982258 159.131115 
L 172.140819 158.231784 
L 172.299381 158.231784 
L 172.378661 158.89562 
L 172.616503 166.023445 
L 172.695784 166.181478 
L 172.854346 169.431261 
L 173.012907 174.564917 
L 173.092188 174.713572 
L 173.488591 178.253344 
L 173.567872 178.675895 
L 173.805714 174.449417 
L 173.964276 177.09024 
L 174.043556 178.311669 
L 174.122837 177.682198 
L 174.360679 173.946276 
L 174.43996 174.155858 
L 174.677802 179.343603 
L 174.836364 178.836953 
L 174.994925 179.555241 
L 175.153487 177.406548 
L 175.232767 177.440671 
L 175.391329 177.75105 
L 175.54989 183.191697 
L 175.708452 186.511118 
L 176.025574 173.944582 
L 176.104855 175.901966 
L 176.184136 175.517653 
L 176.65982 164.331457 
L 176.976943 159.044912 
L 177.135504 154.430438 
L 177.373347 145.412557 
L 177.611189 142.351607 
L 177.849031 146.893867 
L 178.086873 143.793647 
L 178.166154 143.808955 
L 178.324715 144.570986 
L 178.641838 142.79142 
L 178.721119 142.771514 
L 178.958961 146.372394 
L 179.038242 146.086005 
L 179.196803 143.268544 
L 179.276084 143.395358 
L 179.434645 145.777713 
L 179.513926 145.777713 
L 179.751768 146.765359 
L 179.831049 146.668313 
L 179.91033 145.283527 
L 180.068891 147.396766 
L 180.148172 146.765117 
L 180.465295 137.803092 
L 180.544575 137.623036 
L 180.782418 139.100996 
L 180.940979 136.525274 
L 181.258102 125.414918 
L 181.337383 125.648217 
L 181.654505 135.874144 
L 181.733786 135.874144 
L 181.813067 136.364942 
L 182.209471 144.833266 
L 182.288751 144.794423 
L 182.447313 144.380342 
L 182.526593 144.678984 
L 182.685155 144.380342 
L 183.002278 146.792223 
L 183.160839 146.493581 
L 183.24012 146.792223 
L 183.319401 146.368462 
L 183.636523 140.362115 
L 183.795085 138.345801 
L 184.905015 109.608764 
L 185.063576 105.389063 
L 185.142857 106.151639 
L 185.222138 105.001845 
L 185.380699 100.640325 
L 185.618541 104.332443 
L 185.777103 104.332443 
L 185.856384 106.061853 
L 185.935664 105.367741 
L 186.094226 96.281056 
L 186.332068 98.394779 
L 186.411349 96.243423 
L 186.56991 86.59687 
L 186.966314 97.739777 
L 187.045594 97.499702 
L 187.362717 91.387959 
L 187.441998 91.387959 
L 187.521279 92.165056 
L 187.600559 92.088823 
L 187.996963 86.369017 
L 188.076244 85.713651 
L 188.314086 80.538249 
L 188.393367 80.538249 
L 188.472647 81.90319 
L 188.71049 71.874864 
L 188.869051 70.145818 
L 188.948332 70.175827 
L 189.424016 77.974627 
L 189.741139 80.274215 
L 189.978981 82.623172 
L 190.058262 81.334222 
L 190.375385 68.520715 
L 190.613227 76.838144 
L 190.771788 72.214284 
L 190.851069 72.47251 
L 190.93035 75.507084 
L 191.00963 75.479011 
L 191.088911 75.094698 
L 191.168192 75.827991 
L 191.247473 75.817463 
L 191.564595 68.985642 
L 191.802438 77.405345 
L 191.960999 77.607545 
L 192.04028 79.197678 
L 192.278122 88.782397 
L 192.357403 88.340486 
L 192.674525 73.920752 
L 192.753806 74.746009 
L 193.070929 82.309696 
L 193.705175 75.560375 
L 193.943017 78.270897 
L 194.101578 78.270897 
L 194.180859 82.425256 
L 194.26014 77.79825 
L 194.339421 78.238468 
L 194.497982 79.327517 
L 194.656543 78.009888 
L 194.973666 79.327517 
L 195.052947 79.327517 
L 195.132228 79.584532 
L 195.290789 81.742059 
L 195.37007 82.387502 
L 195.528631 79.861151 
L 195.607912 79.89479 
L 195.766474 91.277046 
L 196.083596 108.489555 
L 196.162877 109.023431 
L 196.321439 114.096221 
L 196.400719 113.807744 
L 196.48 113.694483 
L 196.559281 112.218216 
L 196.717842 115.334832 
L 196.876404 112.110158 
L 196.955684 113.32832 
L 197.034965 109.226236 
L 197.114246 109.310456 
L 197.352088 121.10534 
L 197.58993 116.745998 
L 197.669211 117.850293 
L 197.827772 120.350024 
L 197.986334 120.398184 
L 198.382737 138.62487 
L 198.462018 138.277826 
L 198.620579 135.306901 
L 198.779141 132.020998 
L 198.858422 132.097474 
L 199.016983 135.773135 
L 199.096264 133.804013 
L 199.175544 134.187843 
L 199.413387 135.476066 
L 199.651229 135.476066 
L 199.730509 136.063427 
L 199.80979 138.132378 
L 200.047632 147.789701 
L 200.206194 148.1555 
L 200.285475 148.1555 
L 200.444036 146.754136 
L 200.681878 143.400713 
L 200.84044 145.44764 
L 201.236843 151.257656 
L 201.791808 140.263253 
L 201.871089 140.263253 
L 202.108931 146.677812 
L 202.267493 149.732836 
L 202.346773 149.306655 
L 202.584615 155.017991 
L 202.743177 161.434909 
L 202.822458 161.727742 
L 203.13958 164.651113 
L 203.853107 147.955569 
L 204.090949 149.253171 
L 204.17023 149.253171 
L 204.24951 149.767686 
L 204.487353 152.423029 
L 204.566633 153.226021 
L 205.042318 166.280542 
L 205.28016 166.280542 
L 205.438721 164.963034 
L 205.597283 166.395497 
L 205.755844 168.647711 
L 205.914406 170.573058 
L 205.993686 170.573058 
L 206.072967 170.868796 
L 206.231528 175.128187 
L 206.310809 175.129881 
L 206.627932 161.723386 
L 206.707213 162.023843 
L 207.024336 165.482299 
L 207.103616 165.224073 
L 207.182897 165.592656 
L 207.420739 170.036883 
L 207.579301 171.953398 
L 207.658581 170.651999 
L 207.975704 159.845064 
L 208.372108 154.690474 
L 208.689231 147.411634 
L 208.768511 148.199864 
L 209.561319 171.286264 
L 209.71988 171.408253 
L 210.037003 171.408253 
L 210.195564 172.338785 
L 210.274845 171.208715 
L 210.512687 164.72482 
L 210.591968 164.734954 
L 210.750529 165.002497 
L 210.82981 165.002497 
L 210.909091 165.261691 
L 211.226214 169.377509 
L 211.305495 168.728572 
L 211.384775 167.050424 
L 211.622617 158.785359 
L 211.781179 159.463473 
L 211.93974 162.634572 
L 212.256863 174.573271 
L 212.336144 175.245456 
L 212.573986 173.359829 
L 212.732547 175.473068 
L 212.811828 175.104485 
L 212.97039 173.740693 
L 213.287512 169.572253 
L 213.525355 178.266251 
L 213.683916 177.865663 
L 213.763197 177.761054 
L 213.842478 178.566708 
L 214.476723 193.51212 
L 214.714565 194.895756 
L 214.793846 194.598287 
L 215.031688 189.755702 
L 215.26953 187.223028 
L 215.745215 192.184856 
L 216.062338 198.301152 
L 216.141618 197.714033 
L 216.458741 193.546364 
L 216.617303 192.691582 
L 216.855145 192.125549 
L 217.013706 194.803921 
L 217.251548 203.972374 
L 217.41011 202.122564 
L 217.727233 196.509999 
L 218.044356 197.83153 
L 218.202917 198.445057 
L 218.440759 198.445057 
L 218.599321 197.120411 
L 218.916444 198.445057 
L 219.075005 197.758352 
L 219.154286 198.104548 
L 219.392128 199.5911 
L 219.471409 199.224333 
L 220.026374 191.853952 
L 220.264216 191.604295 
L 220.343497 191.752413 
L 220.660619 199.686602 
L 220.7399 199.124168 
L 220.819181 199.949909 
L 220.898462 199.867384 
L 220.977742 199.222546 
L 221.136304 199.965761 
L 221.374146 195.646351 
L 221.532707 193.588638 
L 221.611988 194.221346 
L 221.84983 200.564148 
L 222.166953 210.783894 
L 222.246234 211.480495 
L 222.563357 206.905638 
L 222.801199 202.515356 
L 223.594006 212.048611 
L 223.673287 212.518135 
L 224.06969 220.120104 
L 224.148971 219.912216 
L 224.545375 215.365316 
L 225.17962 220.839935 
L 225.258901 220.22196 
L 225.338182 220.807384 
L 225.576024 225.503242 
L 225.813866 223.070609 
L 225.893147 222.857715 
L 226.051708 220.435788 
L 226.21027 218.462031 
L 226.368831 220.909832 
L 226.606673 223.713906 
L 226.685954 223.021513 
L 226.765235 223.393363 
L 227.003077 225.641402 
L 227.240919 226.164025 
L 227.637323 226.236378 
L 227.716603 226.237814 
L 227.954446 225.544223 
L 228.033726 225.842865 
L 228.192288 228.048431 
L 228.509411 233.658598 
L 228.667972 231.423507 
L 228.747253 231.792211 
L 228.905814 233.948195 
L 229.064376 231.556431 
L 229.381499 226.240579 
L 229.54006 225.795404 
L 229.619341 226.053647 
L 229.777902 229.442396 
L 230.174306 242.290552 
L 230.412148 244.414471 
L 230.491429 244.586081 
L 230.64999 246.719657 
L 230.729271 247.57927 
L 230.808551 247.107467 
L 230.887832 247.33169 
L 231.522078 254.244059 
L 231.680639 256.735976 
L 231.918482 259.305099 
L 232.156324 259.891645 
L 232.86985 269.677541 
L 233.107692 269.997343 
L 233.424815 270.210333 
L 233.583377 272.919209 
L 233.662657 272.685911 
L 233.9005 270.488301 
L 234.059061 270.231989 
L 234.138342 270.749075 
L 234.455465 274.950119 
L 234.534745 275.402365 
L 234.772587 280.628695 
L 234.851868 282.337325 
L 234.931149 282.22058 
L 235.168991 279.971936 
L 235.406833 279.649173 
L 235.882517 279.593697 
L 236.278921 279.592575 
L 236.437483 281.939079 
L 236.675325 284.459365 
L 236.913167 284.817441 
L 237.388851 284.874685 
L 237.785255 284.875872 
L 237.943816 282.442246 
L 238.181658 279.998189 
L 238.4195 279.649642 
L 238.815904 279.594886 
L 239.212308 275.01288 
L 239.608711 279.344109 
L 239.846553 279.570461 
L 240.242957 279.608037 
L 240.401518 277.277626 
L 240.480799 276.140868 
L 240.56008 276.601752 
L 240.797922 279.196608 
L 241.035764 279.573408 
L 241.432168 279.636663 
L 241.590729 277.292547 
L 241.907852 270.995257 
L 242.145694 270.250356 
L 242.462817 270.138057 
L 242.621379 267.509904 
L 243.176344 260.318582 
L 243.414186 260.125964 
L 243.572747 262.536849 
L 243.810589 264.973412 
L 244.048432 265.320854 
L 244.444835 265.375431 
L 244.9998 270.558858 
L 245.316923 270.652416 
L 245.871888 270.659708 
L 246.03045 272.991291 
L 246.268292 275.524721 
L 246.506134 275.88444 
L 246.981818 275.941942 
L 247.061099 275.942531 
L 247.21966 278.288979 
L 247.536783 284.58707 
L 247.774625 285.332025 
L 248.091748 285.444333 
L 248.25031 288.072486 
L 248.805275 295.263809 
L 249.043117 295.456427 
L 249.518801 295.454893 
L 249.915205 289.831333 
L 250.153047 285.960754 
L 250.390889 285.266731 
L 250.708012 285.16163 
L 252.769311 285.153173 
L 252.848591 284.902208 
L 253.244995 280.131387 
L 253.482837 279.875219 
L 254.037802 279.832049 
L 255.147732 279.864023 
L 255.385574 283.726275 
L 255.464855 283.276982 
L 255.544136 282.315231 
L 255.861259 284.507607 
L 256.099101 284.720951 
L 256.733347 284.755084 
L 258.398242 284.755292 
L 258.477522 285.006257 
L 258.636084 287.626509 
L 258.715365 287.246552 
L 258.953207 285.124964 
L 259.191049 284.836975 
L 259.428891 284.794515 
L 259.587453 282.488862 
L 259.825295 279.929926 
L 259.983856 279.327272 
L 260.697383 269.569715 
L 260.935225 269.265689 
L 261.014505 269.3758 
L 261.49019 274.454182 
L 261.569471 274.536172 
L 261.728032 271.877724 
L 261.965874 269.70896 
L 262.203716 269.395161 
L 262.679401 269.344366 
L 264.027173 269.343326 
L 264.185734 266.72138 
L 264.344296 264.519565 
L 264.423576 264.818207 
L 264.502857 264.447204 
L 264.81998 260.759836 
L 265.057822 260.422204 
L 265.137103 261.08419 
L 265.374945 264.839676 
L 265.612787 265.827085 
L 266.167752 274.517581 
L 266.247033 274.068647 
L 266.484875 271.055476 
L 266.722717 270.603872 
L 267.119121 270.530021 
L 267.198402 270.5286 
L 267.753367 275.709599 
L 268.07049 275.802741 
L 268.704735 275.792617 
L 269.656104 265.528979 
L 269.814665 267.977668 
L 270.29035 277.83251 
L 270.528192 279.315296 
L 270.686753 279.491131 
L 270.766034 279.227926 
L 271.162438 274.537042 
L 271.40028 274.291569 
L 271.638122 274.255525 
L 271.717403 273.754341 
L 271.875964 271.90817 
L 271.955245 272.745527 
L 272.113806 270.942667 
L 272.351648 269.798742 
L 272.589491 269.631246 
L 272.906613 269.604257 
L 272.985894 269.163225 
L 273.303017 264.803853 
L 273.461578 264.402687 
L 273.937263 259.234827 
L 274.175105 259.077202 
L 274.333666 259.075616 
L 275.285035 269.332261 
L 275.522877 269.5361 
L 275.84 269.506754 
L 276.315684 264.4081 
L 276.394965 264.61559 
L 276.791369 269.248849 
L 277.029211 269.492431 
L 277.267053 269.528209 
L 277.346334 270.029371 
L 277.742737 277.158127 
L 277.822018 276.702299 
L 278.05986 274.63477 
L 278.297702 274.353584 
L 278.535544 274.313198 
L 278.614825 274.749823 
L 278.931948 279.104676 
L 279.090509 279.505578 
L 279.407632 284.105197 
L 279.486913 283.415099 
L 279.724755 280.09201 
L 279.804036 279.806944 
L 279.962597 277.330157 
L 280.20044 274.762963 
L 280.438282 274.399113 
L 280.913966 274.340978 
L 281.231089 274.339811 
L 281.31037 273.848968 
L 281.468931 270.871249 
L 281.548212 271.013672 
L 281.786054 273.864954 
L 281.944615 274.251914 
L 282.103177 271.655992 
L 282.341019 269.495079 
L 282.578861 269.182597 
L 283.054545 269.132047 
L 283.292388 269.131163 
L 283.53023 268.195944 
L 283.847353 265.21201 
L 284.085195 264.949451 
L 284.323037 264.913827 
L 284.878002 259.728763 
L 285.036563 259.738571 
L 285.908651 269.925508 
L 286.146494 270.11501 
L 286.86002 270.145916 
L 286.939301 270.63676 
L 287.256424 274.957881 
L 287.494266 275.364029 
L 287.573546 275.396057 
L 288.128511 280.597824 
L 288.445634 280.691439 
L 288.762757 280.698257 
L 288.842038 280.492086 
L 289.000599 278.22127 
L 289.159161 280.386801 
L 289.397003 284.113663 
L 289.634845 284.759873 
L 289.951968 284.857127 
L 290.506933 290.044085 
L 290.824056 290.13684 
L 292.33039 290.144154 
L 292.40967 289.915938 
L 292.806074 285.116681 
L 293.043916 284.855536 
L 293.598881 284.811661 
L 294.391688 284.811201 
L 294.470969 285.017636 
L 294.867373 289.844119 
L 295.105215 290.110028 
L 295.66018 290.154578 
L 297.959321 290.155046 
L 298.038601 290.383262 
L 298.355724 294.645315 
L 298.831409 290.316943 
L 298.98997 290.212568 
L 299.148531 287.932251 
L 299.386374 285.333514 
L 299.624216 284.965644 
L 300.0999 284.90687 
L 303.905375 284.905591 
L 303.984655 285.170109 
L 304.381059 289.924534 
L 304.618901 290.177738 
L 304.777463 292.460452 
L 305.015305 295.059952 
L 305.253147 295.427929 
L 305.728831 295.486721 
L 320.395764 295.488 
L 323.329151 295.488 
L 323.408432 295.1366 
L 323.804835 290.466123 
L 324.042677 290.231925 
L 324.676923 290.191663 
L 326.738222 290.19144 
L 326.817502 289.687089 
L 327.134625 285.37615 
L 327.372468 284.972967 
L 327.451748 284.941362 
L 328.006713 279.739172 
L 328.323836 279.646351 
L 328.958082 279.639074 
L 329.037363 279.990454 
L 329.433766 284.660909 
L 329.671608 284.895107 
L 330.068012 284.934006 
L 330.226573 282.56394 
L 330.464416 280.065607 
L 330.702258 279.710281 
L 331.177942 279.653463 
L 332.367153 279.652241 
L 332.446434 280.156592 
L 332.763556 284.467531 
L 333.001399 284.870714 
L 333.080679 284.902319 
L 333.635644 290.104509 
L 333.952767 290.19733 
L 335.696943 290.204649 
L 335.855504 292.575872 
L 336.093347 295.074574 
L 336.331189 295.429951 
L 336.806873 295.486777 
L 352.108052 295.488 
L 398.487273 295.488 
L 398.487273 295.488 
" clip-path="url(#pe83f634430)" style="fill: none; stroke: #ff0000; stroke-width: 1.5; stroke-linecap: square"/>
   </g>
   <g id="patch_3">
    <path d="M 57.6 307.584 
L 57.6 41.472 
" style="fill: none; stroke: #000000; stroke-width: 0.8; stroke-linejoin: miter; stroke-linecap: square"/>
   </g>
   <g id="patch_4">
    <path d="M 414.72 307.584 
L 414.72 41.472 
" style="fill: none; stroke: #000000; stroke-width: 0.8; stroke-linejoin: miter; stroke-linecap: square"/>
   </g>
   <g id="patch_5">
    <path d="M 57.6 307.584 
L 414.72 307.584 
" style="fill: none; stroke: #000000; stroke-width: 0.8; stroke-linejoin: miter; stroke-linecap: square"/>
   </g>
   <g id="patch_6">
    <path d="M 57.6 41.472 
L 414.72 41.472 
" style="fill: none; stroke: #000000; stroke-width: 0.8; stroke-linejoin: miter; stroke-linecap: square"/>
   </g>
   <g id="text_12">
    <!-- Single spectrum -->
    <g transform="translate(187.415625 35.472) scale(0.12 -0.12)">
     <defs>
      <path id="DejaVuSans-53" d="M 3425 4513 
L 3425 3897 
Q 3066 4069 2747 4153 
Q 2428 4238 2131 4238 
Q 1616 4238 1336 4038 
Q 1056 3838 1056 3469 
Q 1056 3159 1242 3001 
Q 1428 2844 1947 2747 
L 2328 2669 
Q 3034 2534 3370 2195 
Q 3706 1856 3706 1288 
Q 3706 609 3251 259 
Q 2797 -91 1919 -91 
Q 1588 -91 1214 -16 
Q 841 59 441 206 
L 441 856 
Q 825 641 1194 531 
Q 1563 422 1919 422 
Q 2459 422 2753 634 
Q 3047 847 3047 1241 
Q 3047 1584 2836 1778 
Q 2625 1972 2144 2069 
L 1759 2144 
Q 1053 2284 737 2584 
Q 422 2884 422 3419 
Q 422 4038 858 4394 
Q 1294 4750 2059 4750 
Q 2388 4750 2728 4690 
Q 3069 4631 3425 4513 
z
" transform="scale(0.015625)"/>
      <path id="DejaVuSans-69" d="M 603 3500 
L 1178 3500 
L 1178 0 
L 603 0 
L 603 3500 
z
M 603 4863 
L 1178 4863 
L 1178 4134 
L 603 4134 
L 603 4863 
z
" transform="scale(0.015625)"/>
      <path id="DejaVuSans-6e" d="M 3513 2113 
L 3513 0 
L 2938 0 
L 2938 2094 
Q 2938 2591 2744 2837 
Q 2550 3084 2163 3084 
Q 1697 3084 1428 2787 
Q 1159 2491 1159 1978 
L 1159 0 
L 581 0 
L 581 3500 
L 1159 3500 
L 1159 2956 
Q 1366 3272 1645 3428 
Q 1925 3584 2291 3584 
Q 2894 3584 3203 3211 
Q 3513 2838 3513 2113 
z
" transform="scale(0.015625)"/>
      <path id="DejaVuSans-67" d="M 2906 1791 
Q 2906 2416 2648 2759 
Q 2391 3103 1925 3103 
Q 1463 3103 1205 2759 
Q 947 2416 947 1791 
Q 947 1169 1205 825 
Q 1463 481 1925 481 
Q 2391 481 2648 825 
Q 2906 1169 2906 1791 
z
M 3481 434 
Q 3481 -459 3084 -895 
Q 2688 -1331 1869 -1331 
Q 1566 -1331 1297 -1286 
Q 1028 -1241 775 -1147 
L 775 -588 
Q 1028 -725 1275 -790 
Q 1522 -856 1778 -856 
Q 2344 -856 2625 -561 
Q 2906 -266 2906 331 
L 2906 616 
Q 2728 306 2450 153 
Q 2172 0 1784 0 
Q 1141 0 747 490 
Q 353 981 353 1791 
Q 353 2603 747 3093 
Q 1141 3584 1784 3584 
Q 2172 3584 2450 3431 
Q 2728 3278 2906 2969 
L 2906 3500 
L 3481 3500 
L 3481 434 
z
" transform="scale(0.015625)"/>
      <path id="DejaVuSans-6c" d="M 603 4863 
L 1178 4863 
L 1178 0 
L 603 0 
L 603 4863 
z
" transform="scale(0.015625)"/>
      <path id="DejaVuSans-65" d="M 3597 1894 
L 3597 1613 
L 953 1613 
Q 991 1019 1311 708 
Q 1631 397 2203 397 
Q 2534 397 2845 478 
Q 3156 559 3463 722 
L 3463 178 
Q 3153 47 2828 -22 
Q 2503 -91 2169 -91 
Q 1331 -91 842 396 
Q 353 884 353 1716 
Q 353 2575 817 3079 
Q 1281 3584 2069 3584 
Q 2775 3584 3186 3129 
Q 3597 2675 3597 1894 
z
M 3022 2063 
Q 3016 2534 2758 2815 
Q 2500 3097 2075 3097 
Q 1594 3097 1305 2825 
Q 1016 2553 972 2059 
L 3022 2063 
z
" transform="scale(0.015625)"/>
      <path id="DejaVuSans-20" transform="scale(0.015625)"/>
      <path id="DejaVuSans-73" d="M 2834 3397 
L 2834 2853 
Q 2591 2978 2328 3040 
Q 2066 3103 1784 3103 
Q 1356 3103 1142 2972 
Q 928 2841 928 2578 
Q 928 2378 1081 2264 
Q 1234 2150 1697 2047 
L 1894 2003 
Q 2506 1872 2764 1633 
Q 3022 1394 3022 966 
Q 3022 478 2636 193 
Q 2250 -91 1575 -91 
Q 1294 -91 989 -36 
Q 684 19 347 128 
L 347 722 
Q 666 556 975 473 
Q 1284 391 1588 391 
Q 1994 391 2212 530 
Q 2431 669 2431 922 
Q 2431 1156 2273 1281 
Q 2116 1406 1581 1522 
L 1381 1569 
Q 847 1681 609 1914 
Q 372 2147 372 2553 
Q 372 3047 722 3315 
Q 1072 3584 1716 3584 
Q 2034 3584 2315 3537 
Q 2597 3491 2834 3397 
z
" transform="scale(0.015625)"/>
      <path id="DejaVuSans-70" d="M 1159 525 
L 1159 -1331 
L 581 -1331 
L 581 3500 
L 1159 3500 
L 1159 2969 
Q 1341 3281 1617 3432 
Q 1894 3584 2278 3584 
Q 2916 3584 3314 3078 
Q 3713 2572 3713 1747 
Q 3713 922 3314 415 
Q 2916 -91 2278 -91 
Q 1894 -91 1617 61 
Q 1341 213 1159 525 
z
M 3116 1747 
Q 3116 2381 2855 2742 
Q 2594 3103 2138 3103 
Q 1681 3103 1420 2742 
Q 1159 2381 1159 1747 
Q 1159 1113 1420 752 
Q 1681 391 2138 391 
Q 2594 391 2855 752 
Q 3116 1113 3116 1747 
z
" transform="scale(0.015625)"/>
      <path id="DejaVuSans-63" d="M 3122 3366 
L 3122 2828 
Q 2878 2963 2633 3030 
Q 2388 3097 2138 3097 
Q 1578 3097 1268 2742 
Q 959 2388 959 1747 
Q 959 1106 1268 751 
Q 1578 397 2138 397 
Q 2388 397 2633 464 
Q 2878 531 3122 666 
L 3122 134 
Q 2881 22 2623 -34 
Q 2366 -91 2075 -91 
Q 1284 -91 818 406 
Q 353 903 353 1747 
Q 353 2603 823 3093 
Q 1294 3584 2113 3584 
Q 2378 3584 2631 3529 
Q 2884 3475 3122 3366 
z
" transform="scale(0.015625)"/>
      <path id="DejaVuSans-74" d="M 1172 4494 
L 1172 3500 
L 2356 3500 
L 2356 3053 
L 1172 3053 
L 1172 1153 
Q 1172 725 1289 603 
Q 1406 481 1766 481 
L 2356 481 
L 2356 0 
L 1766 0 
Q 1100 0 847 248 
Q 594 497 594 1153 
L 594 3053 
L 172 3053 
L 172 3500 
L 594 3500 
L 594 4494 
L 1172 4494 
z
" transform="scale(0.015625)"/>
      <path id="DejaVuSans-72" d="M 2631 2963 
Q 2534 3019 2420 3045 
Q 2306 3072 2169 3072 
Q 1681 3072 1420 2755 
Q 1159 2438 1159 1844 
L 1159 0 
L 581 0 
L 581 3500 
L 1159 3500 
L 1159 2956 
Q 1341 3275 1631 3429 
Q 1922 3584 2338 3584 
Q 2397 3584 2469 3576 
Q 2541 3569 2628 3553 
L 2631 2963 
z
" transform="scale(0.015625)"/>
      <path id="DejaVuSans-75" d="M 544 1381 
L 544 3500 
L 1119 3500 
L 1119 1403 
Q 1119 906 1312 657 
Q 1506 409 1894 409 
Q 2359 409 2629 706 
Q 2900 1003 2900 1516 
L 2900 3500 
L 3475 3500 
L 3475 0 
L 2900 0 
L 2900 538 
Q 2691 219 2414 64 
Q 2138 -91 1772 -91 
Q 1169 -91 856 284 
Q 544 659 544 1381 
z
M 1991 3584 
L 1991 3584 
z
" transform="scale(0.015625)"/>
      <path id="DejaVuSans-6d" d="M 3328 2828 
Q 3544 3216 3844 3400 
Q 4144 3584 4550 3584 
Q 5097 3584 5394 3201 
Q 5691 2819 5691 2113 
L 5691 0 
L 5113 0 
L 5113 2094 
Q 5113 2597 4934 2840 
Q 4756 3084 4391 3084 
Q 3944 3084 3684 2787 
Q 3425 2491 3425 1978 
L 3425 0 
L 2847 0 
L 2847 2094 
Q 2847 2600 2669 2842 
Q 2491 3084 2119 3084 
Q 1678 3084 1418 2786 
Q 1159 2488 1159 1978 
L 1159 0 
L 581 0 
L 581 3500 
L 1159 3500 
L 1159 2956 
Q 1356 3278 1631 3431 
Q 1906 3584 2284 3584 
Q 2666 3584 2933 3390 
Q 3200 3197 3328 2828 
z
" transform="scale(0.015625)"/>
     </defs>
     <use xlink:href="#DejaVuSans-53"/>
     <use xlink:href="#DejaVuSans-69" x="63.476562"/>
     <use xlink:href="#DejaVuSans-6e" x="91.259766"/>
     <use xlink:href="#DejaVuSans-67" x="154.638672"/>
     <use xlink:href="#DejaVuSans-6c" x="218.115234"/>
     <use xlink:href="#DejaVuSans-65" x="245.898438"/>
     <use xlink:href="#DejaVuSans-20" x="307.421875"/>
     <use xlink:href="#DejaVuSans-73" x="339.208984"/>
     <use xlink:href="#DejaVuSans-70" x="391.308594"/>
     <use xlink:href="#DejaVuSans-65" x="454.785156"/>
     <use xlink:href="#DejaVuSans-63" x="516.308594"/>
     <use xlink:href="#DejaVuSans-74" x="571.289062"/>
     <use xlink:href="#DejaVuSans-72" x="610.498047"/>
     <use xlink:href="#DejaVuSans-75" x="651.611328"/>
     <use xlink:href="#DejaVuSans-6d" x="714.990234"/>
    </g>
   </g>
   <g id="legend_1">
    <g id="patch_7">
     <path d="M 199.674687 78.82825 
L 407.72 78.82825 
Q 409.72 78.82825 409.72 76.82825 
L 409.72 48.472 
Q 409.72 46.472 407.72 46.472 
L 199.674687 46.472 
Q 197.674687 46.472 197.674687 48.472 
L 197.674687 76.82825 
Q 197.674687 78.82825 199.674687 78.82825 
z
" style="fill: #ffffff; opacity: 0.8; stroke: #cccccc; stroke-linejoin: miter"/>
    </g>
    <g id="line2d_14">
     <path d="M 201.674687 54.570437 
L 211.674687 54.570437 
L 221.674687 54.570437 
" style="fill: none; stroke: #1f77b4; stroke-width: 1.5; stroke-linecap: square"/>
    </g>
    <g id="text_13">
     <!-- Original spectrum -->
     <g transform="translate(229.674687 58.070437) scale(0.1 -0.1)">
      <defs>
       <path id="DejaVuSans-4f" d="M 2522 4238 
Q 1834 4238 1429 3725 
Q 1025 3213 1025 2328 
Q 1025 1447 1429 934 
Q 1834 422 2522 422 
Q 3209 422 3611 934 
Q 4013 1447 4013 2328 
Q 4013 3213 3611 3725 
Q 3209 4238 2522 4238 
z
M 2522 4750 
Q 3503 4750 4090 4092 
Q 4678 3434 4678 2328 
Q 4678 1225 4090 567 
Q 3503 -91 2522 -91 
Q 1538 -91 948 565 
Q 359 1222 359 2328 
Q 359 3434 948 4092 
Q 1538 4750 2522 4750 
z
" transform="scale(0.015625)"/>
       <path id="DejaVuSans-61" d="M 2194 1759 
Q 1497 1759 1228 1600 
Q 959 1441 959 1056 
Q 959 750 1161 570 
Q 1363 391 1709 391 
Q 2188 391 2477 730 
Q 2766 1069 2766 1631 
L 2766 1759 
L 2194 1759 
z
M 3341 1997 
L 3341 0 
L 2766 0 
L 2766 531 
Q 2569 213 2275 61 
Q 1981 -91 1556 -91 
Q 1019 -91 701 211 
Q 384 513 384 1019 
Q 384 1609 779 1909 
Q 1175 2209 1959 2209 
L 2766 2209 
L 2766 2266 
Q 2766 2663 2505 2880 
Q 2244 3097 1772 3097 
Q 1472 3097 1187 3025 
Q 903 2953 641 2809 
L 641 3341 
Q 956 3463 1253 3523 
Q 1550 3584 1831 3584 
Q 2591 3584 2966 3190 
Q 3341 2797 3341 1997 
z
" transform="scale(0.015625)"/>
      </defs>
      <use xlink:href="#DejaVuSans-4f"/>
      <use xlink:href="#DejaVuSans-72" x="78.710938"/>
      <use xlink:href="#DejaVuSans-69" x="119.824219"/>
      <use xlink:href="#DejaVuSans-67" x="147.607422"/>
      <use xlink:href="#DejaVuSans-69" x="211.083984"/>
      <use xlink:href="#DejaVuSans-6e" x="238.867188"/>
      <use xlink:href="#DejaVuSans-61" x="302.246094"/>
      <use xlink:href="#DejaVuSans-6c" x="363.525391"/>
      <use xlink:href="#DejaVuSans-20" x="391.308594"/>
      <use xlink:href="#DejaVuSans-73" x="423.095703"/>
      <use xlink:href="#DejaVuSans-70" x="475.195312"/>
      <use xlink:href="#DejaVuSans-65" x="538.671875"/>
      <use xlink:href="#DejaVuSans-63" x="600.195312"/>
      <use xlink:href="#DejaVuSans-74" x="655.175781"/>
      <use xlink:href="#DejaVuSans-72" x="694.384766"/>
      <use xlink:href="#DejaVuSans-75" x="735.498047"/>
      <use xlink:href="#DejaVuSans-6d" x="798.876953"/>
     </g>
    </g>
    <g id="line2d_15">
     <path d="M 201.674687 69.248562 
L 211.674687 69.248562 
L 221.674687 69.248562 
" style="fill: none; stroke: #ff0000; stroke-width: 1.5; stroke-linecap: square"/>
    </g>
    <g id="text_14">
     <!-- Processed and smoothed spectrum -->
     <g transform="translate(229.674687 72.748562) scale(0.1 -0.1)">
      <defs>
       <path id="DejaVuSans-50" d="M 1259 4147 
L 1259 2394 
L 2053 2394 
Q 2494 2394 2734 2622 
Q 2975 2850 2975 3272 
Q 2975 3691 2734 3919 
Q 2494 4147 2053 4147 
L 1259 4147 
z
M 628 4666 
L 2053 4666 
Q 2838 4666 3239 4311 
Q 3641 3956 3641 3272 
Q 3641 2581 3239 2228 
Q 2838 1875 2053 1875 
L 1259 1875 
L 1259 0 
L 628 0 
L 628 4666 
z
" transform="scale(0.015625)"/>
       <path id="DejaVuSans-6f" d="M 1959 3097 
Q 1497 3097 1228 2736 
Q 959 2375 959 1747 
Q 959 1119 1226 758 
Q 1494 397 1959 397 
Q 2419 397 2687 759 
Q 2956 1122 2956 1747 
Q 2956 2369 2687 2733 
Q 2419 3097 1959 3097 
z
M 1959 3584 
Q 2709 3584 3137 3096 
Q 3566 2609 3566 1747 
Q 3566 888 3137 398 
Q 2709 -91 1959 -91 
Q 1206 -91 779 398 
Q 353 888 353 1747 
Q 353 2609 779 3096 
Q 1206 3584 1959 3584 
z
" transform="scale(0.015625)"/>
       <path id="DejaVuSans-64" d="M 2906 2969 
L 2906 4863 
L 3481 4863 
L 3481 0 
L 2906 0 
L 2906 525 
Q 2725 213 2448 61 
Q 2172 -91 1784 -91 
Q 1150 -91 751 415 
Q 353 922 353 1747 
Q 353 2572 751 3078 
Q 1150 3584 1784 3584 
Q 2172 3584 2448 3432 
Q 2725 3281 2906 2969 
z
M 947 1747 
Q 947 1113 1208 752 
Q 1469 391 1925 391 
Q 2381 391 2643 752 
Q 2906 1113 2906 1747 
Q 2906 2381 2643 2742 
Q 2381 3103 1925 3103 
Q 1469 3103 1208 2742 
Q 947 2381 947 1747 
z
" transform="scale(0.015625)"/>
       <path id="DejaVuSans-68" d="M 3513 2113 
L 3513 0 
L 2938 0 
L 2938 2094 
Q 2938 2591 2744 2837 
Q 2550 3084 2163 3084 
Q 1697 3084 1428 2787 
Q 1159 2491 1159 1978 
L 1159 0 
L 581 0 
L 581 4863 
L 1159 4863 
L 1159 2956 
Q 1366 3272 1645 3428 
Q 1925 3584 2291 3584 
Q 2894 3584 3203 3211 
Q 3513 2838 3513 2113 
z
" transform="scale(0.015625)"/>
      </defs>
      <use xlink:href="#DejaVuSans-50"/>
      <use xlink:href="#DejaVuSans-72" x="58.552734"/>
      <use xlink:href="#DejaVuSans-6f" x="97.416016"/>
      <use xlink:href="#DejaVuSans-63" x="158.597656"/>
      <use xlink:href="#DejaVuSans-65" x="213.578125"/>
      <use xlink:href="#DejaVuSans-73" x="275.101562"/>
      <use xlink:href="#DejaVuSans-73" x="327.201172"/>
      <use xlink:href="#DejaVuSans-65" x="379.300781"/>
      <use xlink:href="#DejaVuSans-64" x="440.824219"/>
      <use xlink:href="#DejaVuSans-20" x="504.300781"/>
      <use xlink:href="#DejaVuSans-61" x="536.087891"/>
      <use xlink:href="#DejaVuSans-6e" x="597.367188"/>
      <use xlink:href="#DejaVuSans-64" x="660.746094"/>
      <use xlink:href="#DejaVuSans-20" x="724.222656"/>
      <use xlink:href="#DejaVuSans-73" x="756.009766"/>
      <use xlink:href="#DejaVuSans-6d" x="808.109375"/>
      <use xlink:href="#DejaVuSans-6f" x="905.521484"/>
      <use xlink:href="#DejaVuSans-6f" x="966.703125"/>
      <use xlink:href="#DejaVuSans-74" x="1027.884766"/>
      <use xlink:href="#DejaVuSans-68" x="1067.09375"/>
      <use xlink:href="#DejaVuSans-65" x="1130.472656"/>
      <use xlink:href="#DejaVuSans-64" x="1191.996094"/>
      <use xlink:href="#DejaVuSans-20" x="1255.472656"/>
      <use xlink:href="#DejaVuSans-73" x="1287.259766"/>
      <use xlink:href="#DejaVuSans-70" x="1339.359375"/>
      <use xlink:href="#DejaVuSans-65" x="1402.835938"/>
      <use xlink:href="#DejaVuSans-63" x="1464.359375"/>
      <use xlink:href="#DejaVuSans-74" x="1519.339844"/>
      <use xlink:href="#DejaVuSans-72" x="1558.548828"/>
      <use xlink:href="#DejaVuSans-75" x="1599.662109"/>
      <use xlink:href="#DejaVuSans-6d" x="1663.041016"/>
     </g>
    </g>
   </g>
  </g>
 </g>
 <defs>
  <clipPath id="pe83f634430">
   <rect x="57.6" y="41.472" width="357.12" height="266.112"/>
  </clipPath>
 </defs>
</svg>
