<?xml version="1.0" encoding="utf-8" standalone="no"?>
<!DOCTYPE svg PUBLIC "-//W3C//DTD SVG 1.1//EN"
  "http://www.w3.org/Graphics/SVG/1.1/DTD/svg11.dtd">
<svg xmlns:xlink="http://www.w3.org/1999/xlink" width="460.8pt" height="345.6pt" viewBox="0 0 460.8 345.6" xmlns="http://www.w3.org/2000/svg" version="1.1">
 <metadata>
  <rdf:RDF xmlns:dc="http://purl.org/dc/elements/1.1/" xmlns:cc="http://creativecommons.org/ns#" xmlns:rdf="http://www.w3.org/1999/02/22-rdf-syntax-ns#">
   <cc:Work>
    <dc:type rdf:resource="http://purl.org/dc/dcmitype/StillImage"/>
    <dc:date>2023-12-26T22:53:10.897432</dc:date>
    <dc:format>image/svg+xml</dc:format>
    <dc:creator>
     <cc:Agent>
      <dc:title>Matplotlib v3.7.1, https://matplotlib.org/</dc:title>
     </cc:Agent>
    </dc:creator>
   </cc:Work>
  </rdf:RDF>
 </metadata>
 <defs>
  <style type="text/css">*{stroke-linejoin: round; stroke-linecap: butt}</style>
 </defs>
 <g id="figure_1">
  <g id="patch_1">
   <path d="M 0 345.6 
L 460.8 345.6 
L 460.8 0 
L 0 0 
z
" style="fill: #ffffff"/>
  </g>
  <g id="axes_1">
   <g id="patch_2">
    <path d="M 57.6 307.584 
L 414.72 307.584 
L 414.72 41.472 
L 57.6 41.472 
z
" style="fill: #ffffff"/>
   </g>
   <g id="matplotlib.axis_1">
    <g id="xtick_1">
     <g id="line2d_1">
      <defs>
       <path id="m41e1ba7b96" d="M 0 0 
L 0 3.5 
" style="stroke: #000000; stroke-width: 0.8"/>
      </defs>
      <g>
       <use xlink:href="#m41e1ba7b96" x="73.832727" y="307.584" style="stroke: #000000; stroke-width: 0.8"/>
      </g>
     </g>
     <g id="text_1">
      <!-- 0 -->
      <g transform="translate(70.651477 322.182437) scale(0.1 -0.1)">
       <defs>
        <path id="DejaVuSans-30" d="M 2034 4250 
Q 1547 4250 1301 3770 
Q 1056 3291 1056 2328 
Q 1056 1369 1301 889 
Q 1547 409 2034 409 
Q 2525 409 2770 889 
Q 3016 1369 3016 2328 
Q 3016 3291 2770 3770 
Q 2525 4250 2034 4250 
z
M 2034 4750 
Q 2819 4750 3233 4129 
Q 3647 3509 3647 2328 
Q 3647 1150 3233 529 
Q 2819 -91 2034 -91 
Q 1250 -91 836 529 
Q 422 1150 422 2328 
Q 422 3509 836 4129 
Q 1250 4750 2034 4750 
z
" transform="scale(0.015625)"/>
       </defs>
       <use xlink:href="#DejaVuSans-30"/>
      </g>
     </g>
    </g>
    <g id="xtick_2">
     <g id="line2d_2">
      <g>
       <use xlink:href="#m41e1ba7b96" x="153.113447" y="307.584" style="stroke: #000000; stroke-width: 0.8"/>
      </g>
     </g>
     <g id="text_2">
      <!-- 1000 -->
      <g transform="translate(140.388447 322.182437) scale(0.1 -0.1)">
       <defs>
        <path id="DejaVuSans-31" d="M 794 531 
L 1825 531 
L 1825 4091 
L 703 3866 
L 703 4441 
L 1819 4666 
L 2450 4666 
L 2450 531 
L 3481 531 
L 3481 0 
L 794 0 
L 794 531 
z
" transform="scale(0.015625)"/>
       </defs>
       <use xlink:href="#DejaVuSans-31"/>
       <use xlink:href="#DejaVuSans-30" x="63.623047"/>
       <use xlink:href="#DejaVuSans-30" x="127.246094"/>
       <use xlink:href="#DejaVuSans-30" x="190.869141"/>
      </g>
     </g>
    </g>
    <g id="xtick_3">
     <g id="line2d_3">
      <g>
       <use xlink:href="#m41e1ba7b96" x="232.394166" y="307.584" style="stroke: #000000; stroke-width: 0.8"/>
      </g>
     </g>
     <g id="text_3">
      <!-- 2000 -->
      <g transform="translate(219.669166 322.182437) scale(0.1 -0.1)">
       <defs>
        <path id="DejaVuSans-32" d="M 1228 531 
L 3431 531 
L 3431 0 
L 469 0 
L 469 531 
Q 828 903 1448 1529 
Q 2069 2156 2228 2338 
Q 2531 2678 2651 2914 
Q 2772 3150 2772 3378 
Q 2772 3750 2511 3984 
Q 2250 4219 1831 4219 
Q 1534 4219 1204 4116 
Q 875 4013 500 3803 
L 500 4441 
Q 881 4594 1212 4672 
Q 1544 4750 1819 4750 
Q 2544 4750 2975 4387 
Q 3406 4025 3406 3419 
Q 3406 3131 3298 2873 
Q 3191 2616 2906 2266 
Q 2828 2175 2409 1742 
Q 1991 1309 1228 531 
z
" transform="scale(0.015625)"/>
       </defs>
       <use xlink:href="#DejaVuSans-32"/>
       <use xlink:href="#DejaVuSans-30" x="63.623047"/>
       <use xlink:href="#DejaVuSans-30" x="127.246094"/>
       <use xlink:href="#DejaVuSans-30" x="190.869141"/>
      </g>
     </g>
    </g>
    <g id="xtick_4">
     <g id="line2d_4">
      <g>
       <use xlink:href="#m41e1ba7b96" x="311.674885" y="307.584" style="stroke: #000000; stroke-width: 0.8"/>
      </g>
     </g>
     <g id="text_4">
      <!-- 3000 -->
      <g transform="translate(298.949885 322.182437) scale(0.1 -0.1)">
       <defs>
        <path id="DejaVuSans-33" d="M 2597 2516 
Q 3050 2419 3304 2112 
Q 3559 1806 3559 1356 
Q 3559 666 3084 287 
Q 2609 -91 1734 -91 
Q 1441 -91 1130 -33 
Q 819 25 488 141 
L 488 750 
Q 750 597 1062 519 
Q 1375 441 1716 441 
Q 2309 441 2620 675 
Q 2931 909 2931 1356 
Q 2931 1769 2642 2001 
Q 2353 2234 1838 2234 
L 1294 2234 
L 1294 2753 
L 1863 2753 
Q 2328 2753 2575 2939 
Q 2822 3125 2822 3475 
Q 2822 3834 2567 4026 
Q 2313 4219 1838 4219 
Q 1578 4219 1281 4162 
Q 984 4106 628 3988 
L 628 4550 
Q 988 4650 1302 4700 
Q 1616 4750 1894 4750 
Q 2613 4750 3031 4423 
Q 3450 4097 3450 3541 
Q 3450 3153 3228 2886 
Q 3006 2619 2597 2516 
z
" transform="scale(0.015625)"/>
       </defs>
       <use xlink:href="#DejaVuSans-33"/>
       <use xlink:href="#DejaVuSans-30" x="63.623047"/>
       <use xlink:href="#DejaVuSans-30" x="127.246094"/>
       <use xlink:href="#DejaVuSans-30" x="190.869141"/>
      </g>
     </g>
    </g>
    <g id="xtick_5">
     <g id="line2d_5">
      <g>
       <use xlink:href="#m41e1ba7b96" x="390.955604" y="307.584" style="stroke: #000000; stroke-width: 0.8"/>
      </g>
     </g>
     <g id="text_5">
      <!-- 4000 -->
      <g transform="translate(378.230604 322.182437) scale(0.1 -0.1)">
       <defs>
        <path id="DejaVuSans-34" d="M 2419 4116 
L 825 1625 
L 2419 1625 
L 2419 4116 
z
M 2253 4666 
L 3047 4666 
L 3047 1625 
L 3713 1625 
L 3713 1100 
L 3047 1100 
L 3047 0 
L 2419 0 
L 2419 1100 
L 313 1100 
L 313 1709 
L 2253 4666 
z
" transform="scale(0.015625)"/>
       </defs>
       <use xlink:href="#DejaVuSans-34"/>
       <use xlink:href="#DejaVuSans-30" x="63.623047"/>
       <use xlink:href="#DejaVuSans-30" x="127.246094"/>
       <use xlink:href="#DejaVuSans-30" x="190.869141"/>
      </g>
     </g>
    </g>
    <g id="text_6">
     <!-- Energy channel -->
     <g transform="translate(197.279531 335.860562) scale(0.1 -0.1)">
      <defs>
       <path id="DejaVuSans-45" d="M 628 4666 
L 3578 4666 
L 3578 4134 
L 1259 4134 
L 1259 2753 
L 3481 2753 
L 3481 2222 
L 1259 2222 
L 1259 531 
L 3634 531 
L 3634 0 
L 628 0 
L 628 4666 
z
" transform="scale(0.015625)"/>
       <path id="DejaVuSans-6e" d="M 3513 2113 
L 3513 0 
L 2938 0 
L 2938 2094 
Q 2938 2591 2744 2837 
Q 2550 3084 2163 3084 
Q 1697 3084 1428 2787 
Q 1159 2491 1159 1978 
L 1159 0 
L 581 0 
L 581 3500 
L 1159 3500 
L 1159 2956 
Q 1366 3272 1645 3428 
Q 1925 3584 2291 3584 
Q 2894 3584 3203 3211 
Q 3513 2838 3513 2113 
z
" transform="scale(0.015625)"/>
       <path id="DejaVuSans-65" d="M 3597 1894 
L 3597 1613 
L 953 1613 
Q 991 1019 1311 708 
Q 1631 397 2203 397 
Q 2534 397 2845 478 
Q 3156 559 3463 722 
L 3463 178 
Q 3153 47 2828 -22 
Q 2503 -91 2169 -91 
Q 1331 -91 842 396 
Q 353 884 353 1716 
Q 353 2575 817 3079 
Q 1281 3584 2069 3584 
Q 2775 3584 3186 3129 
Q 3597 2675 3597 1894 
z
M 3022 2063 
Q 3016 2534 2758 2815 
Q 2500 3097 2075 3097 
Q 1594 3097 1305 2825 
Q 1016 2553 972 2059 
L 3022 2063 
z
" transform="scale(0.015625)"/>
       <path id="DejaVuSans-72" d="M 2631 2963 
Q 2534 3019 2420 3045 
Q 2306 3072 2169 3072 
Q 1681 3072 1420 2755 
Q 1159 2438 1159 1844 
L 1159 0 
L 581 0 
L 581 3500 
L 1159 3500 
L 1159 2956 
Q 1341 3275 1631 3429 
Q 1922 3584 2338 3584 
Q 2397 3584 2469 3576 
Q 2541 3569 2628 3553 
L 2631 2963 
z
" transform="scale(0.015625)"/>
       <path id="DejaVuSans-67" d="M 2906 1791 
Q 2906 2416 2648 2759 
Q 2391 3103 1925 3103 
Q 1463 3103 1205 2759 
Q 947 2416 947 1791 
Q 947 1169 1205 825 
Q 1463 481 1925 481 
Q 2391 481 2648 825 
Q 2906 1169 2906 1791 
z
M 3481 434 
Q 3481 -459 3084 -895 
Q 2688 -1331 1869 -1331 
Q 1566 -1331 1297 -1286 
Q 1028 -1241 775 -1147 
L 775 -588 
Q 1028 -725 1275 -790 
Q 1522 -856 1778 -856 
Q 2344 -856 2625 -561 
Q 2906 -266 2906 331 
L 2906 616 
Q 2728 306 2450 153 
Q 2172 0 1784 0 
Q 1141 0 747 490 
Q 353 981 353 1791 
Q 353 2603 747 3093 
Q 1141 3584 1784 3584 
Q 2172 3584 2450 3431 
Q 2728 3278 2906 2969 
L 2906 3500 
L 3481 3500 
L 3481 434 
z
" transform="scale(0.015625)"/>
       <path id="DejaVuSans-79" d="M 2059 -325 
Q 1816 -950 1584 -1140 
Q 1353 -1331 966 -1331 
L 506 -1331 
L 506 -850 
L 844 -850 
Q 1081 -850 1212 -737 
Q 1344 -625 1503 -206 
L 1606 56 
L 191 3500 
L 800 3500 
L 1894 763 
L 2988 3500 
L 3597 3500 
L 2059 -325 
z
" transform="scale(0.015625)"/>
       <path id="DejaVuSans-20" transform="scale(0.015625)"/>
       <path id="DejaVuSans-63" d="M 3122 3366 
L 3122 2828 
Q 2878 2963 2633 3030 
Q 2388 3097 2138 3097 
Q 1578 3097 1268 2742 
Q 959 2388 959 1747 
Q 959 1106 1268 751 
Q 1578 397 2138 397 
Q 2388 397 2633 464 
Q 2878 531 3122 666 
L 3122 134 
Q 2881 22 2623 -34 
Q 2366 -91 2075 -91 
Q 1284 -91 818 406 
Q 353 903 353 1747 
Q 353 2603 823 3093 
Q 1294 3584 2113 3584 
Q 2378 3584 2631 3529 
Q 2884 3475 3122 3366 
z
" transform="scale(0.015625)"/>
       <path id="DejaVuSans-68" d="M 3513 2113 
L 3513 0 
L 2938 0 
L 2938 2094 
Q 2938 2591 2744 2837 
Q 2550 3084 2163 3084 
Q 1697 3084 1428 2787 
Q 1159 2491 1159 1978 
L 1159 0 
L 581 0 
L 581 4863 
L 1159 4863 
L 1159 2956 
Q 1366 3272 1645 3428 
Q 1925 3584 2291 3584 
Q 2894 3584 3203 3211 
Q 3513 2838 3513 2113 
z
" transform="scale(0.015625)"/>
       <path id="DejaVuSans-61" d="M 2194 1759 
Q 1497 1759 1228 1600 
Q 959 1441 959 1056 
Q 959 750 1161 570 
Q 1363 391 1709 391 
Q 2188 391 2477 730 
Q 2766 1069 2766 1631 
L 2766 1759 
L 2194 1759 
z
M 3341 1997 
L 3341 0 
L 2766 0 
L 2766 531 
Q 2569 213 2275 61 
Q 1981 -91 1556 -91 
Q 1019 -91 701 211 
Q 384 513 384 1019 
Q 384 1609 779 1909 
Q 1175 2209 1959 2209 
L 2766 2209 
L 2766 2266 
Q 2766 2663 2505 2880 
Q 2244 3097 1772 3097 
Q 1472 3097 1187 3025 
Q 903 2953 641 2809 
L 641 3341 
Q 956 3463 1253 3523 
Q 1550 3584 1831 3584 
Q 2591 3584 2966 3190 
Q 3341 2797 3341 1997 
z
" transform="scale(0.015625)"/>
       <path id="DejaVuSans-6c" d="M 603 4863 
L 1178 4863 
L 1178 0 
L 603 0 
L 603 4863 
z
" transform="scale(0.015625)"/>
      </defs>
      <use xlink:href="#DejaVuSans-45"/>
      <use xlink:href="#DejaVuSans-6e" x="63.183594"/>
      <use xlink:href="#DejaVuSans-65" x="126.5625"/>
      <use xlink:href="#DejaVuSans-72" x="188.085938"/>
      <use xlink:href="#DejaVuSans-67" x="227.449219"/>
      <use xlink:href="#DejaVuSans-79" x="290.925781"/>
      <use xlink:href="#DejaVuSans-20" x="350.105469"/>
      <use xlink:href="#DejaVuSans-63" x="381.892578"/>
      <use xlink:href="#DejaVuSans-68" x="436.873047"/>
      <use xlink:href="#DejaVuSans-61" x="500.251953"/>
      <use xlink:href="#DejaVuSans-6e" x="561.53125"/>
      <use xlink:href="#DejaVuSans-6e" x="624.910156"/>
      <use xlink:href="#DejaVuSans-65" x="688.289062"/>
      <use xlink:href="#DejaVuSans-6c" x="749.8125"/>
     </g>
    </g>
   </g>
   <g id="matplotlib.axis_2">
    <g id="ytick_1">
     <g id="line2d_6">
      <defs>
       <path id="m062ffa7b87" d="M 0 0 
L -3.5 0 
" style="stroke: #000000; stroke-width: 0.8"/>
      </defs>
      <g>
       <use xlink:href="#m062ffa7b87" x="57.6" y="295.490564" style="stroke: #000000; stroke-width: 0.8"/>
      </g>
     </g>
     <g id="text_7">
      <!-- 0.0 -->
      <g transform="translate(34.696875 299.289783) scale(0.1 -0.1)">
       <defs>
        <path id="DejaVuSans-2e" d="M 684 794 
L 1344 794 
L 1344 0 
L 684 0 
L 684 794 
z
" transform="scale(0.015625)"/>
       </defs>
       <use xlink:href="#DejaVuSans-30"/>
       <use xlink:href="#DejaVuSans-2e" x="63.623047"/>
       <use xlink:href="#DejaVuSans-30" x="95.410156"/>
      </g>
     </g>
    </g>
    <g id="ytick_2">
     <g id="line2d_7">
      <g>
       <use xlink:href="#m062ffa7b87" x="57.6" y="247.106052" style="stroke: #000000; stroke-width: 0.8"/>
      </g>
     </g>
     <g id="text_8">
      <!-- 0.2 -->
      <g transform="translate(34.696875 250.90527) scale(0.1 -0.1)">
       <use xlink:href="#DejaVuSans-30"/>
       <use xlink:href="#DejaVuSans-2e" x="63.623047"/>
       <use xlink:href="#DejaVuSans-32" x="95.410156"/>
      </g>
     </g>
    </g>
    <g id="ytick_3">
     <g id="line2d_8">
      <g>
       <use xlink:href="#m062ffa7b87" x="57.6" y="198.721539" style="stroke: #000000; stroke-width: 0.8"/>
      </g>
     </g>
     <g id="text_9">
      <!-- 0.4 -->
      <g transform="translate(34.696875 202.520757) scale(0.1 -0.1)">
       <use xlink:href="#DejaVuSans-30"/>
       <use xlink:href="#DejaVuSans-2e" x="63.623047"/>
       <use xlink:href="#DejaVuSans-34" x="95.410156"/>
      </g>
     </g>
    </g>
    <g id="ytick_4">
     <g id="line2d_9">
      <g>
       <use xlink:href="#m062ffa7b87" x="57.6" y="150.337026" style="stroke: #000000; stroke-width: 0.8"/>
      </g>
     </g>
     <g id="text_10">
      <!-- 0.6 -->
      <g transform="translate(34.696875 154.136245) scale(0.1 -0.1)">
       <defs>
        <path id="DejaVuSans-36" d="M 2113 2584 
Q 1688 2584 1439 2293 
Q 1191 2003 1191 1497 
Q 1191 994 1439 701 
Q 1688 409 2113 409 
Q 2538 409 2786 701 
Q 3034 994 3034 1497 
Q 3034 2003 2786 2293 
Q 2538 2584 2113 2584 
z
M 3366 4563 
L 3366 3988 
Q 3128 4100 2886 4159 
Q 2644 4219 2406 4219 
Q 1781 4219 1451 3797 
Q 1122 3375 1075 2522 
Q 1259 2794 1537 2939 
Q 1816 3084 2150 3084 
Q 2853 3084 3261 2657 
Q 3669 2231 3669 1497 
Q 3669 778 3244 343 
Q 2819 -91 2113 -91 
Q 1303 -91 875 529 
Q 447 1150 447 2328 
Q 447 3434 972 4092 
Q 1497 4750 2381 4750 
Q 2619 4750 2861 4703 
Q 3103 4656 3366 4563 
z
" transform="scale(0.015625)"/>
       </defs>
       <use xlink:href="#DejaVuSans-30"/>
       <use xlink:href="#DejaVuSans-2e" x="63.623047"/>
       <use xlink:href="#DejaVuSans-36" x="95.410156"/>
      </g>
     </g>
    </g>
    <g id="ytick_5">
     <g id="line2d_10">
      <g>
       <use xlink:href="#m062ffa7b87" x="57.6" y="101.952513" style="stroke: #000000; stroke-width: 0.8"/>
      </g>
     </g>
     <g id="text_11">
      <!-- 0.8 -->
      <g transform="translate(34.696875 105.751732) scale(0.1 -0.1)">
       <defs>
        <path id="DejaVuSans-38" d="M 2034 2216 
Q 1584 2216 1326 1975 
Q 1069 1734 1069 1313 
Q 1069 891 1326 650 
Q 1584 409 2034 409 
Q 2484 409 2743 651 
Q 3003 894 3003 1313 
Q 3003 1734 2745 1975 
Q 2488 2216 2034 2216 
z
M 1403 2484 
Q 997 2584 770 2862 
Q 544 3141 544 3541 
Q 544 4100 942 4425 
Q 1341 4750 2034 4750 
Q 2731 4750 3128 4425 
Q 3525 4100 3525 3541 
Q 3525 3141 3298 2862 
Q 3072 2584 2669 2484 
Q 3125 2378 3379 2068 
Q 3634 1759 3634 1313 
Q 3634 634 3220 271 
Q 2806 -91 2034 -91 
Q 1263 -91 848 271 
Q 434 634 434 1313 
Q 434 1759 690 2068 
Q 947 2378 1403 2484 
z
M 1172 3481 
Q 1172 3119 1398 2916 
Q 1625 2713 2034 2713 
Q 2441 2713 2670 2916 
Q 2900 3119 2900 3481 
Q 2900 3844 2670 4047 
Q 2441 4250 2034 4250 
Q 1625 4250 1398 4047 
Q 1172 3844 1172 3481 
z
" transform="scale(0.015625)"/>
       </defs>
       <use xlink:href="#DejaVuSans-30"/>
       <use xlink:href="#DejaVuSans-2e" x="63.623047"/>
       <use xlink:href="#DejaVuSans-38" x="95.410156"/>
      </g>
     </g>
    </g>
    <g id="ytick_6">
     <g id="line2d_11">
      <g>
       <use xlink:href="#m062ffa7b87" x="57.6" y="53.568" style="stroke: #000000; stroke-width: 0.8"/>
      </g>
     </g>
     <g id="text_12">
      <!-- 1.0 -->
      <g transform="translate(34.696875 57.367219) scale(0.1 -0.1)">
       <use xlink:href="#DejaVuSans-31"/>
       <use xlink:href="#DejaVuSans-2e" x="63.623047"/>
       <use xlink:href="#DejaVuSans-30" x="95.410156"/>
      </g>
     </g>
    </g>
    <g id="text_13">
     <!-- Intensity -->
     <g transform="translate(28.617187 196.2905) rotate(-90) scale(0.1 -0.1)">
      <defs>
       <path id="DejaVuSans-49" d="M 628 4666 
L 1259 4666 
L 1259 0 
L 628 0 
L 628 4666 
z
" transform="scale(0.015625)"/>
       <path id="DejaVuSans-74" d="M 1172 4494 
L 1172 3500 
L 2356 3500 
L 2356 3053 
L 1172 3053 
L 1172 1153 
Q 1172 725 1289 603 
Q 1406 481 1766 481 
L 2356 481 
L 2356 0 
L 1766 0 
Q 1100 0 847 248 
Q 594 497 594 1153 
L 594 3053 
L 172 3053 
L 172 3500 
L 594 3500 
L 594 4494 
L 1172 4494 
z
" transform="scale(0.015625)"/>
       <path id="DejaVuSans-73" d="M 2834 3397 
L 2834 2853 
Q 2591 2978 2328 3040 
Q 2066 3103 1784 3103 
Q 1356 3103 1142 2972 
Q 928 2841 928 2578 
Q 928 2378 1081 2264 
Q 1234 2150 1697 2047 
L 1894 2003 
Q 2506 1872 2764 1633 
Q 3022 1394 3022 966 
Q 3022 478 2636 193 
Q 2250 -91 1575 -91 
Q 1294 -91 989 -36 
Q 684 19 347 128 
L 347 722 
Q 666 556 975 473 
Q 1284 391 1588 391 
Q 1994 391 2212 530 
Q 2431 669 2431 922 
Q 2431 1156 2273 1281 
Q 2116 1406 1581 1522 
L 1381 1569 
Q 847 1681 609 1914 
Q 372 2147 372 2553 
Q 372 3047 722 3315 
Q 1072 3584 1716 3584 
Q 2034 3584 2315 3537 
Q 2597 3491 2834 3397 
z
" transform="scale(0.015625)"/>
       <path id="DejaVuSans-69" d="M 603 3500 
L 1178 3500 
L 1178 0 
L 603 0 
L 603 3500 
z
M 603 4863 
L 1178 4863 
L 1178 4134 
L 603 4134 
L 603 4863 
z
" transform="scale(0.015625)"/>
      </defs>
      <use xlink:href="#DejaVuSans-49"/>
      <use xlink:href="#DejaVuSans-6e" x="29.492188"/>
      <use xlink:href="#DejaVuSans-74" x="92.871094"/>
      <use xlink:href="#DejaVuSans-65" x="132.080078"/>
      <use xlink:href="#DejaVuSans-6e" x="193.603516"/>
      <use xlink:href="#DejaVuSans-73" x="256.982422"/>
      <use xlink:href="#DejaVuSans-69" x="309.082031"/>
      <use xlink:href="#DejaVuSans-74" x="336.865234"/>
      <use xlink:href="#DejaVuSans-79" x="376.074219"/>
     </g>
    </g>
   </g>
   <g id="line2d_12">
    <path d="M 73.832727 287.428986 
L 84.614905 287.273137 
L 84.694186 286.733252 
L 84.852747 287.16054 
L 84.932028 286.901901 
L 85.011309 287.064313 
L 85.090589 286.718061 
L 85.16987 287.614914 
L 85.249151 287.342743 
L 85.328432 287.121756 
L 85.486993 287.604724 
L 85.566274 287.558434 
L 85.724835 287.006328 
L 85.804116 287.2979 
L 85.883397 286.697021 
L 85.962677 287.450454 
L 86.041958 287.125599 
L 86.121239 287.383375 
L 86.200519 286.966989 
L 86.2798 287.822954 
L 86.359081 287.783919 
L 86.438362 286.722758 
L 86.517642 287.449812 
L 86.596923 287.250401 
L 86.676204 287.06108 
L 86.834765 287.831259 
L 86.993327 287.0808 
L 87.072607 287.986299 
L 87.151888 287.86259 
L 87.31045 286.556858 
L 87.38973 287.634 
L 87.469011 287.340986 
L 87.548292 286.83828 
L 87.627572 287.453592 
L 87.706853 286.669212 
L 87.786134 287.307186 
L 87.865415 286.909882 
L 88.182537 287.864875 
L 88.261818 287.276515 
L 88.341099 287.399935 
L 88.578941 287.195334 
L 88.737502 287.435113 
L 88.816783 287.336487 
L 88.896064 286.616811 
L 89.054625 287.656062 
L 89.133906 287.084648 
L 89.213187 287.468533 
L 89.292468 286.661372 
L 89.451029 287.336001 
L 89.53031 287.301955 
L 89.60959 286.937257 
L 89.768152 287.403349 
L 89.926713 286.800016 
L 90.005994 287.209138 
L 90.164555 286.777029 
L 90.243836 287.467845 
L 90.323117 286.919398 
L 90.402398 287.168882 
L 90.481678 286.752152 
L 90.64024 286.992516 
L 90.798801 286.657607 
L 90.878082 287.542896 
L 91.115924 286.916627 
L 91.274486 286.9428 
L 91.433047 287.012227 
L 91.512328 287.105523 
L 91.591608 286.264948 
L 91.75017 287.260338 
L 91.908731 286.706772 
L 91.988012 287.312117 
L 92.067293 287.128907 
L 92.146573 287.555353 
L 92.305135 286.95698 
L 92.384416 286.819173 
L 92.463696 287.483108 
L 92.622258 286.679902 
L 92.701538 287.488029 
L 92.780819 287.328621 
L 92.939381 287.098539 
L 93.018661 287.388958 
L 93.177223 286.810285 
L 93.256503 287.427017 
L 93.335784 287.286501 
L 93.415065 287.032785 
L 93.652907 287.889077 
L 93.97003 287.212748 
L 94.049311 287.759724 
L 94.128591 287.590966 
L 94.287153 287.93617 
L 94.366434 287.166159 
L 94.524995 287.974985 
L 94.604276 287.896104 
L 94.683556 287.584306 
L 94.762837 287.819337 
L 94.921399 287.127442 
L 95.000679 288.13898 
L 95.07996 288.096263 
L 95.238521 287.867604 
L 95.317802 288.064168 
L 95.397083 287.678546 
L 95.634925 288.429424 
L 95.872767 287.779428 
L 96.031329 288.588306 
L 96.18989 287.998133 
L 96.269171 287.938988 
L 96.348452 288.25582 
L 96.427732 288.195918 
L 96.507013 288.295917 
L 96.586294 288.17591 
L 96.665574 287.812634 
L 96.744855 288.243828 
L 96.824136 288.047738 
L 96.903417 288.645627 
L 96.982697 288.141614 
L 97.061978 288.835842 
L 97.141259 288.201142 
L 97.220539 288.742595 
L 97.379101 288.174403 
L 97.458382 288.797906 
L 97.537662 288.24888 
L 97.616943 289.018263 
L 97.696224 288.383992 
L 97.775504 288.545963 
L 97.854785 288.560123 
L 97.934066 289.071043 
L 98.013347 288.459147 
L 98.092627 288.604168 
L 98.171908 288.58781 
L 98.251189 288.887854 
L 98.33047 288.771646 
L 98.40975 288.370036 
L 98.489031 288.869834 
L 98.568312 288.163873 
L 98.647592 288.956355 
L 98.726873 288.691653 
L 98.806154 288.785499 
L 98.885435 288.336621 
L 98.964715 288.735158 
L 99.043996 288.288542 
L 99.123277 288.633824 
L 99.202557 288.423341 
L 99.281838 288.819221 
L 99.361119 288.395398 
L 99.4404 288.599161 
L 99.598961 288.444958 
L 99.757522 288.407113 
L 99.836803 288.31885 
L 99.995365 288.705058 
L 100.074645 287.347553 
L 100.153926 288.654105 
L 100.233207 288.436336 
L 100.312488 288.11466 
L 100.471049 288.695152 
L 100.55033 288.346123 
L 100.62961 288.433784 
L 100.708891 288.32593 
L 100.788172 288.022415 
L 100.867453 288.232108 
L 100.946733 288.128562 
L 101.026014 288.146393 
L 101.105295 288.813536 
L 101.263856 287.979996 
L 101.422418 288.076187 
L 101.580979 288.120432 
L 101.66026 287.753294 
L 101.73954 288.105655 
L 101.898102 287.790706 
L 101.977383 287.995486 
L 102.056663 287.962432 
L 102.294505 287.468917 
L 102.373786 287.287563 
L 102.532348 287.768394 
L 103.008032 287.454283 
L 103.087313 286.909406 
L 103.166593 287.188705 
L 103.245874 286.780734 
L 103.325155 287.568644 
L 103.483716 286.929891 
L 103.562997 287.19135 
L 103.642278 286.558939 
L 103.800839 287.162913 
L 103.88012 286.780596 
L 103.959401 287.26539 
L 104.038681 286.871752 
L 104.117962 287.371839 
L 104.276523 286.528125 
L 104.355804 286.813658 
L 104.435085 286.5514 
L 104.514366 287.216313 
L 104.593646 286.529524 
L 104.672927 286.926972 
L 104.910769 286.277652 
L 105.227892 286.113064 
L 105.307173 286.3387 
L 105.386454 285.783766 
L 105.465734 286.493375 
L 105.545015 285.832066 
L 105.624296 286.375091 
L 105.782857 285.844812 
L 105.862138 286.076295 
L 106.09998 285.819642 
L 106.179261 285.892552 
L 106.258541 285.302588 
L 106.337822 285.889509 
L 106.417103 285.864592 
L 106.654945 285.430195 
L 106.813506 286.125025 
L 106.972068 285.487118 
L 107.051349 286.108095 
L 107.368472 285.040802 
L 107.447752 285.026525 
L 107.527033 285.158058 
L 107.606314 285.053213 
L 107.685594 285.535359 
L 107.764875 285.376163 
L 107.844156 285.198934 
L 107.923437 285.626219 
L 108.002717 285.253249 
L 108.081998 285.758364 
L 108.240559 285.096306 
L 108.31984 285.169805 
L 108.399121 286.032378 
L 108.557682 285.047307 
L 108.716244 285.011865 
L 108.795524 285.618664 
L 108.954086 284.952068 
L 109.033367 284.846753 
L 109.271209 285.596489 
L 109.35049 284.949468 
L 109.42977 285.277746 
L 109.509051 285.223535 
L 109.667612 284.781004 
L 109.746893 284.941368 
L 109.905455 284.640905 
L 109.984735 285.08769 
L 110.064016 284.839542 
L 110.143297 285.212456 
L 110.301858 284.446765 
L 110.46042 284.615623 
L 110.5397 285.03588 
L 110.618981 284.91943 
L 110.698262 285.027524 
L 110.856823 284.391987 
L 110.936104 284.567291 
L 111.094665 284.34043 
L 111.173946 284.737884 
L 111.253227 284.719664 
L 111.332507 284.318496 
L 111.491069 284.589738 
L 111.57035 284.560456 
L 111.728911 285.005259 
L 111.887473 284.342561 
L 111.966753 285.277846 
L 112.046034 284.021664 
L 112.125315 284.570643 
L 112.204595 284.155944 
L 112.363157 284.626944 
L 112.442438 284.206914 
L 112.68028 284.927115 
L 112.75956 283.799012 
L 112.838841 284.818242 
L 112.918122 284.255456 
L 112.997403 284.781344 
L 113.076683 284.739076 
L 113.155964 284.863924 
L 113.235245 283.602575 
L 113.314525 284.607053 
L 113.393806 284.211974 
L 113.473087 284.262687 
L 113.552368 284.458788 
L 113.710929 283.49081 
L 113.869491 284.209889 
L 113.948771 284.198249 
L 114.028052 284.58189 
L 114.107333 284.479313 
L 114.265894 283.960878 
L 114.345175 284.890947 
L 114.424456 283.378705 
L 114.503736 284.216254 
L 114.583017 283.862193 
L 114.662298 284.540444 
L 114.741578 283.773192 
L 114.90014 284.396314 
L 114.979421 283.501884 
L 115.217263 284.168323 
L 115.296543 284.19206 
L 115.375824 283.828741 
L 115.455105 283.865089 
L 115.613666 283.449595 
L 115.772228 284.087437 
L 115.930789 283.936828 
L 116.01007 283.997038 
L 116.089351 283.447361 
L 116.168631 284.521014 
L 116.247912 283.381425 
L 116.327193 283.683408 
L 116.406474 283.437194 
L 116.485754 283.80571 
L 116.565035 283.207166 
L 116.644316 283.708313 
L 116.723596 283.080425 
L 116.802877 283.428544 
L 116.882158 283.241207 
L 116.961439 283.579137 
L 117.199281 282.636921 
L 117.278561 283.588604 
L 117.357842 283.228457 
L 117.437123 283.445275 
L 117.516404 282.161336 
L 117.595684 283.378735 
L 117.674965 282.654172 
L 117.754246 283.160262 
L 117.833526 282.413388 
L 117.912807 282.493118 
L 118.071369 282.871153 
L 118.309211 282.31593 
L 118.388492 282.278287 
L 118.467772 282.519117 
L 118.626334 281.506838 
L 118.705614 282.571782 
L 118.864176 281.337491 
L 118.943457 281.669762 
L 119.022737 281.371725 
L 119.102018 281.930452 
L 119.260579 280.798631 
L 119.33986 281.471417 
L 119.498422 280.506177 
L 119.577702 280.89667 
L 119.656983 280.221768 
L 119.736264 280.704691 
L 119.815544 279.519744 
L 119.894825 280.459517 
L 120.132667 279.439398 
L 120.211948 279.673215 
L 120.291229 278.564076 
L 120.370509 279.434446 
L 120.529071 278.573509 
L 120.608352 278.530128 
L 120.687632 278.913914 
L 120.766913 278.88139 
L 120.846194 277.582121 
L 120.925475 278.124364 
L 121.084036 276.903404 
L 121.163317 277.282671 
L 121.639001 275.480556 
L 121.718282 275.799491 
L 121.797562 275.814828 
L 122.035405 274.258336 
L 122.114685 274.946763 
L 122.352527 274.197656 
L 122.431808 274.19976 
L 122.59037 272.239395 
L 122.66965 273.144134 
L 122.748931 272.200194 
L 122.828212 272.802232 
L 123.066054 270.690425 
L 123.145335 270.918789 
L 123.224615 271.012821 
L 123.303896 271.355489 
L 123.462458 269.883205 
L 123.541738 269.886981 
L 123.621019 269.073705 
L 123.7003 269.22688 
L 123.77958 268.632454 
L 123.858861 266.946515 
L 123.938142 267.764434 
L 124.017423 266.118519 
L 124.096703 267.223419 
L 124.175984 266.829862 
L 124.255265 266.177947 
L 124.334545 266.519673 
L 124.413826 265.575598 
L 124.493107 265.64217 
L 124.572388 265.617847 
L 124.88951 263.305252 
L 124.968791 263.192534 
L 125.048072 263.477378 
L 125.285914 262.258193 
L 125.444476 262.600428 
L 125.523756 261.46912 
L 125.603037 262.390216 
L 125.682318 260.289719 
L 125.761598 261.108595 
L 125.840879 260.690339 
L 125.999441 258.702378 
L 126.158002 258.930924 
L 126.237283 258.4576 
L 126.316563 258.578202 
L 126.395844 259.330353 
L 126.475125 256.687477 
L 126.554406 257.095023 
L 126.633686 257.114813 
L 126.712967 257.44584 
L 126.871528 256.483598 
L 127.03009 256.823211 
L 127.109371 256.776943 
L 127.267932 256.11366 
L 127.347213 256.118482 
L 127.505774 254.798042 
L 127.585055 254.614407 
L 127.664336 256.099004 
L 127.981459 253.707324 
L 128.14002 254.855086 
L 128.219301 253.849205 
L 128.298581 254.041083 
L 128.377862 253.960709 
L 128.457143 255.826791 
L 128.615704 252.943303 
L 128.694985 254.913846 
L 128.774266 254.240661 
L 128.853546 254.081517 
L 128.932827 254.529529 
L 129.012108 255.853472 
L 129.170669 254.303259 
L 129.24995 255.506026 
L 129.329231 254.351976 
L 129.408511 254.653523 
L 129.725634 254.391495 
L 129.884196 254.930678 
L 129.963477 255.001805 
L 130.042757 256.281568 
L 130.122038 256.15551 
L 130.280599 255.764521 
L 130.35988 255.694131 
L 130.518442 256.533195 
L 130.597722 255.578864 
L 130.677003 257.113588 
L 130.756284 255.630598 
L 130.994126 258.115778 
L 131.073407 256.582193 
L 131.231968 258.146704 
L 131.311249 258.078175 
L 131.46981 258.004346 
L 131.707652 259.871464 
L 131.786933 260.523395 
L 131.866214 258.934364 
L 132.024775 260.155785 
L 132.104056 259.947443 
L 132.183337 260.17934 
L 132.262617 260.980784 
L 132.341898 260.018705 
L 132.738302 263.208197 
L 132.896863 262.497191 
L 132.976144 263.125427 
L 133.055425 262.713652 
L 133.134705 264.975119 
L 133.213986 264.825907 
L 133.372547 264.953297 
L 133.451828 264.426529 
L 133.61039 265.90354 
L 133.68967 265.21992 
L 133.768951 266.615687 
L 133.848232 265.925931 
L 133.927512 266.139197 
L 134.006793 266.362808 
L 134.244635 267.930074 
L 134.323916 267.978411 
L 134.403197 268.703614 
L 134.482478 267.72738 
L 134.561758 269.516713 
L 134.641039 268.40477 
L 134.878881 270.021368 
L 135.037443 270.112321 
L 135.275285 271.416702 
L 135.354565 271.376057 
L 135.433846 271.125967 
L 135.513127 271.673925 
L 135.592408 270.886422 
L 135.988811 273.175946 
L 136.068092 272.880816 
L 136.147373 273.006915 
L 136.226653 274.086477 
L 136.305934 273.913454 
L 136.464496 273.442232 
L 136.543776 274.893415 
L 136.623057 274.097145 
L 136.702338 274.605197 
L 136.781618 274.402919 
L 136.94018 275.208223 
L 137.019461 274.942474 
L 137.098741 275.201383 
L 137.178022 276.358823 
L 137.257303 275.900403 
L 137.653706 277.298692 
L 137.732987 276.681191 
L 137.812268 277.150621 
L 137.891548 276.937147 
L 138.05011 277.728907 
L 138.129391 277.57711 
L 138.208671 278.427625 
L 138.287952 277.198135 
L 138.605075 278.698582 
L 138.684356 278.262256 
L 138.922198 279.028409 
L 139.001479 279.170828 
L 139.080759 279.098792 
L 139.16004 279.014551 
L 139.318601 279.453479 
L 139.397882 279.640864 
L 139.477163 278.978333 
L 139.556444 279.829103 
L 139.635724 279.775459 
L 139.715005 279.57467 
L 139.794286 279.966489 
L 139.952847 279.214949 
L 140.032128 279.28224 
L 140.190689 280.312391 
L 140.349251 279.481002 
L 140.428531 280.274011 
L 140.507812 280.022778 
L 140.587093 280.125517 
L 140.666374 280.622881 
L 140.745654 280.55995 
L 140.824935 280.528299 
L 140.904216 281.144677 
L 140.983497 280.490379 
L 141.062777 280.705896 
L 141.142058 280.826522 
L 141.221339 280.047448 
L 141.300619 280.849534 
L 141.3799 280.494961 
L 141.538462 280.958801 
L 141.617742 280.630942 
L 141.697023 281.846527 
L 141.776304 281.386325 
L 141.855584 281.652504 
L 142.014146 281.209132 
L 142.093427 281.19076 
L 142.251988 281.69737 
L 142.331269 280.539281 
L 142.410549 281.358483 
L 142.48983 280.655479 
L 142.569111 281.482824 
L 142.648392 281.270898 
L 142.727672 281.219521 
L 142.806953 280.757832 
L 142.965514 281.543983 
L 143.044795 281.376701 
L 143.124076 281.723426 
L 143.203357 281.690725 
L 143.282637 281.360633 
L 143.441199 282.52685 
L 143.52048 282.062502 
L 143.59976 282.431462 
L 143.679041 282.37118 
L 143.758322 281.863371 
L 143.837602 281.972009 
L 143.996164 281.968538 
L 144.234006 281.567925 
L 144.313287 282.335365 
L 144.63041 281.226483 
L 144.788971 282.149905 
L 144.868252 281.330722 
L 144.947532 281.385418 
L 145.264655 280.806997 
L 145.343936 281.02141 
L 145.502498 281.476495 
L 145.581778 280.343361 
L 145.661059 280.765262 
L 145.74034 280.602791 
L 145.898901 281.12632 
L 145.978182 280.080497 
L 146.057463 280.668538 
L 146.136743 280.553451 
L 146.216024 279.45192 
L 146.295305 280.239771 
L 146.374585 279.933566 
L 146.612428 279.235202 
L 146.691708 279.675787 
L 146.85027 278.686474 
L 146.92955 278.833102 
L 147.008831 278.575571 
L 147.088112 279.224319 
L 147.325954 277.457886 
L 147.405235 277.449944 
L 147.484515 278.384511 
L 147.801638 275.993978 
L 147.880919 276.173941 
L 147.9602 276.142317 
L 148.118761 275.028789 
L 148.198042 275.288691 
L 148.277323 274.343782 
L 148.356603 274.602685 
L 148.515165 273.615503 
L 148.594446 274.218583 
L 148.673726 272.45805 
L 148.753007 272.622522 
L 149.07013 270.59139 
L 149.149411 270.215519 
L 149.228691 270.430594 
L 149.307972 270.084146 
L 149.387253 270.50926 
L 149.545814 268.295487 
L 149.625095 267.872229 
L 149.862937 265.394994 
L 149.942218 265.601647 
L 150.021499 265.378124 
L 150.417902 261.580568 
L 150.497183 261.321235 
L 150.972867 256.806849 
L 151.131429 254.630834 
L 151.369271 252.271885 
L 151.448551 252.631182 
L 151.607113 248.152315 
L 151.686394 247.606704 
L 151.765674 247.973999 
L 151.924236 245.835054 
L 152.003516 245.845747 
L 152.162078 242.900078 
L 152.241359 242.671197 
L 152.479201 237.000411 
L 152.558482 236.584772 
L 152.875604 231.583508 
L 152.954885 231.598646 
L 153.034166 230.64743 
L 153.272008 225.17045 
L 153.351289 225.264392 
L 153.589131 220.45555 
L 154.064815 211.59343 
L 154.144096 210.985642 
L 154.302657 205.840036 
L 154.461219 202.313665 
L 154.699061 196.996568 
L 154.778342 197.163833 
L 155.095465 188.087577 
L 155.254026 184.508154 
L 155.333307 185.282654 
L 155.72971 173.344414 
L 155.808991 172.648302 
L 156.046833 164.408776 
L 156.126114 164.796668 
L 156.522517 153.660684 
L 156.601798 152.434334 
L 156.681079 153.271363 
L 156.918921 143.821411 
L 157.156763 135.839094 
L 157.236044 136.864878 
L 158.028851 118.753909 
L 158.266693 109.976488 
L 158.345974 110.437662 
L 158.425255 110.365542 
L 158.663097 101.199546 
L 158.742378 101.874013 
L 158.98022 93.086015 
L 159.138781 95.172512 
L 159.376623 85.561539 
L 159.455904 83.787563 
L 159.535185 85.555881 
L 159.614466 83.906559 
L 159.693746 79.207044 
L 159.773027 83.198669 
L 159.931588 75.930783 
L 160.010869 75.964038 
L 160.09015 75.487061 
L 160.169431 72.721429 
L 160.248711 75.615281 
L 160.486553 68.653935 
L 160.565834 70.14629 
L 160.803676 64.022175 
L 160.882957 63.796934 
L 160.962238 64.792231 
L 161.120799 60.244949 
L 161.279361 61.571082 
L 161.596484 53.568 
L 161.675764 57.348502 
L 161.755045 54.561895 
L 161.834326 57.375088 
L 161.913606 54.199406 
L 161.992887 56.608109 
L 162.072168 55.062343 
L 162.151449 57.522917 
L 162.230729 53.804863 
L 162.31001 55.021484 
L 162.389291 59.018487 
L 162.468571 53.871064 
L 162.547852 54.048583 
L 162.706414 55.386032 
L 162.785694 58.343129 
L 162.864975 57.631194 
L 162.944256 54.961152 
L 163.023536 57.709447 
L 163.102817 56.035085 
L 163.261379 58.086423 
L 163.41994 56.630244 
L 163.499221 60.322277 
L 163.578501 58.967456 
L 163.737063 63.133053 
L 163.816344 60.766041 
L 163.895624 61.835114 
L 163.974905 65.137192 
L 164.054186 61.444975 
L 164.212747 64.566168 
L 164.767712 72.90266 
L 165.005554 78.412147 
L 165.084835 77.108396 
L 165.164116 79.644581 
L 165.243397 78.355846 
L 166.194765 97.969579 
L 166.274046 98.155525 
L 166.353327 104.181681 
L 166.432607 101.269382 
L 166.74973 110.966826 
L 166.829011 111.366643 
L 166.908292 115.129929 
L 166.987572 113.131619 
L 167.304695 124.604767 
L 167.383976 124.666779 
L 167.701099 130.524124 
L 167.78038 129.798016 
L 167.938941 136.453522 
L 168.018222 134.458676 
L 168.176783 141.954671 
L 168.256064 141.897968 
L 168.652468 152.675508 
L 168.731748 154.460483 
L 168.811029 153.732392 
L 169.128152 161.19773 
L 169.207433 160.306287 
L 169.365994 165.50246 
L 169.445275 166.490281 
L 169.683117 172.477046 
L 170.07952 181.169647 
L 170.158801 181.171069 
L 170.793047 193.63764 
L 170.872328 194.373884 
L 170.951608 197.282325 
L 171.030889 195.91642 
L 171.268731 203.164256 
L 171.348012 202.726346 
L 171.902977 212.538113 
L 172.140819 216.031556 
L 172.378661 221.29003 
L 172.457942 220.339356 
L 173.964276 239.946988 
L 174.043556 239.644934 
L 174.281399 243.966829 
L 174.360679 243.072151 
L 174.915644 251.555274 
L 174.994925 249.439992 
L 175.391329 253.858892 
L 175.470609 254.286306 
L 175.629171 256.065728 
L 175.708452 256.301883 
L 175.867013 258.069012 
L 175.946294 257.619056 
L 176.184136 260.265768 
L 176.263417 260.018259 
L 176.342697 262.175848 
L 176.421978 261.702958 
L 176.501259 263.453123 
L 176.580539 263.350467 
L 177.214785 268.281554 
L 177.294066 267.57224 
L 177.452627 269.12464 
L 177.531908 269.526445 
L 177.611189 268.917878 
L 177.849031 271.715108 
L 177.928312 271.4537 
L 178.086873 272.867561 
L 178.245435 272.834731 
L 178.403996 273.994091 
L 178.483277 273.737768 
L 178.562557 274.993218 
L 178.641838 274.647024 
L 178.958961 276.406396 
L 179.117522 276.980755 
L 179.196803 278.164002 
L 179.276084 277.823202 
L 179.751768 279.713395 
L 179.91033 280.832591 
L 179.98961 280.80265 
L 180.068891 281.354417 
L 180.148172 280.953669 
L 180.386014 282.254073 
L 180.465295 282.033833 
L 180.703137 283.22721 
L 180.782418 282.986727 
L 181.09954 284.225096 
L 181.178821 284.221149 
L 181.258102 285.157053 
L 181.337383 284.581569 
L 181.575225 285.499445 
L 181.813067 286.067775 
L 182.209471 287.282677 
L 182.288751 286.815373 
L 182.447313 287.58248 
L 182.685155 287.70646 
L 182.843716 288.524153 
L 182.922997 288.937676 
L 183.081558 288.253923 
L 183.24012 289.035434 
L 183.319401 288.916041 
L 183.398681 289.114364 
L 183.477962 288.815769 
L 183.795085 289.931425 
L 183.874366 289.638747 
L 183.953646 289.70932 
L 184.032927 289.682484 
L 184.112208 290.306788 
L 184.191489 289.646174 
L 184.429331 290.608951 
L 184.508611 290.410315 
L 184.905015 291.262255 
L 184.984296 291.082682 
L 185.063576 291.257531 
L 185.142857 291.188713 
L 185.222138 290.924782 
L 185.301419 291.328105 
L 185.380699 291.028357 
L 185.45998 291.718223 
L 185.539261 291.596887 
L 185.618541 291.649222 
L 185.697822 291.838847 
L 185.777103 291.502173 
L 185.856384 291.9036 
L 185.935664 291.686575 
L 186.014945 292.307545 
L 186.094226 291.861703 
L 186.173506 292.317365 
L 186.252787 292.195346 
L 186.490629 292.303127 
L 186.649191 292.737514 
L 186.728472 292.345114 
L 186.887033 292.805917 
L 186.966314 292.898564 
L 187.124875 292.472568 
L 187.283437 292.815257 
L 187.362717 292.745029 
L 187.441998 292.851624 
L 187.521279 293.147165 
L 187.600559 293.023618 
L 187.67984 293.089256 
L 187.759121 292.901726 
L 187.917682 293.333309 
L 187.996963 293.182492 
L 188.076244 293.54786 
L 188.155524 293.117703 
L 188.234805 293.450481 
L 188.314086 293.33959 
L 188.393367 293.228359 
L 188.869051 293.581554 
L 188.948332 293.463119 
L 189.027612 293.762582 
L 189.106893 293.693636 
L 189.186174 293.860539 
L 189.344735 293.628355 
L 189.424016 293.571658 
L 189.503297 293.957323 
L 189.582577 293.72676 
L 189.661858 293.893195 
L 189.741139 293.6329 
L 189.82042 293.737328 
L 189.8997 293.761695 
L 189.978981 293.583075 
L 190.058262 294.007434 
L 190.137542 293.867761 
L 190.296104 293.893675 
L 190.375385 293.754244 
L 190.454665 293.991816 
L 190.533946 293.910716 
L 190.771788 294.010952 
L 191.00963 293.817678 
L 191.168192 293.985616 
L 191.247473 294.09458 
L 191.406034 293.962478 
L 191.485315 294.077515 
L 191.564595 293.878974 
L 191.643876 294.102335 
L 191.723157 293.881588 
L 191.881718 294.158324 
L 191.960999 293.912179 
L 192.198841 294.203882 
L 192.515964 294.199099 
L 192.595245 294.397512 
L 192.674525 294.143139 
L 192.753806 294.315142 
L 192.912368 294.232878 
L 192.991648 294.343682 
L 193.229491 294.166367 
L 193.467333 294.239593 
L 193.546613 294.044048 
L 193.784456 294.411891 
L 194.339421 294.422027 
L 194.497982 294.209601 
L 194.656543 294.459194 
L 194.735824 294.274996 
L 194.894386 294.532277 
L 194.973666 294.356724 
L 195.132228 294.729363 
L 195.211508 294.552914 
L 195.290789 294.430896 
L 195.37007 294.506097 
L 195.687193 294.361401 
L 195.845754 294.506288 
L 195.925035 294.359393 
L 196.083596 294.662256 
L 196.321439 294.452227 
L 196.400719 294.445074 
L 196.48 294.615388 
L 196.559281 294.54854 
L 196.638561 294.442615 
L 196.876404 294.586609 
L 197.114246 294.492106 
L 197.352088 294.616316 
L 197.510649 294.559018 
L 197.58993 294.584881 
L 197.669211 294.368298 
L 197.748492 294.568461 
L 197.827772 294.48345 
L 198.065614 294.724559 
L 198.224176 294.518424 
L 198.303457 294.688635 
L 198.382737 294.565946 
L 198.462018 294.622654 
L 198.541299 294.764704 
L 198.69986 294.46858 
L 198.779141 294.694091 
L 198.858422 294.504335 
L 198.937702 294.717601 
L 199.096264 294.472088 
L 199.413387 294.750164 
L 199.571948 294.562572 
L 199.730509 294.717364 
L 199.968352 294.581774 
L 200.047632 294.742221 
L 200.126913 294.58576 
L 200.206194 294.776255 
L 200.285475 294.680488 
L 200.523317 294.665259 
L 200.761159 294.664685 
L 200.84044 294.766072 
L 200.999001 294.572123 
L 201.078282 294.550284 
L 201.157562 294.700662 
L 201.236843 294.636942 
L 201.633247 294.760276 
L 201.712527 294.628128 
L 201.791808 294.693309 
L 201.871089 294.584468 
L 202.02965 294.64987 
L 202.505335 294.630327 
L 202.584615 294.745596 
L 202.743177 294.629371 
L 202.901738 294.786832 
L 203.218861 294.513002 
L 203.456703 294.895299 
L 203.535984 294.658251 
L 203.615265 294.724801 
L 204.011668 294.668817 
L 204.090949 294.867036 
L 204.17023 294.777891 
L 204.328791 294.707164 
L 204.408072 294.929815 
L 204.566633 294.805933 
L 204.725195 294.697084 
L 205.042318 294.853222 
L 205.28016 294.63786 
L 205.359441 294.672628 
L 205.438721 294.501601 
L 205.597283 294.72622 
L 205.835125 294.788134 
L 205.914406 294.654411 
L 205.993686 294.889854 
L 206.072967 294.692953 
L 206.231528 294.871291 
L 206.39009 294.742019 
L 206.469371 294.853667 
L 206.627932 294.700869 
L 206.786494 294.860789 
L 206.945055 294.66733 
L 207.103616 294.726276 
L 207.341459 294.704325 
L 207.579301 294.859272 
L 207.658581 294.619872 
L 207.737862 294.669024 
L 207.896424 294.721567 
L 207.975704 294.704472 
L 208.213546 294.948643 
L 208.372108 294.542823 
L 208.530669 294.868308 
L 208.60995 294.697969 
L 208.689231 294.850182 
L 208.768511 294.778063 
L 209.006354 294.757417 
L 209.164915 294.807298 
L 209.561319 294.682564 
L 209.71988 294.924839 
L 209.799161 294.903423 
L 209.878442 294.562308 
L 209.957722 294.678596 
L 210.037003 294.863296 
L 210.116284 294.695694 
L 210.195564 294.855671 
L 210.274845 294.773554 
L 210.512687 294.82662 
L 210.750529 294.800434 
L 211.226214 294.721968 
L 211.543337 294.877478 
L 211.622617 295.006612 
L 211.701898 294.929501 
L 211.781179 294.793845 
L 211.86046 294.886899 
L 212.019021 294.825188 
L 212.098302 294.953237 
L 212.177582 294.738064 
L 212.256863 294.820048 
L 212.811828 294.774767 
L 213.04967 294.73447 
L 213.128951 294.851406 
L 213.208232 294.775503 
L 213.287512 294.88141 
L 213.366793 294.776218 
L 213.525355 294.908389 
L 213.683916 294.766644 
L 213.842478 294.789621 
L 214.001039 294.703135 
L 214.1596 294.837005 
L 214.238881 294.810766 
L 214.318162 294.987741 
L 214.556004 294.8273 
L 214.714565 294.745718 
L 215.031688 294.865378 
L 215.110969 294.98099 
L 215.19025 294.803957 
L 215.348811 294.89477 
L 215.507373 294.707471 
L 215.586653 294.912573 
L 215.665934 294.835726 
L 216.141618 294.828795 
L 216.379461 294.810199 
L 216.617303 294.694598 
L 216.696583 294.882552 
L 216.775864 294.815317 
L 217.013706 294.786417 
L 217.092987 294.976959 
L 217.172268 294.908718 
L 217.41011 294.755949 
L 217.568671 294.812477 
L 217.806513 294.800566 
L 217.965075 294.972656 
L 218.202917 294.747748 
L 218.282198 294.760933 
L 218.361479 294.942938 
L 218.440759 294.872837 
L 218.678601 294.877312 
L 218.757882 294.953913 
L 218.916444 294.826666 
L 219.075005 294.767765 
L 219.154286 294.941452 
L 219.233566 294.803876 
L 219.312847 294.862615 
L 219.947093 294.833434 
L 220.343497 294.729538 
L 220.422777 294.929148 
L 220.502058 294.828278 
L 220.660619 295.081625 
L 220.898462 294.808506 
L 221.453427 294.789741 
L 221.532707 294.725668 
L 221.611988 294.93289 
L 221.691269 294.868083 
L 221.770549 294.734114 
L 221.929111 294.915542 
L 222.008392 294.826277 
L 222.246234 295.020122 
L 222.325514 294.690358 
L 222.404795 294.89206 
L 222.484076 294.789056 
L 222.563357 294.865384 
L 222.95976 294.960846 
L 223.039041 294.954045 
L 223.197602 294.804555 
L 223.356164 294.814735 
L 223.594006 294.872412 
L 223.831848 294.871386 
L 224.06969 294.680228 
L 224.228252 294.852934 
L 224.466094 294.725771 
L 224.545375 294.839284 
L 224.624655 294.733439 
L 224.703936 294.855332 
L 224.783217 294.640987 
L 224.941778 294.944162 
L 225.17962 294.743827 
L 225.417463 294.81857 
L 225.576024 294.824155 
L 226.051708 294.841929 
L 226.130989 294.677591 
L 226.28955 294.869808 
L 226.368831 294.760305 
L 226.448112 294.870915 
L 226.527393 294.74928 
L 226.685954 295.007439 
L 226.844515 294.777417 
L 227.082358 294.824715 
L 227.161638 294.810589 
L 227.240919 294.91724 
L 227.399481 294.71183 
L 227.716603 294.91944 
L 227.795884 294.727531 
L 228.113007 294.958199 
L 228.192288 294.791521 
L 228.271568 294.906351 
L 228.350849 294.850545 
L 228.43013 294.772781 
L 228.509411 294.949917 
L 228.588691 294.90243 
L 228.826533 294.768726 
L 229.064376 294.876188 
L 229.143656 294.885551 
L 229.222937 294.735542 
L 229.381499 294.887624 
L 229.54006 294.644559 
L 229.619341 294.967387 
L 229.698621 294.808195 
L 229.777902 294.858704 
L 230.015744 294.897654 
L 230.412148 294.723289 
L 230.491429 294.881098 
L 230.729271 294.748758 
L 230.887832 294.850467 
L 230.967113 294.627716 
L 231.046394 294.925533 
L 231.125674 294.849894 
L 231.284236 294.825565 
L 231.442797 294.775271 
L 231.601359 294.861537 
L 231.839201 294.674011 
L 231.997762 294.778595 
L 232.077043 294.800493 
L 232.156324 294.699681 
L 232.235604 294.892721 
L 232.394166 294.739134 
L 232.473447 294.92513 
L 232.632008 294.754545 
L 232.711289 294.926253 
L 232.790569 294.787324 
L 232.86985 294.894303 
L 232.949131 294.816326 
L 233.028412 294.8683 
L 233.107692 294.769373 
L 233.266254 294.89057 
L 233.345534 294.723622 
L 233.504096 294.875044 
L 233.9005 294.722547 
L 233.97978 294.604155 
L 234.059061 294.824881 
L 234.138342 294.793216 
L 234.376184 294.947715 
L 234.534745 294.770957 
L 234.693307 294.958375 
L 234.772587 294.858108 
L 234.851868 294.915748 
L 235.01043 294.749302 
L 235.327552 294.743462 
L 235.406833 294.660886 
L 235.565395 294.818828 
L 235.803237 294.736351 
L 236.041079 294.735489 
L 236.19964 294.813134 
L 236.278921 294.785489 
L 236.358202 294.622705 
L 236.516763 294.833937 
L 236.675325 294.784382 
L 236.754605 294.874183 
L 236.913167 294.60094 
L 236.992448 294.678427 
L 237.23029 294.734503 
L 237.30957 294.666761 
L 237.468132 294.775926 
L 237.547413 294.670269 
L 237.626693 294.740518 
L 237.864535 294.785253 
L 237.943816 294.592136 
L 238.181658 294.859525 
L 238.260939 294.705503 
L 238.34022 294.839998 
L 238.4195 294.763055 
L 238.498781 294.813511 
L 238.736623 294.698338 
L 238.815904 294.786392 
L 238.895185 294.688544 
L 238.974466 294.755859 
L 239.133027 294.824423 
L 239.212308 294.715087 
L 239.291588 294.890258 
L 239.370869 294.678391 
L 239.45015 294.782326 
L 239.608711 294.694311 
L 239.687992 294.888128 
L 239.767273 294.60304 
L 239.846553 294.793159 
L 239.925834 294.741517 
L 240.084396 294.712994 
L 240.163676 294.714944 
L 240.322238 294.816611 
L 240.480799 294.779311 
L 240.718641 294.720212 
L 240.797922 294.818882 
L 240.877203 294.69716 
L 240.956484 294.770782 
L 241.035764 294.756396 
L 241.194326 294.578835 
L 241.273606 294.901791 
L 241.432168 294.601801 
L 241.511449 294.759026 
L 241.590729 294.66601 
L 241.67001 294.736699 
L 241.828571 294.671008 
L 241.987133 294.728341 
L 242.066414 294.678429 
L 242.224975 294.874111 
L 242.304256 294.694907 
L 242.383536 294.744578 
L 242.542098 294.681363 
L 243.255624 294.760276 
L 243.334905 294.633503 
L 243.493467 294.731091 
L 243.652028 294.646516 
L 243.731309 294.859221 
L 243.810589 294.656237 
L 243.88987 294.746399 
L 244.286274 294.611253 
L 244.524116 294.681091 
L 244.682677 294.658465 
L 244.761958 294.837766 
L 244.841239 294.60649 
L 244.920519 294.742354 
L 244.9998 294.57049 
L 245.079081 294.73372 
L 245.158362 294.678702 
L 245.316923 294.59616 
L 245.475485 294.845148 
L 245.713327 294.688525 
L 245.792607 294.813388 
L 246.03045 294.594758 
L 246.189011 294.78176 
L 246.268292 294.638422 
L 246.347572 294.686485 
L 246.506134 294.683671 
L 246.743976 294.628654 
L 246.823257 294.810823 
L 246.902537 294.555651 
L 246.981818 294.791453 
L 247.061099 294.732843 
L 247.14038 294.486253 
L 247.298941 294.816796 
L 247.378222 294.711788 
L 247.457502 294.886829 
L 247.536783 294.657769 
L 247.616064 294.750211 
L 247.774625 294.723527 
L 247.853906 294.663583 
L 247.933187 294.834865 
L 248.012468 294.757388 
L 248.091748 294.637783 
L 248.171029 294.799699 
L 248.25031 294.612242 
L 248.32959 294.882635 
L 248.408871 294.563628 
L 248.488152 294.762449 
L 248.725994 294.506983 
L 248.963836 294.733004 
L 249.122398 294.572199 
L 249.280959 294.743531 
L 249.36024 294.611483 
L 249.518801 294.741862 
L 249.756643 294.589169 
L 249.994486 294.673058 
L 250.073766 294.73174 
L 250.232328 294.597653 
L 250.311608 294.738158 
L 250.390889 294.558341 
L 250.47017 294.64122 
L 250.787293 294.776813 
L 250.866573 294.654263 
L 251.025135 294.718483 
L 251.183696 294.601489 
L 251.421538 294.720649 
L 251.659381 294.712342 
L 251.738661 294.771708 
L 251.817942 294.583647 
L 252.055784 294.975798 
L 252.135065 294.602583 
L 252.214346 294.760405 
L 252.452188 294.57046 
L 252.610749 294.863488 
L 252.69003 294.511717 
L 252.769311 294.662692 
L 252.848591 294.793585 
L 252.927872 294.739119 
L 253.165714 294.728991 
L 253.244995 294.857556 
L 253.324276 294.568191 
L 253.403556 294.687331 
L 253.482837 294.554645 
L 253.562118 294.765616 
L 253.641399 294.678371 
L 253.958521 294.79527 
L 254.117083 294.596284 
L 254.196364 294.655922 
L 254.275644 294.508461 
L 254.434206 294.796519 
L 254.513487 294.719665 
L 254.751329 294.714937 
L 254.989171 294.767622 
L 255.147732 294.539671 
L 255.227013 294.72647 
L 255.306294 294.597822 
L 255.385574 294.660094 
L 255.464855 294.592797 
L 255.544136 294.757497 
L 255.623417 294.512869 
L 255.781978 294.822257 
L 256.099101 294.554986 
L 256.336943 294.72698 
L 256.495504 294.720442 
L 256.574785 294.860061 
L 256.654066 294.532061 
L 256.733347 294.700528 
L 256.812627 294.650149 
L 257.05047 294.777089 
L 257.12975 294.502443 
L 257.288312 294.775933 
L 257.446873 294.624047 
L 257.526154 294.806947 
L 257.605435 294.632669 
L 257.843277 294.780911 
L 258.001838 294.705871 
L 258.1604 294.757279 
L 258.398242 294.57903 
L 258.636084 294.825234 
L 258.715365 294.613885 
L 258.794645 294.750574 
L 258.873926 294.596282 
L 258.953207 294.672418 
L 259.111768 294.858319 
L 259.191049 294.612373 
L 259.34961 294.809443 
L 259.508172 294.704259 
L 259.666733 294.797308 
L 259.825295 294.661537 
L 259.904575 294.847121 
L 259.983856 294.795531 
L 260.063137 294.810992 
L 260.142418 294.694831 
L 260.221698 294.877796 
L 260.300979 294.674611 
L 260.45954 294.763101 
L 260.538821 294.670186 
L 260.855944 294.89794 
L 261.252348 294.738727 
L 261.331628 294.580493 
L 261.49019 294.839596 
L 261.807313 294.671684 
L 261.886593 294.765111 
L 262.045155 294.693886 
L 262.282997 294.872567 
L 262.520839 294.725453 
L 262.679401 294.816466 
L 262.758681 294.764191 
L 262.917243 294.988812 
L 262.996523 294.916537 
L 263.155085 294.748313 
L 263.392927 294.873225 
L 263.551489 294.765241 
L 263.630769 294.894899 
L 263.71005 294.807054 
L 263.789331 294.895773 
L 263.868611 294.719736 
L 264.027173 294.775527 
L 264.106454 294.675065 
L 264.344296 294.887563 
L 264.423576 294.766062 
L 264.502857 295.032193 
L 264.582138 294.705563 
L 264.661419 294.901303 
L 264.81998 294.831543 
L 264.978541 294.834615 
L 265.216384 294.817689 
L 265.295664 294.917929 
L 265.374945 294.65575 
L 265.612787 294.95598 
L 266.009191 294.770285 
L 266.167752 294.910617 
L 266.722717 294.85444 
L 266.801998 295.020897 
L 267.03984 294.8319 
L 267.198402 294.889228 
L 267.277682 294.840726 
L 267.356963 295.010067 
L 267.436244 294.929914 
L 267.674086 294.736079 
L 267.832647 295.038669 
L 267.911928 294.788353 
L 267.991209 294.940204 
L 268.07049 294.777916 
L 268.14977 294.866043 
L 268.308332 294.978744 
L 268.466893 294.797414 
L 268.625455 294.91083 
L 268.942577 294.944777 
L 269.101139 294.738626 
L 269.18042 294.96425 
L 269.2597 294.808397 
L 269.418262 294.919612 
L 269.576823 294.893056 
L 269.735385 294.943232 
L 269.814665 294.818168 
L 269.893946 294.97169 
L 269.973227 294.925742 
L 270.131788 294.769407 
L 270.528192 295.026675 
L 270.607473 294.903618 
L 270.766034 295.004931 
L 270.924595 294.936851 
L 271.003876 294.985754 
L 271.083157 294.833314 
L 271.162438 295.09158 
L 271.241718 294.996327 
L 271.40028 295.051872 
L 271.47956 294.859102 
L 271.558841 294.934449 
L 271.717403 295.030997 
L 271.796683 295.024802 
L 271.875964 294.86715 
L 272.034525 294.968212 
L 272.113806 294.906625 
L 272.193087 294.991986 
L 272.272368 294.903922 
L 272.351648 295.022659 
L 272.430929 294.955585 
L 272.589491 294.840307 
L 272.668771 295.056852 
L 272.748052 294.991581 
L 273.144456 295.039114 
L 273.223736 294.876935 
L 273.303017 294.962818 
L 273.937263 295.058096 
L 274.095824 294.839944 
L 274.175105 294.972988 
L 274.254386 295.087361 
L 274.333666 294.949843 
L 274.412947 295.021061 
L 274.809351 295.065508 
L 274.967912 295.044706 
L 275.285035 294.896121 
L 275.364316 295.061406 
L 275.443596 294.988941 
L 275.522877 294.869903 
L 275.602158 295.008449 
L 275.681439 294.930169 
L 275.919281 295.093268 
L 275.998561 295.042788 
L 276.077842 295.150903 
L 276.157123 295.089353 
L 276.553526 295.044507 
L 276.791369 295.032316 
L 276.94993 295.028277 
L 277.187772 295.093966 
L 277.346334 294.96618 
L 277.663457 295.060232 
L 277.742737 295.000101 
L 277.822018 295.106215 
L 277.980579 295.046859 
L 278.614825 295.109739 
L 278.694106 294.979797 
L 278.773387 295.039114 
L 279.566194 295.06409 
L 279.645475 295.005531 
L 279.804036 295.115192 
L 279.883317 295.024259 
L 280.041878 295.155488 
L 280.20044 295.012555 
L 280.359001 295.092861 
L 280.438282 295.039114 
L 280.596843 295.136439 
L 280.755405 295.021968 
L 280.913966 295.161886 
L 280.993247 295.025836 
L 281.072527 295.094511 
L 281.231089 295.153902 
L 281.31037 295.12819 
L 281.468931 295.188212 
L 281.786054 295.063523 
L 281.865335 295.209559 
L 282.023896 295.088389 
L 282.261738 295.099633 
L 282.4203 295.195353 
L 282.658142 295.133183 
L 282.737423 295.190856 
L 282.975265 295.085699 
L 283.292388 295.182924 
L 283.688791 295.107518 
L 283.768072 295.194678 
L 283.926633 295.030348 
L 284.402318 295.171893 
L 284.481598 295.073744 
L 284.64016 295.237408 
L 284.719441 295.132635 
L 284.798721 295.200379 
L 285.432967 295.083069 
L 285.670809 295.247142 
L 285.908651 295.144403 
L 286.701459 295.135456 
L 286.86002 295.245591 
L 287.097862 295.225246 
L 287.414985 295.189807 
L 310.802797 295.38028 
L 354.010789 295.473283 
L 398.487273 295.488 
L 398.487273 295.488 
" clip-path="url(#pe460c5bfaa)" style="fill: none; stroke: #1f77b4; stroke-width: 1.5; stroke-linecap: square"/>
   </g>
   <g id="line2d_13">
    <path d="M 73.832727 249.051553 
L 80.571588 252.382519 
L 87.469011 255.544581 
L 94.604276 258.571811 
L 101.977383 261.459144 
L 109.667612 264.230278 
L 115.217263 266.03077 
L 116.802877 266.33851 
L 117.754246 266.313867 
L 118.467772 266.091781 
L 119.102018 265.667514 
L 119.736264 264.944583 
L 120.370509 263.826335 
L 121.004755 262.207848 
L 121.639001 259.986741 
L 122.352527 256.664052 
L 123.145335 251.88196 
L 124.096703 244.725938 
L 125.92016 228.76312 
L 127.03009 220.203073 
L 127.743616 216.318863 
L 128.219301 214.703565 
L 128.615704 214.029977 
L 128.853546 213.932744 
L 129.091389 214.068773 
L 129.408511 214.611082 
L 129.804915 215.853428 
L 130.280599 218.118632 
L 130.914845 222.278278 
L 131.866214 230.275707 
L 134.72032 255.552428 
L 135.671688 261.575918 
L 136.543776 265.666397 
L 137.336583 268.332439 
L 138.05011 270.036582 
L 138.763636 271.236413 
L 139.556444 272.142825 
L 140.428531 272.793878 
L 141.459181 273.281253 
L 142.806953 273.656719 
L 144.075445 273.796143 
L 145.026813 273.702307 
L 145.81962 273.402438 
L 146.453866 272.93809 
L 147.088112 272.187256 
L 147.722358 271.044347 
L 148.356603 269.377399 
L 148.990849 267.027358 
L 149.625095 263.809997 
L 150.338621 258.899462 
L 151.052148 252.329507 
L 151.844955 242.730903 
L 152.637762 230.402227 
L 153.589131 211.778532 
L 154.699061 185.032819 
L 156.284675 140.410166 
L 158.108132 90.292666 
L 158.98022 71.671841 
L 159.693746 60.826715 
L 160.248711 55.658118 
L 160.645115 53.863207 
L 160.882957 53.568 
L 161.041518 53.699304 
L 161.279361 54.387544 
L 161.596484 56.213182 
L 161.992887 59.917357 
L 162.547852 67.608684 
L 163.261379 81.307488 
L 164.212747 104.750298 
L 165.877642 152.804435 
L 167.621818 200.757405 
L 168.731748 225.502282 
L 169.683117 242.219657 
L 170.555205 253.986334 
L 171.348012 262.050913 
L 172.140819 268.006616 
L 172.933626 272.268771 
L 173.647153 274.984023 
L 174.360679 276.901593 
L 175.074206 278.233532 
L 175.867013 279.23082 
L 176.739101 279.939348 
L 177.76975 280.460884 
L 179.117522 280.875992 
L 181.495944 281.33914 
L 188.869051 282.45642 
L 200.999001 284.090742 
L 214.001039 285.615713 
L 227.954446 287.026098 
L 243.097063 288.32972 
L 259.587453 289.522082 
L 277.663457 290.602264 
L 297.721479 291.573646 
L 320.157922 292.433374 
L 345.765594 293.18653 
L 375.416583 293.829982 
L 398.487273 294.203512 
L 398.487273 294.203512 
" clip-path="url(#pe460c5bfaa)" style="fill: none; stroke: #ff7f0e; stroke-width: 1.5; stroke-linecap: square"/>
   </g>
   <g id="patch_3">
    <path d="M 57.6 307.584 
L 57.6 41.472 
" style="fill: none; stroke: #000000; stroke-width: 0.8; stroke-linejoin: miter; stroke-linecap: square"/>
   </g>
   <g id="patch_4">
    <path d="M 414.72 307.584 
L 414.72 41.472 
" style="fill: none; stroke: #000000; stroke-width: 0.8; stroke-linejoin: miter; stroke-linecap: square"/>
   </g>
   <g id="patch_5">
    <path d="M 57.6 307.584 
L 414.72 307.584 
" style="fill: none; stroke: #000000; stroke-width: 0.8; stroke-linejoin: miter; stroke-linecap: square"/>
   </g>
   <g id="patch_6">
    <path d="M 57.6 41.472 
L 414.72 41.472 
" style="fill: none; stroke: #000000; stroke-width: 0.8; stroke-linejoin: miter; stroke-linecap: square"/>
   </g>
   <g id="text_14">
    <!-- Spectra comparison -->
    <g transform="translate(176.115 35.472) scale(0.12 -0.12)">
     <defs>
      <path id="DejaVuSans-53" d="M 3425 4513 
L 3425 3897 
Q 3066 4069 2747 4153 
Q 2428 4238 2131 4238 
Q 1616 4238 1336 4038 
Q 1056 3838 1056 3469 
Q 1056 3159 1242 3001 
Q 1428 2844 1947 2747 
L 2328 2669 
Q 3034 2534 3370 2195 
Q 3706 1856 3706 1288 
Q 3706 609 3251 259 
Q 2797 -91 1919 -91 
Q 1588 -91 1214 -16 
Q 841 59 441 206 
L 441 856 
Q 825 641 1194 531 
Q 1563 422 1919 422 
Q 2459 422 2753 634 
Q 3047 847 3047 1241 
Q 3047 1584 2836 1778 
Q 2625 1972 2144 2069 
L 1759 2144 
Q 1053 2284 737 2584 
Q 422 2884 422 3419 
Q 422 4038 858 4394 
Q 1294 4750 2059 4750 
Q 2388 4750 2728 4690 
Q 3069 4631 3425 4513 
z
" transform="scale(0.015625)"/>
      <path id="DejaVuSans-70" d="M 1159 525 
L 1159 -1331 
L 581 -1331 
L 581 3500 
L 1159 3500 
L 1159 2969 
Q 1341 3281 1617 3432 
Q 1894 3584 2278 3584 
Q 2916 3584 3314 3078 
Q 3713 2572 3713 1747 
Q 3713 922 3314 415 
Q 2916 -91 2278 -91 
Q 1894 -91 1617 61 
Q 1341 213 1159 525 
z
M 3116 1747 
Q 3116 2381 2855 2742 
Q 2594 3103 2138 3103 
Q 1681 3103 1420 2742 
Q 1159 2381 1159 1747 
Q 1159 1113 1420 752 
Q 1681 391 2138 391 
Q 2594 391 2855 752 
Q 3116 1113 3116 1747 
z
" transform="scale(0.015625)"/>
      <path id="DejaVuSans-6f" d="M 1959 3097 
Q 1497 3097 1228 2736 
Q 959 2375 959 1747 
Q 959 1119 1226 758 
Q 1494 397 1959 397 
Q 2419 397 2687 759 
Q 2956 1122 2956 1747 
Q 2956 2369 2687 2733 
Q 2419 3097 1959 3097 
z
M 1959 3584 
Q 2709 3584 3137 3096 
Q 3566 2609 3566 1747 
Q 3566 888 3137 398 
Q 2709 -91 1959 -91 
Q 1206 -91 779 398 
Q 353 888 353 1747 
Q 353 2609 779 3096 
Q 1206 3584 1959 3584 
z
" transform="scale(0.015625)"/>
      <path id="DejaVuSans-6d" d="M 3328 2828 
Q 3544 3216 3844 3400 
Q 4144 3584 4550 3584 
Q 5097 3584 5394 3201 
Q 5691 2819 5691 2113 
L 5691 0 
L 5113 0 
L 5113 2094 
Q 5113 2597 4934 2840 
Q 4756 3084 4391 3084 
Q 3944 3084 3684 2787 
Q 3425 2491 3425 1978 
L 3425 0 
L 2847 0 
L 2847 2094 
Q 2847 2600 2669 2842 
Q 2491 3084 2119 3084 
Q 1678 3084 1418 2786 
Q 1159 2488 1159 1978 
L 1159 0 
L 581 0 
L 581 3500 
L 1159 3500 
L 1159 2956 
Q 1356 3278 1631 3431 
Q 1906 3584 2284 3584 
Q 2666 3584 2933 3390 
Q 3200 3197 3328 2828 
z
" transform="scale(0.015625)"/>
     </defs>
     <use xlink:href="#DejaVuSans-53"/>
     <use xlink:href="#DejaVuSans-70" x="63.476562"/>
     <use xlink:href="#DejaVuSans-65" x="126.953125"/>
     <use xlink:href="#DejaVuSans-63" x="188.476562"/>
     <use xlink:href="#DejaVuSans-74" x="243.457031"/>
     <use xlink:href="#DejaVuSans-72" x="282.666016"/>
     <use xlink:href="#DejaVuSans-61" x="323.779297"/>
     <use xlink:href="#DejaVuSans-20" x="385.058594"/>
     <use xlink:href="#DejaVuSans-63" x="416.845703"/>
     <use xlink:href="#DejaVuSans-6f" x="471.826172"/>
     <use xlink:href="#DejaVuSans-6d" x="533.007812"/>
     <use xlink:href="#DejaVuSans-70" x="630.419922"/>
     <use xlink:href="#DejaVuSans-61" x="693.896484"/>
     <use xlink:href="#DejaVuSans-72" x="755.175781"/>
     <use xlink:href="#DejaVuSans-69" x="796.289062"/>
     <use xlink:href="#DejaVuSans-73" x="824.072266"/>
     <use xlink:href="#DejaVuSans-6f" x="876.171875"/>
     <use xlink:href="#DejaVuSans-6e" x="937.353516"/>
    </g>
   </g>
   <g id="legend_1">
    <g id="patch_7">
     <path d="M 176.4325 78.82825 
L 407.72 78.82825 
Q 409.72 78.82825 409.72 76.82825 
L 409.72 48.472 
Q 409.72 46.472 407.72 46.472 
L 176.4325 46.472 
Q 174.4325 46.472 174.4325 48.472 
L 174.4325 76.82825 
Q 174.4325 78.82825 176.4325 78.82825 
z
" style="fill: #ffffff; opacity: 0.8; stroke: #cccccc; stroke-linejoin: miter"/>
    </g>
    <g id="line2d_14">
     <path d="M 178.4325 54.570437 
L 188.4325 54.570437 
L 198.4325 54.570437 
" style="fill: none; stroke: #1f77b4; stroke-width: 1.5; stroke-linecap: square"/>
    </g>
    <g id="text_15">
     <!-- Preprocessed spectrum of copper PCB -->
     <g transform="translate(206.4325 58.070437) scale(0.1 -0.1)">
      <defs>
       <path id="DejaVuSans-50" d="M 1259 4147 
L 1259 2394 
L 2053 2394 
Q 2494 2394 2734 2622 
Q 2975 2850 2975 3272 
Q 2975 3691 2734 3919 
Q 2494 4147 2053 4147 
L 1259 4147 
z
M 628 4666 
L 2053 4666 
Q 2838 4666 3239 4311 
Q 3641 3956 3641 3272 
Q 3641 2581 3239 2228 
Q 2838 1875 2053 1875 
L 1259 1875 
L 1259 0 
L 628 0 
L 628 4666 
z
" transform="scale(0.015625)"/>
       <path id="DejaVuSans-64" d="M 2906 2969 
L 2906 4863 
L 3481 4863 
L 3481 0 
L 2906 0 
L 2906 525 
Q 2725 213 2448 61 
Q 2172 -91 1784 -91 
Q 1150 -91 751 415 
Q 353 922 353 1747 
Q 353 2572 751 3078 
Q 1150 3584 1784 3584 
Q 2172 3584 2448 3432 
Q 2725 3281 2906 2969 
z
M 947 1747 
Q 947 1113 1208 752 
Q 1469 391 1925 391 
Q 2381 391 2643 752 
Q 2906 1113 2906 1747 
Q 2906 2381 2643 2742 
Q 2381 3103 1925 3103 
Q 1469 3103 1208 2742 
Q 947 2381 947 1747 
z
" transform="scale(0.015625)"/>
       <path id="DejaVuSans-75" d="M 544 1381 
L 544 3500 
L 1119 3500 
L 1119 1403 
Q 1119 906 1312 657 
Q 1506 409 1894 409 
Q 2359 409 2629 706 
Q 2900 1003 2900 1516 
L 2900 3500 
L 3475 3500 
L 3475 0 
L 2900 0 
L 2900 538 
Q 2691 219 2414 64 
Q 2138 -91 1772 -91 
Q 1169 -91 856 284 
Q 544 659 544 1381 
z
M 1991 3584 
L 1991 3584 
z
" transform="scale(0.015625)"/>
       <path id="DejaVuSans-66" d="M 2375 4863 
L 2375 4384 
L 1825 4384 
Q 1516 4384 1395 4259 
Q 1275 4134 1275 3809 
L 1275 3500 
L 2222 3500 
L 2222 3053 
L 1275 3053 
L 1275 0 
L 697 0 
L 697 3053 
L 147 3053 
L 147 3500 
L 697 3500 
L 697 3744 
Q 697 4328 969 4595 
Q 1241 4863 1831 4863 
L 2375 4863 
z
" transform="scale(0.015625)"/>
       <path id="DejaVuSans-43" d="M 4122 4306 
L 4122 3641 
Q 3803 3938 3442 4084 
Q 3081 4231 2675 4231 
Q 1875 4231 1450 3742 
Q 1025 3253 1025 2328 
Q 1025 1406 1450 917 
Q 1875 428 2675 428 
Q 3081 428 3442 575 
Q 3803 722 4122 1019 
L 4122 359 
Q 3791 134 3420 21 
Q 3050 -91 2638 -91 
Q 1578 -91 968 557 
Q 359 1206 359 2328 
Q 359 3453 968 4101 
Q 1578 4750 2638 4750 
Q 3056 4750 3426 4639 
Q 3797 4528 4122 4306 
z
" transform="scale(0.015625)"/>
       <path id="DejaVuSans-42" d="M 1259 2228 
L 1259 519 
L 2272 519 
Q 2781 519 3026 730 
Q 3272 941 3272 1375 
Q 3272 1813 3026 2020 
Q 2781 2228 2272 2228 
L 1259 2228 
z
M 1259 4147 
L 1259 2741 
L 2194 2741 
Q 2656 2741 2882 2914 
Q 3109 3088 3109 3444 
Q 3109 3797 2882 3972 
Q 2656 4147 2194 4147 
L 1259 4147 
z
M 628 4666 
L 2241 4666 
Q 2963 4666 3353 4366 
Q 3744 4066 3744 3513 
Q 3744 3084 3544 2831 
Q 3344 2578 2956 2516 
Q 3422 2416 3680 2098 
Q 3938 1781 3938 1306 
Q 3938 681 3513 340 
Q 3088 0 2303 0 
L 628 0 
L 628 4666 
z
" transform="scale(0.015625)"/>
      </defs>
      <use xlink:href="#DejaVuSans-50"/>
      <use xlink:href="#DejaVuSans-72" x="58.552734"/>
      <use xlink:href="#DejaVuSans-65" x="97.416016"/>
      <use xlink:href="#DejaVuSans-70" x="158.939453"/>
      <use xlink:href="#DejaVuSans-72" x="222.416016"/>
      <use xlink:href="#DejaVuSans-6f" x="261.279297"/>
      <use xlink:href="#DejaVuSans-63" x="322.460938"/>
      <use xlink:href="#DejaVuSans-65" x="377.441406"/>
      <use xlink:href="#DejaVuSans-73" x="438.964844"/>
      <use xlink:href="#DejaVuSans-73" x="491.064453"/>
      <use xlink:href="#DejaVuSans-65" x="543.164062"/>
      <use xlink:href="#DejaVuSans-64" x="604.6875"/>
      <use xlink:href="#DejaVuSans-20" x="668.164062"/>
      <use xlink:href="#DejaVuSans-73" x="699.951172"/>
      <use xlink:href="#DejaVuSans-70" x="752.050781"/>
      <use xlink:href="#DejaVuSans-65" x="815.527344"/>
      <use xlink:href="#DejaVuSans-63" x="877.050781"/>
      <use xlink:href="#DejaVuSans-74" x="932.03125"/>
      <use xlink:href="#DejaVuSans-72" x="971.240234"/>
      <use xlink:href="#DejaVuSans-75" x="1012.353516"/>
      <use xlink:href="#DejaVuSans-6d" x="1075.732422"/>
      <use xlink:href="#DejaVuSans-20" x="1173.144531"/>
      <use xlink:href="#DejaVuSans-6f" x="1204.931641"/>
      <use xlink:href="#DejaVuSans-66" x="1266.113281"/>
      <use xlink:href="#DejaVuSans-20" x="1301.318359"/>
      <use xlink:href="#DejaVuSans-63" x="1333.105469"/>
      <use xlink:href="#DejaVuSans-6f" x="1388.085938"/>
      <use xlink:href="#DejaVuSans-70" x="1449.267578"/>
      <use xlink:href="#DejaVuSans-70" x="1512.744141"/>
      <use xlink:href="#DejaVuSans-65" x="1576.220703"/>
      <use xlink:href="#DejaVuSans-72" x="1637.744141"/>
      <use xlink:href="#DejaVuSans-20" x="1678.857422"/>
      <use xlink:href="#DejaVuSans-50" x="1710.644531"/>
      <use xlink:href="#DejaVuSans-43" x="1770.947266"/>
      <use xlink:href="#DejaVuSans-42" x="1840.771484"/>
     </g>
    </g>
    <g id="line2d_15">
     <path d="M 178.4325 69.248562 
L 188.4325 69.248562 
L 198.4325 69.248562 
" style="fill: none; stroke: #ff7f0e; stroke-width: 1.5; stroke-linecap: square"/>
    </g>
    <g id="text_16">
     <!-- Example of generated copper spectrum -->
     <g transform="translate(206.4325 72.748562) scale(0.1 -0.1)">
      <defs>
       <path id="DejaVuSans-78" d="M 3513 3500 
L 2247 1797 
L 3578 0 
L 2900 0 
L 1881 1375 
L 863 0 
L 184 0 
L 1544 1831 
L 300 3500 
L 978 3500 
L 1906 2253 
L 2834 3500 
L 3513 3500 
z
" transform="scale(0.015625)"/>
      </defs>
      <use xlink:href="#DejaVuSans-45"/>
      <use xlink:href="#DejaVuSans-78" x="63.183594"/>
      <use xlink:href="#DejaVuSans-61" x="122.363281"/>
      <use xlink:href="#DejaVuSans-6d" x="183.642578"/>
      <use xlink:href="#DejaVuSans-70" x="281.054688"/>
      <use xlink:href="#DejaVuSans-6c" x="344.53125"/>
      <use xlink:href="#DejaVuSans-65" x="372.314453"/>
      <use xlink:href="#DejaVuSans-20" x="433.837891"/>
      <use xlink:href="#DejaVuSans-6f" x="465.625"/>
      <use xlink:href="#DejaVuSans-66" x="526.806641"/>
      <use xlink:href="#DejaVuSans-20" x="562.011719"/>
      <use xlink:href="#DejaVuSans-67" x="593.798828"/>
      <use xlink:href="#DejaVuSans-65" x="657.275391"/>
      <use xlink:href="#DejaVuSans-6e" x="718.798828"/>
      <use xlink:href="#DejaVuSans-65" x="782.177734"/>
      <use xlink:href="#DejaVuSans-72" x="843.701172"/>
      <use xlink:href="#DejaVuSans-61" x="884.814453"/>
      <use xlink:href="#DejaVuSans-74" x="946.09375"/>
      <use xlink:href="#DejaVuSans-65" x="985.302734"/>
      <use xlink:href="#DejaVuSans-64" x="1046.826172"/>
      <use xlink:href="#DejaVuSans-20" x="1110.302734"/>
      <use xlink:href="#DejaVuSans-63" x="1142.089844"/>
      <use xlink:href="#DejaVuSans-6f" x="1197.070312"/>
      <use xlink:href="#DejaVuSans-70" x="1258.251953"/>
      <use xlink:href="#DejaVuSans-70" x="1321.728516"/>
      <use xlink:href="#DejaVuSans-65" x="1385.205078"/>
      <use xlink:href="#DejaVuSans-72" x="1446.728516"/>
      <use xlink:href="#DejaVuSans-20" x="1487.841797"/>
      <use xlink:href="#DejaVuSans-73" x="1519.628906"/>
      <use xlink:href="#DejaVuSans-70" x="1571.728516"/>
      <use xlink:href="#DejaVuSans-65" x="1635.205078"/>
      <use xlink:href="#DejaVuSans-63" x="1696.728516"/>
      <use xlink:href="#DejaVuSans-74" x="1751.708984"/>
      <use xlink:href="#DejaVuSans-72" x="1790.917969"/>
      <use xlink:href="#DejaVuSans-75" x="1832.03125"/>
      <use xlink:href="#DejaVuSans-6d" x="1895.410156"/>
     </g>
    </g>
   </g>
  </g>
 </g>
 <defs>
  <clipPath id="pe460c5bfaa">
   <rect x="57.6" y="41.472" width="357.12" height="266.112"/>
  </clipPath>
 </defs>
</svg>
