<?xml version="1.0" encoding="utf-8" standalone="no"?>
<!DOCTYPE svg PUBLIC "-//W3C//DTD SVG 1.1//EN"
  "http://www.w3.org/Graphics/SVG/1.1/DTD/svg11.dtd">
<svg xmlns:xlink="http://www.w3.org/1999/xlink" width="460.8pt" height="345.6pt" viewBox="0 0 460.8 345.6" xmlns="http://www.w3.org/2000/svg" version="1.1">
 <metadata>
  <rdf:RDF xmlns:dc="http://purl.org/dc/elements/1.1/" xmlns:cc="http://creativecommons.org/ns#" xmlns:rdf="http://www.w3.org/1999/02/22-rdf-syntax-ns#">
   <cc:Work>
    <dc:type rdf:resource="http://purl.org/dc/dcmitype/StillImage"/>
    <dc:date>2023-12-18T00:34:22.270740</dc:date>
    <dc:format>image/svg+xml</dc:format>
    <dc:creator>
     <cc:Agent>
      <dc:title>Matplotlib v3.7.1, https://matplotlib.org/</dc:title>
     </cc:Agent>
    </dc:creator>
   </cc:Work>
  </rdf:RDF>
 </metadata>
 <defs>
  <style type="text/css">*{stroke-linejoin: round; stroke-linecap: butt}</style>
 </defs>
 <g id="figure_1">
  <g id="patch_1">
   <path d="M 0 345.6 
L 460.8 345.6 
L 460.8 0 
L 0 0 
z
" style="fill: #ffffff"/>
  </g>
  <g id="axes_1">
   <g id="patch_2">
    <path d="M 57.6 307.584 
L 414.72 307.584 
L 414.72 41.472 
L 57.6 41.472 
z
" style="fill: #ffffff"/>
   </g>
   <g id="matplotlib.axis_1">
    <g id="xtick_1">
     <g id="line2d_1">
      <path d="M 73.832727 307.584 
L 73.832727 41.472 
" clip-path="url(#p5412cc793e)" style="fill: none; stroke: #b0b0b0; stroke-width: 0.8; stroke-linecap: square"/>
     </g>
     <g id="line2d_2">
      <defs>
       <path id="mdfc381c132" d="M 0 0 
L 0 3.5 
" style="stroke: #000000; stroke-width: 0.8"/>
      </defs>
      <g>
       <use xlink:href="#mdfc381c132" x="73.832727" y="307.584" style="stroke: #000000; stroke-width: 0.8"/>
      </g>
     </g>
     <g id="text_1">
      <!-- 0 -->
      <g transform="translate(70.651477 322.182437) scale(0.1 -0.1)">
       <defs>
        <path id="DejaVuSans-30" d="M 2034 4250 
Q 1547 4250 1301 3770 
Q 1056 3291 1056 2328 
Q 1056 1369 1301 889 
Q 1547 409 2034 409 
Q 2525 409 2770 889 
Q 3016 1369 3016 2328 
Q 3016 3291 2770 3770 
Q 2525 4250 2034 4250 
z
M 2034 4750 
Q 2819 4750 3233 4129 
Q 3647 3509 3647 2328 
Q 3647 1150 3233 529 
Q 2819 -91 2034 -91 
Q 1250 -91 836 529 
Q 422 1150 422 2328 
Q 422 3509 836 4129 
Q 1250 4750 2034 4750 
z
" transform="scale(0.015625)"/>
       </defs>
       <use xlink:href="#DejaVuSans-30"/>
      </g>
     </g>
    </g>
    <g id="xtick_2">
     <g id="line2d_3">
      <path d="M 127.941818 307.584 
L 127.941818 41.472 
" clip-path="url(#p5412cc793e)" style="fill: none; stroke: #b0b0b0; stroke-width: 0.8; stroke-linecap: square"/>
     </g>
     <g id="line2d_4">
      <g>
       <use xlink:href="#mdfc381c132" x="127.941818" y="307.584" style="stroke: #000000; stroke-width: 0.8"/>
      </g>
     </g>
     <g id="text_2">
      <!-- 5 -->
      <g transform="translate(124.760568 322.182437) scale(0.1 -0.1)">
       <defs>
        <path id="DejaVuSans-35" d="M 691 4666 
L 3169 4666 
L 3169 4134 
L 1269 4134 
L 1269 2991 
Q 1406 3038 1543 3061 
Q 1681 3084 1819 3084 
Q 2600 3084 3056 2656 
Q 3513 2228 3513 1497 
Q 3513 744 3044 326 
Q 2575 -91 1722 -91 
Q 1428 -91 1123 -41 
Q 819 9 494 109 
L 494 744 
Q 775 591 1075 516 
Q 1375 441 1709 441 
Q 2250 441 2565 725 
Q 2881 1009 2881 1497 
Q 2881 1984 2565 2268 
Q 2250 2553 1709 2553 
Q 1456 2553 1204 2497 
Q 953 2441 691 2322 
L 691 4666 
z
" transform="scale(0.015625)"/>
       </defs>
       <use xlink:href="#DejaVuSans-35"/>
      </g>
     </g>
    </g>
    <g id="xtick_3">
     <g id="line2d_5">
      <path d="M 182.050909 307.584 
L 182.050909 41.472 
" clip-path="url(#p5412cc793e)" style="fill: none; stroke: #b0b0b0; stroke-width: 0.8; stroke-linecap: square"/>
     </g>
     <g id="line2d_6">
      <g>
       <use xlink:href="#mdfc381c132" x="182.050909" y="307.584" style="stroke: #000000; stroke-width: 0.8"/>
      </g>
     </g>
     <g id="text_3">
      <!-- 10 -->
      <g transform="translate(175.688409 322.182437) scale(0.1 -0.1)">
       <defs>
        <path id="DejaVuSans-31" d="M 794 531 
L 1825 531 
L 1825 4091 
L 703 3866 
L 703 4441 
L 1819 4666 
L 2450 4666 
L 2450 531 
L 3481 531 
L 3481 0 
L 794 0 
L 794 531 
z
" transform="scale(0.015625)"/>
       </defs>
       <use xlink:href="#DejaVuSans-31"/>
       <use xlink:href="#DejaVuSans-30" x="63.623047"/>
      </g>
     </g>
    </g>
    <g id="xtick_4">
     <g id="line2d_7">
      <path d="M 236.16 307.584 
L 236.16 41.472 
" clip-path="url(#p5412cc793e)" style="fill: none; stroke: #b0b0b0; stroke-width: 0.8; stroke-linecap: square"/>
     </g>
     <g id="line2d_8">
      <g>
       <use xlink:href="#mdfc381c132" x="236.16" y="307.584" style="stroke: #000000; stroke-width: 0.8"/>
      </g>
     </g>
     <g id="text_4">
      <!-- 15 -->
      <g transform="translate(229.7975 322.182437) scale(0.1 -0.1)">
       <use xlink:href="#DejaVuSans-31"/>
       <use xlink:href="#DejaVuSans-35" x="63.623047"/>
      </g>
     </g>
    </g>
    <g id="xtick_5">
     <g id="line2d_9">
      <path d="M 290.269091 307.584 
L 290.269091 41.472 
" clip-path="url(#p5412cc793e)" style="fill: none; stroke: #b0b0b0; stroke-width: 0.8; stroke-linecap: square"/>
     </g>
     <g id="line2d_10">
      <g>
       <use xlink:href="#mdfc381c132" x="290.269091" y="307.584" style="stroke: #000000; stroke-width: 0.8"/>
      </g>
     </g>
     <g id="text_5">
      <!-- 20 -->
      <g transform="translate(283.906591 322.182437) scale(0.1 -0.1)">
       <defs>
        <path id="DejaVuSans-32" d="M 1228 531 
L 3431 531 
L 3431 0 
L 469 0 
L 469 531 
Q 828 903 1448 1529 
Q 2069 2156 2228 2338 
Q 2531 2678 2651 2914 
Q 2772 3150 2772 3378 
Q 2772 3750 2511 3984 
Q 2250 4219 1831 4219 
Q 1534 4219 1204 4116 
Q 875 4013 500 3803 
L 500 4441 
Q 881 4594 1212 4672 
Q 1544 4750 1819 4750 
Q 2544 4750 2975 4387 
Q 3406 4025 3406 3419 
Q 3406 3131 3298 2873 
Q 3191 2616 2906 2266 
Q 2828 2175 2409 1742 
Q 1991 1309 1228 531 
z
" transform="scale(0.015625)"/>
       </defs>
       <use xlink:href="#DejaVuSans-32"/>
       <use xlink:href="#DejaVuSans-30" x="63.623047"/>
      </g>
     </g>
    </g>
    <g id="xtick_6">
     <g id="line2d_11">
      <path d="M 344.378182 307.584 
L 344.378182 41.472 
" clip-path="url(#p5412cc793e)" style="fill: none; stroke: #b0b0b0; stroke-width: 0.8; stroke-linecap: square"/>
     </g>
     <g id="line2d_12">
      <g>
       <use xlink:href="#mdfc381c132" x="344.378182" y="307.584" style="stroke: #000000; stroke-width: 0.8"/>
      </g>
     </g>
     <g id="text_6">
      <!-- 25 -->
      <g transform="translate(338.015682 322.182437) scale(0.1 -0.1)">
       <use xlink:href="#DejaVuSans-32"/>
       <use xlink:href="#DejaVuSans-35" x="63.623047"/>
      </g>
     </g>
    </g>
    <g id="xtick_7">
     <g id="line2d_13">
      <path d="M 398.487273 307.584 
L 398.487273 41.472 
" clip-path="url(#p5412cc793e)" style="fill: none; stroke: #b0b0b0; stroke-width: 0.8; stroke-linecap: square"/>
     </g>
     <g id="line2d_14">
      <g>
       <use xlink:href="#mdfc381c132" x="398.487273" y="307.584" style="stroke: #000000; stroke-width: 0.8"/>
      </g>
     </g>
     <g id="text_7">
      <!-- 30 -->
      <g transform="translate(392.124773 322.182437) scale(0.1 -0.1)">
       <defs>
        <path id="DejaVuSans-33" d="M 2597 2516 
Q 3050 2419 3304 2112 
Q 3559 1806 3559 1356 
Q 3559 666 3084 287 
Q 2609 -91 1734 -91 
Q 1441 -91 1130 -33 
Q 819 25 488 141 
L 488 750 
Q 750 597 1062 519 
Q 1375 441 1716 441 
Q 2309 441 2620 675 
Q 2931 909 2931 1356 
Q 2931 1769 2642 2001 
Q 2353 2234 1838 2234 
L 1294 2234 
L 1294 2753 
L 1863 2753 
Q 2328 2753 2575 2939 
Q 2822 3125 2822 3475 
Q 2822 3834 2567 4026 
Q 2313 4219 1838 4219 
Q 1578 4219 1281 4162 
Q 984 4106 628 3988 
L 628 4550 
Q 988 4650 1302 4700 
Q 1616 4750 1894 4750 
Q 2613 4750 3031 4423 
Q 3450 4097 3450 3541 
Q 3450 3153 3228 2886 
Q 3006 2619 2597 2516 
z
" transform="scale(0.015625)"/>
       </defs>
       <use xlink:href="#DejaVuSans-33"/>
       <use xlink:href="#DejaVuSans-30" x="63.623047"/>
      </g>
     </g>
    </g>
    <g id="text_8">
     <!-- Energy [KeV] -->
     <g transform="translate(203.637344 335.860562) scale(0.1 -0.1)">
      <defs>
       <path id="DejaVuSans-45" d="M 628 4666 
L 3578 4666 
L 3578 4134 
L 1259 4134 
L 1259 2753 
L 3481 2753 
L 3481 2222 
L 1259 2222 
L 1259 531 
L 3634 531 
L 3634 0 
L 628 0 
L 628 4666 
z
" transform="scale(0.015625)"/>
       <path id="DejaVuSans-6e" d="M 3513 2113 
L 3513 0 
L 2938 0 
L 2938 2094 
Q 2938 2591 2744 2837 
Q 2550 3084 2163 3084 
Q 1697 3084 1428 2787 
Q 1159 2491 1159 1978 
L 1159 0 
L 581 0 
L 581 3500 
L 1159 3500 
L 1159 2956 
Q 1366 3272 1645 3428 
Q 1925 3584 2291 3584 
Q 2894 3584 3203 3211 
Q 3513 2838 3513 2113 
z
" transform="scale(0.015625)"/>
       <path id="DejaVuSans-65" d="M 3597 1894 
L 3597 1613 
L 953 1613 
Q 991 1019 1311 708 
Q 1631 397 2203 397 
Q 2534 397 2845 478 
Q 3156 559 3463 722 
L 3463 178 
Q 3153 47 2828 -22 
Q 2503 -91 2169 -91 
Q 1331 -91 842 396 
Q 353 884 353 1716 
Q 353 2575 817 3079 
Q 1281 3584 2069 3584 
Q 2775 3584 3186 3129 
Q 3597 2675 3597 1894 
z
M 3022 2063 
Q 3016 2534 2758 2815 
Q 2500 3097 2075 3097 
Q 1594 3097 1305 2825 
Q 1016 2553 972 2059 
L 3022 2063 
z
" transform="scale(0.015625)"/>
       <path id="DejaVuSans-72" d="M 2631 2963 
Q 2534 3019 2420 3045 
Q 2306 3072 2169 3072 
Q 1681 3072 1420 2755 
Q 1159 2438 1159 1844 
L 1159 0 
L 581 0 
L 581 3500 
L 1159 3500 
L 1159 2956 
Q 1341 3275 1631 3429 
Q 1922 3584 2338 3584 
Q 2397 3584 2469 3576 
Q 2541 3569 2628 3553 
L 2631 2963 
z
" transform="scale(0.015625)"/>
       <path id="DejaVuSans-67" d="M 2906 1791 
Q 2906 2416 2648 2759 
Q 2391 3103 1925 3103 
Q 1463 3103 1205 2759 
Q 947 2416 947 1791 
Q 947 1169 1205 825 
Q 1463 481 1925 481 
Q 2391 481 2648 825 
Q 2906 1169 2906 1791 
z
M 3481 434 
Q 3481 -459 3084 -895 
Q 2688 -1331 1869 -1331 
Q 1566 -1331 1297 -1286 
Q 1028 -1241 775 -1147 
L 775 -588 
Q 1028 -725 1275 -790 
Q 1522 -856 1778 -856 
Q 2344 -856 2625 -561 
Q 2906 -266 2906 331 
L 2906 616 
Q 2728 306 2450 153 
Q 2172 0 1784 0 
Q 1141 0 747 490 
Q 353 981 353 1791 
Q 353 2603 747 3093 
Q 1141 3584 1784 3584 
Q 2172 3584 2450 3431 
Q 2728 3278 2906 2969 
L 2906 3500 
L 3481 3500 
L 3481 434 
z
" transform="scale(0.015625)"/>
       <path id="DejaVuSans-79" d="M 2059 -325 
Q 1816 -950 1584 -1140 
Q 1353 -1331 966 -1331 
L 506 -1331 
L 506 -850 
L 844 -850 
Q 1081 -850 1212 -737 
Q 1344 -625 1503 -206 
L 1606 56 
L 191 3500 
L 800 3500 
L 1894 763 
L 2988 3500 
L 3597 3500 
L 2059 -325 
z
" transform="scale(0.015625)"/>
       <path id="DejaVuSans-20" transform="scale(0.015625)"/>
       <path id="DejaVuSans-5b" d="M 550 4863 
L 1875 4863 
L 1875 4416 
L 1125 4416 
L 1125 -397 
L 1875 -397 
L 1875 -844 
L 550 -844 
L 550 4863 
z
" transform="scale(0.015625)"/>
       <path id="DejaVuSans-4b" d="M 628 4666 
L 1259 4666 
L 1259 2694 
L 3353 4666 
L 4166 4666 
L 1850 2491 
L 4331 0 
L 3500 0 
L 1259 2247 
L 1259 0 
L 628 0 
L 628 4666 
z
" transform="scale(0.015625)"/>
       <path id="DejaVuSans-56" d="M 1831 0 
L 50 4666 
L 709 4666 
L 2188 738 
L 3669 4666 
L 4325 4666 
L 2547 0 
L 1831 0 
z
" transform="scale(0.015625)"/>
       <path id="DejaVuSans-5d" d="M 1947 4863 
L 1947 -844 
L 622 -844 
L 622 -397 
L 1369 -397 
L 1369 4416 
L 622 4416 
L 622 4863 
L 1947 4863 
z
" transform="scale(0.015625)"/>
      </defs>
      <use xlink:href="#DejaVuSans-45"/>
      <use xlink:href="#DejaVuSans-6e" x="63.183594"/>
      <use xlink:href="#DejaVuSans-65" x="126.5625"/>
      <use xlink:href="#DejaVuSans-72" x="188.085938"/>
      <use xlink:href="#DejaVuSans-67" x="227.449219"/>
      <use xlink:href="#DejaVuSans-79" x="290.925781"/>
      <use xlink:href="#DejaVuSans-20" x="350.105469"/>
      <use xlink:href="#DejaVuSans-5b" x="381.892578"/>
      <use xlink:href="#DejaVuSans-4b" x="420.90625"/>
      <use xlink:href="#DejaVuSans-65" x="481.482422"/>
      <use xlink:href="#DejaVuSans-56" x="543.005859"/>
      <use xlink:href="#DejaVuSans-5d" x="611.414062"/>
     </g>
    </g>
   </g>
   <g id="matplotlib.axis_2">
    <g id="ytick_1">
     <g id="line2d_15">
      <path d="M 57.6 296.451681 
L 414.72 296.451681 
" clip-path="url(#p5412cc793e)" style="fill: none; stroke: #b0b0b0; stroke-width: 0.8; stroke-linecap: square"/>
     </g>
     <g id="line2d_16">
      <defs>
       <path id="m44470a5e7f" d="M 0 0 
L -3.5 0 
" style="stroke: #000000; stroke-width: 0.8"/>
      </defs>
      <g>
       <use xlink:href="#m44470a5e7f" x="57.6" y="296.451681" style="stroke: #000000; stroke-width: 0.8"/>
      </g>
     </g>
     <g id="text_9">
      <!-- 0.0 -->
      <g transform="translate(34.696875 300.250899) scale(0.1 -0.1)">
       <defs>
        <path id="DejaVuSans-2e" d="M 684 794 
L 1344 794 
L 1344 0 
L 684 0 
L 684 794 
z
" transform="scale(0.015625)"/>
       </defs>
       <use xlink:href="#DejaVuSans-30"/>
       <use xlink:href="#DejaVuSans-2e" x="63.623047"/>
       <use xlink:href="#DejaVuSans-30" x="95.410156"/>
      </g>
     </g>
    </g>
    <g id="ytick_2">
     <g id="line2d_17">
      <path d="M 57.6 247.874944 
L 414.72 247.874944 
" clip-path="url(#p5412cc793e)" style="fill: none; stroke: #b0b0b0; stroke-width: 0.8; stroke-linecap: square"/>
     </g>
     <g id="line2d_18">
      <g>
       <use xlink:href="#m44470a5e7f" x="57.6" y="247.874944" style="stroke: #000000; stroke-width: 0.8"/>
      </g>
     </g>
     <g id="text_10">
      <!-- 0.2 -->
      <g transform="translate(34.696875 251.674163) scale(0.1 -0.1)">
       <use xlink:href="#DejaVuSans-30"/>
       <use xlink:href="#DejaVuSans-2e" x="63.623047"/>
       <use xlink:href="#DejaVuSans-32" x="95.410156"/>
      </g>
     </g>
    </g>
    <g id="ytick_3">
     <g id="line2d_19">
      <path d="M 57.6 199.298208 
L 414.72 199.298208 
" clip-path="url(#p5412cc793e)" style="fill: none; stroke: #b0b0b0; stroke-width: 0.8; stroke-linecap: square"/>
     </g>
     <g id="line2d_20">
      <g>
       <use xlink:href="#m44470a5e7f" x="57.6" y="199.298208" style="stroke: #000000; stroke-width: 0.8"/>
      </g>
     </g>
     <g id="text_11">
      <!-- 0.4 -->
      <g transform="translate(34.696875 203.097427) scale(0.1 -0.1)">
       <defs>
        <path id="DejaVuSans-34" d="M 2419 4116 
L 825 1625 
L 2419 1625 
L 2419 4116 
z
M 2253 4666 
L 3047 4666 
L 3047 1625 
L 3713 1625 
L 3713 1100 
L 3047 1100 
L 3047 0 
L 2419 0 
L 2419 1100 
L 313 1100 
L 313 1709 
L 2253 4666 
z
" transform="scale(0.015625)"/>
       </defs>
       <use xlink:href="#DejaVuSans-30"/>
       <use xlink:href="#DejaVuSans-2e" x="63.623047"/>
       <use xlink:href="#DejaVuSans-34" x="95.410156"/>
      </g>
     </g>
    </g>
    <g id="ytick_4">
     <g id="line2d_21">
      <path d="M 57.6 150.721472 
L 414.72 150.721472 
" clip-path="url(#p5412cc793e)" style="fill: none; stroke: #b0b0b0; stroke-width: 0.8; stroke-linecap: square"/>
     </g>
     <g id="line2d_22">
      <g>
       <use xlink:href="#m44470a5e7f" x="57.6" y="150.721472" style="stroke: #000000; stroke-width: 0.8"/>
      </g>
     </g>
     <g id="text_12">
      <!-- 0.6 -->
      <g transform="translate(34.696875 154.520691) scale(0.1 -0.1)">
       <defs>
        <path id="DejaVuSans-36" d="M 2113 2584 
Q 1688 2584 1439 2293 
Q 1191 2003 1191 1497 
Q 1191 994 1439 701 
Q 1688 409 2113 409 
Q 2538 409 2786 701 
Q 3034 994 3034 1497 
Q 3034 2003 2786 2293 
Q 2538 2584 2113 2584 
z
M 3366 4563 
L 3366 3988 
Q 3128 4100 2886 4159 
Q 2644 4219 2406 4219 
Q 1781 4219 1451 3797 
Q 1122 3375 1075 2522 
Q 1259 2794 1537 2939 
Q 1816 3084 2150 3084 
Q 2853 3084 3261 2657 
Q 3669 2231 3669 1497 
Q 3669 778 3244 343 
Q 2819 -91 2113 -91 
Q 1303 -91 875 529 
Q 447 1150 447 2328 
Q 447 3434 972 4092 
Q 1497 4750 2381 4750 
Q 2619 4750 2861 4703 
Q 3103 4656 3366 4563 
z
" transform="scale(0.015625)"/>
       </defs>
       <use xlink:href="#DejaVuSans-30"/>
       <use xlink:href="#DejaVuSans-2e" x="63.623047"/>
       <use xlink:href="#DejaVuSans-36" x="95.410156"/>
      </g>
     </g>
    </g>
    <g id="ytick_5">
     <g id="line2d_23">
      <path d="M 57.6 102.144736 
L 414.72 102.144736 
" clip-path="url(#p5412cc793e)" style="fill: none; stroke: #b0b0b0; stroke-width: 0.8; stroke-linecap: square"/>
     </g>
     <g id="line2d_24">
      <g>
       <use xlink:href="#m44470a5e7f" x="57.6" y="102.144736" style="stroke: #000000; stroke-width: 0.8"/>
      </g>
     </g>
     <g id="text_13">
      <!-- 0.8 -->
      <g transform="translate(34.696875 105.943955) scale(0.1 -0.1)">
       <defs>
        <path id="DejaVuSans-38" d="M 2034 2216 
Q 1584 2216 1326 1975 
Q 1069 1734 1069 1313 
Q 1069 891 1326 650 
Q 1584 409 2034 409 
Q 2484 409 2743 651 
Q 3003 894 3003 1313 
Q 3003 1734 2745 1975 
Q 2488 2216 2034 2216 
z
M 1403 2484 
Q 997 2584 770 2862 
Q 544 3141 544 3541 
Q 544 4100 942 4425 
Q 1341 4750 2034 4750 
Q 2731 4750 3128 4425 
Q 3525 4100 3525 3541 
Q 3525 3141 3298 2862 
Q 3072 2584 2669 2484 
Q 3125 2378 3379 2068 
Q 3634 1759 3634 1313 
Q 3634 634 3220 271 
Q 2806 -91 2034 -91 
Q 1263 -91 848 271 
Q 434 634 434 1313 
Q 434 1759 690 2068 
Q 947 2378 1403 2484 
z
M 1172 3481 
Q 1172 3119 1398 2916 
Q 1625 2713 2034 2713 
Q 2441 2713 2670 2916 
Q 2900 3119 2900 3481 
Q 2900 3844 2670 4047 
Q 2441 4250 2034 4250 
Q 1625 4250 1398 4047 
Q 1172 3844 1172 3481 
z
" transform="scale(0.015625)"/>
       </defs>
       <use xlink:href="#DejaVuSans-30"/>
       <use xlink:href="#DejaVuSans-2e" x="63.623047"/>
       <use xlink:href="#DejaVuSans-38" x="95.410156"/>
      </g>
     </g>
    </g>
    <g id="ytick_6">
     <g id="line2d_25">
      <path d="M 57.6 53.568 
L 414.72 53.568 
" clip-path="url(#p5412cc793e)" style="fill: none; stroke: #b0b0b0; stroke-width: 0.8; stroke-linecap: square"/>
     </g>
     <g id="line2d_26">
      <g>
       <use xlink:href="#m44470a5e7f" x="57.6" y="53.568" style="stroke: #000000; stroke-width: 0.8"/>
      </g>
     </g>
     <g id="text_14">
      <!-- 1.0 -->
      <g transform="translate(34.696875 57.367219) scale(0.1 -0.1)">
       <use xlink:href="#DejaVuSans-31"/>
       <use xlink:href="#DejaVuSans-2e" x="63.623047"/>
       <use xlink:href="#DejaVuSans-30" x="95.410156"/>
      </g>
     </g>
    </g>
    <g id="text_15">
     <!-- Normalized intensity [-] -->
     <g transform="translate(28.617187 233.443625) rotate(-90) scale(0.1 -0.1)">
      <defs>
       <path id="DejaVuSans-4e" d="M 628 4666 
L 1478 4666 
L 3547 763 
L 3547 4666 
L 4159 4666 
L 4159 0 
L 3309 0 
L 1241 3903 
L 1241 0 
L 628 0 
L 628 4666 
z
" transform="scale(0.015625)"/>
       <path id="DejaVuSans-6f" d="M 1959 3097 
Q 1497 3097 1228 2736 
Q 959 2375 959 1747 
Q 959 1119 1226 758 
Q 1494 397 1959 397 
Q 2419 397 2687 759 
Q 2956 1122 2956 1747 
Q 2956 2369 2687 2733 
Q 2419 3097 1959 3097 
z
M 1959 3584 
Q 2709 3584 3137 3096 
Q 3566 2609 3566 1747 
Q 3566 888 3137 398 
Q 2709 -91 1959 -91 
Q 1206 -91 779 398 
Q 353 888 353 1747 
Q 353 2609 779 3096 
Q 1206 3584 1959 3584 
z
" transform="scale(0.015625)"/>
       <path id="DejaVuSans-6d" d="M 3328 2828 
Q 3544 3216 3844 3400 
Q 4144 3584 4550 3584 
Q 5097 3584 5394 3201 
Q 5691 2819 5691 2113 
L 5691 0 
L 5113 0 
L 5113 2094 
Q 5113 2597 4934 2840 
Q 4756 3084 4391 3084 
Q 3944 3084 3684 2787 
Q 3425 2491 3425 1978 
L 3425 0 
L 2847 0 
L 2847 2094 
Q 2847 2600 2669 2842 
Q 2491 3084 2119 3084 
Q 1678 3084 1418 2786 
Q 1159 2488 1159 1978 
L 1159 0 
L 581 0 
L 581 3500 
L 1159 3500 
L 1159 2956 
Q 1356 3278 1631 3431 
Q 1906 3584 2284 3584 
Q 2666 3584 2933 3390 
Q 3200 3197 3328 2828 
z
" transform="scale(0.015625)"/>
       <path id="DejaVuSans-61" d="M 2194 1759 
Q 1497 1759 1228 1600 
Q 959 1441 959 1056 
Q 959 750 1161 570 
Q 1363 391 1709 391 
Q 2188 391 2477 730 
Q 2766 1069 2766 1631 
L 2766 1759 
L 2194 1759 
z
M 3341 1997 
L 3341 0 
L 2766 0 
L 2766 531 
Q 2569 213 2275 61 
Q 1981 -91 1556 -91 
Q 1019 -91 701 211 
Q 384 513 384 1019 
Q 384 1609 779 1909 
Q 1175 2209 1959 2209 
L 2766 2209 
L 2766 2266 
Q 2766 2663 2505 2880 
Q 2244 3097 1772 3097 
Q 1472 3097 1187 3025 
Q 903 2953 641 2809 
L 641 3341 
Q 956 3463 1253 3523 
Q 1550 3584 1831 3584 
Q 2591 3584 2966 3190 
Q 3341 2797 3341 1997 
z
" transform="scale(0.015625)"/>
       <path id="DejaVuSans-6c" d="M 603 4863 
L 1178 4863 
L 1178 0 
L 603 0 
L 603 4863 
z
" transform="scale(0.015625)"/>
       <path id="DejaVuSans-69" d="M 603 3500 
L 1178 3500 
L 1178 0 
L 603 0 
L 603 3500 
z
M 603 4863 
L 1178 4863 
L 1178 4134 
L 603 4134 
L 603 4863 
z
" transform="scale(0.015625)"/>
       <path id="DejaVuSans-7a" d="M 353 3500 
L 3084 3500 
L 3084 2975 
L 922 459 
L 3084 459 
L 3084 0 
L 275 0 
L 275 525 
L 2438 3041 
L 353 3041 
L 353 3500 
z
" transform="scale(0.015625)"/>
       <path id="DejaVuSans-64" d="M 2906 2969 
L 2906 4863 
L 3481 4863 
L 3481 0 
L 2906 0 
L 2906 525 
Q 2725 213 2448 61 
Q 2172 -91 1784 -91 
Q 1150 -91 751 415 
Q 353 922 353 1747 
Q 353 2572 751 3078 
Q 1150 3584 1784 3584 
Q 2172 3584 2448 3432 
Q 2725 3281 2906 2969 
z
M 947 1747 
Q 947 1113 1208 752 
Q 1469 391 1925 391 
Q 2381 391 2643 752 
Q 2906 1113 2906 1747 
Q 2906 2381 2643 2742 
Q 2381 3103 1925 3103 
Q 1469 3103 1208 2742 
Q 947 2381 947 1747 
z
" transform="scale(0.015625)"/>
       <path id="DejaVuSans-74" d="M 1172 4494 
L 1172 3500 
L 2356 3500 
L 2356 3053 
L 1172 3053 
L 1172 1153 
Q 1172 725 1289 603 
Q 1406 481 1766 481 
L 2356 481 
L 2356 0 
L 1766 0 
Q 1100 0 847 248 
Q 594 497 594 1153 
L 594 3053 
L 172 3053 
L 172 3500 
L 594 3500 
L 594 4494 
L 1172 4494 
z
" transform="scale(0.015625)"/>
       <path id="DejaVuSans-73" d="M 2834 3397 
L 2834 2853 
Q 2591 2978 2328 3040 
Q 2066 3103 1784 3103 
Q 1356 3103 1142 2972 
Q 928 2841 928 2578 
Q 928 2378 1081 2264 
Q 1234 2150 1697 2047 
L 1894 2003 
Q 2506 1872 2764 1633 
Q 3022 1394 3022 966 
Q 3022 478 2636 193 
Q 2250 -91 1575 -91 
Q 1294 -91 989 -36 
Q 684 19 347 128 
L 347 722 
Q 666 556 975 473 
Q 1284 391 1588 391 
Q 1994 391 2212 530 
Q 2431 669 2431 922 
Q 2431 1156 2273 1281 
Q 2116 1406 1581 1522 
L 1381 1569 
Q 847 1681 609 1914 
Q 372 2147 372 2553 
Q 372 3047 722 3315 
Q 1072 3584 1716 3584 
Q 2034 3584 2315 3537 
Q 2597 3491 2834 3397 
z
" transform="scale(0.015625)"/>
       <path id="DejaVuSans-2d" d="M 313 2009 
L 1997 2009 
L 1997 1497 
L 313 1497 
L 313 2009 
z
" transform="scale(0.015625)"/>
      </defs>
      <use xlink:href="#DejaVuSans-4e"/>
      <use xlink:href="#DejaVuSans-6f" x="74.804688"/>
      <use xlink:href="#DejaVuSans-72" x="135.986328"/>
      <use xlink:href="#DejaVuSans-6d" x="175.349609"/>
      <use xlink:href="#DejaVuSans-61" x="272.761719"/>
      <use xlink:href="#DejaVuSans-6c" x="334.041016"/>
      <use xlink:href="#DejaVuSans-69" x="361.824219"/>
      <use xlink:href="#DejaVuSans-7a" x="389.607422"/>
      <use xlink:href="#DejaVuSans-65" x="442.097656"/>
      <use xlink:href="#DejaVuSans-64" x="503.621094"/>
      <use xlink:href="#DejaVuSans-20" x="567.097656"/>
      <use xlink:href="#DejaVuSans-69" x="598.884766"/>
      <use xlink:href="#DejaVuSans-6e" x="626.667969"/>
      <use xlink:href="#DejaVuSans-74" x="690.046875"/>
      <use xlink:href="#DejaVuSans-65" x="729.255859"/>
      <use xlink:href="#DejaVuSans-6e" x="790.779297"/>
      <use xlink:href="#DejaVuSans-73" x="854.158203"/>
      <use xlink:href="#DejaVuSans-69" x="906.257812"/>
      <use xlink:href="#DejaVuSans-74" x="934.041016"/>
      <use xlink:href="#DejaVuSans-79" x="973.25"/>
      <use xlink:href="#DejaVuSans-20" x="1032.429688"/>
      <use xlink:href="#DejaVuSans-5b" x="1064.216797"/>
      <use xlink:href="#DejaVuSans-2d" x="1103.230469"/>
      <use xlink:href="#DejaVuSans-5d" x="1139.314453"/>
     </g>
    </g>
   </g>
   <g id="line2d_27">
    <path d="M 73.832727 281.518431 
L 88.658222 283.275111 
L 104.435085 284.918143 
L 115.851508 285.918598 
L 117.516404 285.860571 
L 118.547053 285.616144 
L 119.33986 285.220349 
L 120.053387 284.633324 
L 120.766913 283.754609 
L 121.48044 282.514948 
L 122.273247 280.649333 
L 123.145335 277.977409 
L 124.255265 273.776132 
L 126.633686 264.485435 
L 127.347213 262.64333 
L 127.902178 261.782617 
L 128.298581 261.515031 
L 128.615704 261.518629 
L 128.932827 261.716541 
L 129.329231 262.230781 
L 129.804915 263.215485 
L 130.439161 265.071579 
L 131.311249 268.368918 
L 134.403197 280.717979 
L 135.354565 283.294908 
L 136.147373 284.866855 
L 136.94018 285.985782 
L 137.732987 286.745532 
L 138.605075 287.28044 
L 139.635724 287.648865 
L 141.062777 287.90278 
L 143.044795 288.016243 
L 144.63041 287.900941 
L 145.661059 287.624604 
L 146.533147 287.164063 
L 147.246673 286.551187 
L 147.9602 285.639944 
L 148.673726 284.331745 
L 149.387253 282.512438 
L 150.100779 280.057505 
L 150.893586 276.431492 
L 151.686394 271.71103 
L 152.558482 265.127151 
L 153.589131 255.436557 
L 154.857622 241.067097 
L 158.108132 202.767643 
L 158.900939 196.390528 
L 159.535185 192.929297 
L 160.010869 191.417274 
L 160.327992 190.953837 
L 160.565834 190.897584 
L 160.803676 191.091802 
L 161.120799 191.73771 
L 161.517203 193.15397 
L 161.992887 195.706032 
L 162.627133 200.426845 
L 163.41994 208.096065 
L 164.609151 222.055745 
L 167.383976 255.441916 
L 168.493906 265.762317 
L 169.365994 272.020143 
L 170.158801 276.24127 
L 170.872328 278.86199 
L 171.427293 280.147285 
L 171.902977 280.733515 
L 172.299381 280.860481 
L 172.616503 280.724324 
L 173.012907 280.253062 
L 173.488591 279.23535 
L 174.043556 277.398605 
L 174.677802 274.38896 
L 175.391329 269.743486 
L 176.184136 262.86039 
L 176.976943 253.986313 
L 177.849031 241.743463 
L 178.87968 223.799955 
L 180.068891 198.6356 
L 181.575225 161.504053 
L 184.35005 92.308617 
L 185.301419 73.962135 
L 186.094226 62.667518 
L 186.649191 57.323491 
L 187.124875 54.569598 
L 187.441998 53.704998 
L 187.67984 53.573545 
L 187.838402 53.732687 
L 188.076244 54.340475 
L 188.393367 55.833603 
L 188.78977 58.774385 
L 189.344735 64.808721 
L 190.058262 75.570033 
L 190.93035 92.571274 
L 192.198841 122.476166 
L 195.37007 199.672929 
L 196.48 220.442203 
L 197.352088 233.017004 
L 198.144895 241.357691 
L 198.779141 245.88099 
L 199.334106 248.297725 
L 199.730509 249.169649 
L 200.047632 249.372112 
L 200.285475 249.244369 
L 200.602597 248.713992 
L 200.999001 247.497181 
L 201.474685 245.275163 
L 202.108931 241.141285 
L 202.901738 234.371403 
L 204.011668 222.699996 
L 207.420739 185.218747 
L 208.213546 179.333039 
L 208.847792 176.058708 
L 209.323477 174.536756 
L 209.71988 173.912696 
L 209.957722 173.825328 
L 210.195564 173.954611 
L 210.512687 174.463204 
L 210.909091 175.632602 
L 211.384775 177.795323 
L 212.019021 181.889398 
L 212.811828 188.729611 
L 213.842478 199.870429 
L 215.507373 220.824316 
L 217.727233 248.225747 
L 218.995724 261.191546 
L 220.105654 270.331134 
L 221.057023 276.508556 
L 222.008392 281.281153 
L 222.88048 284.584059 
L 223.752567 287.035792 
L 224.624655 288.806226 
L 225.496743 290.05169 
L 226.368831 290.906868 
L 227.3202 291.523099 
L 228.43013 291.964146 
L 229.857183 292.272273 
L 231.997762 292.481504 
L 237.071728 292.686546 
L 264.81998 293.47335 
L 298.752128 294.215156 
L 338.154645 294.847994 
L 385.168112 295.373323 
L 398.487273 295.488 
L 398.487273 295.488 
" clip-path="url(#p5412cc793e)" style="fill: none; stroke: #1f77b4; stroke-width: 1.5; stroke-linecap: square"/>
   </g>
   <g id="line2d_28">
    <path d="M 73.832727 249.390445 
L 83.029291 252.63884 
L 92.542977 255.763488 
L 102.373786 258.758369 
L 112.521718 261.617244 
L 116.327193 262.525462 
L 117.595684 262.614168 
L 118.467772 262.457008 
L 119.181299 262.088223 
L 119.815544 261.485473 
L 120.44979 260.523843 
L 121.084036 259.091912 
L 121.718282 257.07188 
L 122.431808 253.95986 
L 123.224615 249.328913 
L 124.096703 242.778892 
L 125.285914 231.856931 
L 127.347213 212.580424 
L 128.060739 207.855272 
L 128.615704 205.467418 
L 129.012108 204.560232 
L 129.329231 204.342845 
L 129.567073 204.481481 
L 129.884196 205.0666 
L 130.280599 206.42353 
L 130.756284 208.908857 
L 131.390529 213.480151 
L 132.341898 222.264556 
L 135.116723 249.207627 
L 136.068092 255.844107 
L 136.860899 259.989068 
L 137.653706 263.004053 
L 138.367233 264.92177 
L 139.080759 266.256965 
L 139.794286 267.162194 
L 140.587093 267.815339 
L 141.459181 268.246837 
L 142.48983 268.495332 
L 143.52048 268.507167 
L 144.392567 268.298137 
L 145.106094 267.91822 
L 145.81962 267.274046 
L 146.453866 266.401114 
L 147.088112 265.155563 
L 147.722358 263.432783 
L 148.435884 260.771955 
L 149.149411 257.15665 
L 149.862937 252.374641 
L 150.655744 245.430715 
L 151.448551 236.506485 
L 152.320639 224.151386 
L 153.272008 207.499448 
L 154.381938 184.103309 
L 155.967552 145.297722 
L 158.187413 91.081667 
L 159.138781 72.79693 
L 159.852308 62.608379 
L 160.407273 57.192394 
L 160.882957 54.460037 
L 161.20008 53.658351 
L 161.358641 53.568 
L 161.517203 53.685291 
L 161.755045 54.24984 
L 162.072168 55.722023 
L 162.468571 58.694359 
L 163.023536 64.871919 
L 163.657782 74.563125 
L 164.52987 91.721103 
L 165.719081 120.03861 
L 168.96959 199.975318 
L 170.07952 221.203714 
L 171.030889 235.660696 
L 171.902977 245.856135 
L 172.695784 252.720681 
L 173.409311 257.092456 
L 174.043556 259.659897 
L 174.519241 260.829997 
L 174.915644 261.338746 
L 175.232767 261.453188 
L 175.54989 261.315989 
L 175.867013 260.933798 
L 176.263417 260.120056 
L 176.818382 258.369378 
L 177.452627 255.517057 
L 178.166154 251.25002 
L 179.038242 244.562953 
L 180.068891 234.70256 
L 181.258102 221.063587 
L 183.160839 196.229852 
L 184.984296 173.264446 
L 186.014945 162.827363 
L 186.807752 156.840084 
L 187.441998 153.593049 
L 187.917682 152.142894 
L 188.234805 151.6645 
L 188.472647 151.565969 
L 188.71049 151.691281 
L 189.027612 152.205286 
L 189.424016 153.397813 
L 189.8997 155.610858 
L 190.533946 159.807242 
L 191.326753 166.824588 
L 192.357403 178.255225 
L 194.101578 200.739903 
L 196.004316 224.517054 
L 197.193526 236.654555 
L 198.144895 244.176073 
L 198.937702 248.797242 
L 199.571948 251.392325 
L 200.126913 252.871418 
L 200.602597 253.570411 
L 200.999001 253.768717 
L 201.316124 253.687273 
L 201.712527 253.300713 
L 202.188212 252.446318 
L 202.743177 250.960911 
L 203.456703 248.384935 
L 204.408072 244.048812 
L 206.072967 235.188118 
L 207.658581 227.142234 
L 208.60995 223.347765 
L 209.323477 221.281093 
L 209.878442 220.217221 
L 210.354126 219.714998 
L 210.750529 219.596405 
L 211.146933 219.754452 
L 211.543337 220.188588 
L 212.019021 221.067288 
L 212.573986 222.56567 
L 213.287512 225.182324 
L 214.1596 229.286074 
L 215.348811 236.064704 
L 219.947093 263.643451 
L 221.136304 268.900209 
L 222.246234 272.799175 
L 223.276883 275.602022 
L 224.228252 277.576806 
L 225.17962 279.060686 
L 226.130989 280.151067 
L 227.161638 280.993274 
L 228.271568 281.616014 
L 229.619341 282.111124 
L 231.442797 282.523512 
L 234.455465 282.941421 
L 243.334905 283.857772 
L 260.855944 285.46208 
L 279.645475 286.956151 
L 299.862058 288.337652 
L 321.743536 289.607356 
L 345.686314 290.770187 
L 372.007512 291.821891 
L 398.487273 292.683564 
L 398.487273 292.683564 
" clip-path="url(#p5412cc793e)" style="fill: none; stroke: #ff7f0e; stroke-width: 1.5; stroke-linecap: square"/>
   </g>
   <g id="line2d_29">
    <path d="M 73.832727 255.871942 
L 83.108571 258.89052 
L 92.701538 261.776314 
L 102.611628 264.524879 
L 112.838841 267.130385 
L 116.802877 267.976152 
L 118.388492 268.101995 
L 119.498422 267.980589 
L 120.44979 267.652778 
L 121.321878 267.109867 
L 122.193966 266.293814 
L 123.145335 265.080509 
L 124.334545 263.171775 
L 126.633686 259.373072 
L 127.426494 258.506531 
L 128.060739 258.124574 
L 128.615704 258.053462 
L 129.170669 258.240572 
L 129.725634 258.681735 
L 130.35988 259.471395 
L 131.231968 260.961767 
L 132.57974 263.795677 
L 134.482478 267.726722 
L 135.592408 269.531006 
L 136.623057 270.79613 
L 137.653706 271.706118 
L 138.763636 272.380413 
L 140.111409 272.920806 
L 142.014146 273.419818 
L 144.868252 273.930012 
L 146.612428 274.047031 
L 147.722358 273.909259 
L 148.594446 273.576483 
L 149.307972 273.077809 
L 150.021499 272.296411 
L 150.735025 271.146082 
L 151.448551 269.533896 
L 152.162078 267.369066 
L 152.954885 264.223897 
L 153.826973 259.799729 
L 154.857622 253.315579 
L 156.284675 242.721242 
L 158.187413 228.782086 
L 159.0595 223.977294 
L 159.693746 221.576977 
L 160.169431 220.492372 
L 160.565834 220.092522 
L 160.882957 220.111682 
L 161.20008 220.4331 
L 161.596484 221.2529 
L 162.072168 222.823575 
L 162.706414 225.823379 
L 163.499221 230.772797 
L 164.688432 239.787527 
L 167.066853 258.039199 
L 168.176783 264.692321 
L 169.048871 268.714746 
L 169.841678 271.442608 
L 170.555205 273.178052 
L 171.189451 274.180952 
L 171.744416 274.658254 
L 172.2201 274.773174 
L 172.616503 274.657917 
L 173.092188 274.255587 
L 173.567872 273.545769 
L 174.122837 272.289818 
L 174.757083 270.214298 
L 175.391329 267.345596 
L 176.104855 263.001853 
L 176.818382 257.272954 
L 177.611189 249.025877 
L 178.483277 237.374929 
L 179.434645 221.341462 
L 180.465295 200.074822 
L 181.813067 167.136006 
L 185.142857 83.022531 
L 186.014945 67.540044 
L 186.649191 59.605714 
L 187.124875 55.750184 
L 187.521279 53.994278 
L 187.759121 53.592479 
L 187.917682 53.598313 
L 188.076244 53.823192 
L 188.314086 54.569622 
L 188.631209 56.32013 
L 189.106893 60.519374 
L 189.661858 67.668274 
L 190.375385 80.026402 
L 191.326753 100.905481 
L 192.912368 141.865891 
L 194.894386 191.819667 
L 196.004316 214.492271 
L 196.955684 229.574673 
L 197.748492 238.836907 
L 198.462018 244.607331 
L 199.016983 247.474105 
L 199.492667 248.857459 
L 199.80979 249.255795 
L 200.047632 249.291452 
L 200.285475 249.109998 
L 200.602597 248.544022 
L 200.999001 247.343327 
L 201.553966 244.813601 
L 202.267493 240.277475 
L 203.13958 233.133238 
L 204.408072 220.6345 
L 207.103616 193.4944 
L 208.054985 186.328092 
L 208.768511 182.471495 
L 209.323477 180.51978 
L 209.71988 179.727775 
L 210.037003 179.466733 
L 210.274845 179.490682 
L 210.591968 179.815857 
L 210.988372 180.689427 
L 211.464056 182.405732 
L 212.019021 185.282869 
L 212.732547 190.238087 
L 213.683916 198.668738 
L 215.031688 212.986317 
L 218.282198 248.329333 
L 219.550689 259.266883 
L 220.660619 266.898088 
L 221.611988 272.023353 
L 222.563357 275.969386 
L 223.435445 278.698217 
L 224.307532 280.728762 
L 225.17962 282.20488 
L 226.051708 283.256646 
L 227.003077 284.049456 
L 228.033726 284.618873 
L 229.302218 285.058648 
L 231.046394 285.411146 
L 234.138342 285.772213 
L 244.841239 286.692536 
L 263.472208 288.095952 
L 283.60951 289.386792 
L 305.57027 290.568298 
L 329.671608 291.638836 
L 356.468492 292.602032 
L 386.515884 293.454751 
L 398.487273 293.739299 
L 398.487273 293.739299 
" clip-path="url(#p5412cc793e)" style="fill: none; stroke: #2ca02c; stroke-width: 1.5; stroke-linecap: square"/>
   </g>
   <g id="line2d_30">
    <path d="M 73.832727 268.689706 
L 84.932028 271.132343 
L 96.507013 273.451031 
L 108.636963 275.653364 
L 115.534386 276.736978 
L 116.961439 276.750456 
L 117.833526 276.556843 
L 118.547053 276.179302 
L 119.181299 275.588422 
L 119.815544 274.659787 
L 120.44979 273.283799 
L 121.084036 271.343839 
L 121.797562 268.351971 
L 122.59037 263.894861 
L 123.462458 257.59433 
L 124.651668 247.147208 
L 126.554406 230.355709 
L 127.267932 225.887414 
L 127.822897 223.659372 
L 128.219301 222.841958 
L 128.457143 222.678819 
L 128.694985 222.76505 
L 128.932827 223.099965 
L 129.24995 223.925998 
L 129.725634 225.937395 
L 130.280599 229.329102 
L 131.073407 235.685929 
L 132.817582 252.222169 
L 134.086074 262.966656 
L 135.037443 269.149166 
L 135.83025 272.967484 
L 136.623057 275.702878 
L 137.336583 277.409791 
L 138.05011 278.572592 
L 138.763636 279.342827 
L 139.556444 279.888915 
L 140.587093 280.306493 
L 142.014146 280.613057 
L 143.758322 280.76476 
L 144.947532 280.676477 
L 145.81962 280.401386 
L 146.533147 279.940415 
L 147.167393 279.254666 
L 147.801638 278.194884 
L 148.435884 276.618124 
L 149.07013 274.346553 
L 149.704376 271.168038 
L 150.338621 266.841382 
L 151.052148 260.278944 
L 151.765674 251.570239 
L 152.558482 238.994436 
L 153.430569 221.332689 
L 154.461219 195.370144 
L 155.808991 155.019656 
L 158.028851 88.321315 
L 158.900939 69.027341 
L 159.535185 59.466009 
L 160.010869 55.190479 
L 160.327992 53.811464 
L 160.565834 53.568 
L 160.724396 53.784157 
L 160.962238 54.674129 
L 161.279361 56.90331 
L 161.675764 61.31363 
L 162.230729 70.318323 
L 162.944256 86.109169 
L 163.895624 112.623737 
L 167.542537 220.366044 
L 168.493906 240.158283 
L 169.365994 254.069891 
L 170.158801 263.483135 
L 170.872328 269.668726 
L 171.585854 274.031886 
L 172.2201 276.633258 
L 172.775065 278.076596 
L 173.250749 278.772565 
L 173.647153 279.004845 
L 173.964276 278.97543 
L 174.360679 278.677602 
L 174.757083 278.092148 
L 175.232767 277.004182 
L 175.787732 275.179744 
L 176.421978 272.305306 
L 177.135504 267.957905 
L 177.928312 261.580898 
L 178.8004 252.489771 
L 179.751768 239.949238 
L 180.861698 221.985538 
L 182.288751 194.879588 
L 184.746454 147.997322 
L 185.697822 134.384549 
L 186.411349 127.246728 
L 186.966314 123.844371 
L 187.362717 122.651213 
L 187.600559 122.443453 
L 187.759121 122.518028 
L 187.996963 122.948969 
L 188.314086 124.113795 
L 188.71049 126.496564 
L 189.265455 131.474483 
L 189.978981 140.402303 
L 190.851069 154.428444 
L 192.198841 180.174198 
L 194.497982 223.955151 
L 195.607912 240.807007 
L 196.559281 251.93841 
L 197.352088 258.74067 
L 198.065614 262.972939 
L 198.620579 265.08504 
L 199.096264 266.120945 
L 199.492667 266.469262 
L 199.80979 266.429026 
L 200.126913 266.119858 
L 200.523317 265.37619 
L 200.999001 263.996232 
L 201.633247 261.409352 
L 202.426054 257.145896 
L 203.456703 250.285905 
L 205.359441 235.713138 
L 206.865774 224.887436 
L 207.817143 219.498024 
L 208.530669 216.553965 
L 209.085634 215.029124 
L 209.561319 214.297902 
L 209.878442 214.115995 
L 210.195564 214.181521 
L 210.512687 214.494173 
L 210.909091 215.227959 
L 211.384775 216.596298 
L 212.019021 219.19744 
L 212.811828 223.551993 
L 213.842478 230.646427 
L 215.507373 243.963912 
L 217.647952 260.718483 
L 218.916444 268.953594 
L 220.026374 274.749035 
L 221.057023 278.942886 
L 222.008392 281.88953 
L 222.88048 283.921481 
L 223.752567 285.427 
L 224.624655 286.5151 
L 225.576024 287.341939 
L 226.606673 287.934663 
L 227.795884 288.361147 
L 229.381499 288.68427 
L 231.997762 288.957849 
L 239.687992 289.440886 
L 261.807313 290.616487 
L 286.146494 291.683581 
L 313.181219 292.64171 
L 343.545734 293.490271 
L 378.112128 294.228713 
L 398.487273 294.574491 
L 398.487273 294.574491 
" clip-path="url(#p5412cc793e)" style="fill: none; stroke: #d62728; stroke-width: 1.5; stroke-linecap: square"/>
   </g>
   <g id="patch_3">
    <path d="M 57.6 307.584 
L 57.6 41.472 
" style="fill: none; stroke: #000000; stroke-width: 0.8; stroke-linejoin: miter; stroke-linecap: square"/>
   </g>
   <g id="patch_4">
    <path d="M 414.72 307.584 
L 414.72 41.472 
" style="fill: none; stroke: #000000; stroke-width: 0.8; stroke-linejoin: miter; stroke-linecap: square"/>
   </g>
   <g id="patch_5">
    <path d="M 57.6 307.584 
L 414.72 307.584 
" style="fill: none; stroke: #000000; stroke-width: 0.8; stroke-linejoin: miter; stroke-linecap: square"/>
   </g>
   <g id="patch_6">
    <path d="M 57.6 41.472 
L 414.72 41.472 
" style="fill: none; stroke: #000000; stroke-width: 0.8; stroke-linejoin: miter; stroke-linecap: square"/>
   </g>
   <g id="text_16">
    <!-- Composed spectras with different amounts of Cu and Pb -->
    <g transform="translate(66.480938 35.472) scale(0.12 -0.12)">
     <defs>
      <path id="DejaVuSans-43" d="M 4122 4306 
L 4122 3641 
Q 3803 3938 3442 4084 
Q 3081 4231 2675 4231 
Q 1875 4231 1450 3742 
Q 1025 3253 1025 2328 
Q 1025 1406 1450 917 
Q 1875 428 2675 428 
Q 3081 428 3442 575 
Q 3803 722 4122 1019 
L 4122 359 
Q 3791 134 3420 21 
Q 3050 -91 2638 -91 
Q 1578 -91 968 557 
Q 359 1206 359 2328 
Q 359 3453 968 4101 
Q 1578 4750 2638 4750 
Q 3056 4750 3426 4639 
Q 3797 4528 4122 4306 
z
" transform="scale(0.015625)"/>
      <path id="DejaVuSans-70" d="M 1159 525 
L 1159 -1331 
L 581 -1331 
L 581 3500 
L 1159 3500 
L 1159 2969 
Q 1341 3281 1617 3432 
Q 1894 3584 2278 3584 
Q 2916 3584 3314 3078 
Q 3713 2572 3713 1747 
Q 3713 922 3314 415 
Q 2916 -91 2278 -91 
Q 1894 -91 1617 61 
Q 1341 213 1159 525 
z
M 3116 1747 
Q 3116 2381 2855 2742 
Q 2594 3103 2138 3103 
Q 1681 3103 1420 2742 
Q 1159 2381 1159 1747 
Q 1159 1113 1420 752 
Q 1681 391 2138 391 
Q 2594 391 2855 752 
Q 3116 1113 3116 1747 
z
" transform="scale(0.015625)"/>
      <path id="DejaVuSans-63" d="M 3122 3366 
L 3122 2828 
Q 2878 2963 2633 3030 
Q 2388 3097 2138 3097 
Q 1578 3097 1268 2742 
Q 959 2388 959 1747 
Q 959 1106 1268 751 
Q 1578 397 2138 397 
Q 2388 397 2633 464 
Q 2878 531 3122 666 
L 3122 134 
Q 2881 22 2623 -34 
Q 2366 -91 2075 -91 
Q 1284 -91 818 406 
Q 353 903 353 1747 
Q 353 2603 823 3093 
Q 1294 3584 2113 3584 
Q 2378 3584 2631 3529 
Q 2884 3475 3122 3366 
z
" transform="scale(0.015625)"/>
      <path id="DejaVuSans-77" d="M 269 3500 
L 844 3500 
L 1563 769 
L 2278 3500 
L 2956 3500 
L 3675 769 
L 4391 3500 
L 4966 3500 
L 4050 0 
L 3372 0 
L 2619 2869 
L 1863 0 
L 1184 0 
L 269 3500 
z
" transform="scale(0.015625)"/>
      <path id="DejaVuSans-68" d="M 3513 2113 
L 3513 0 
L 2938 0 
L 2938 2094 
Q 2938 2591 2744 2837 
Q 2550 3084 2163 3084 
Q 1697 3084 1428 2787 
Q 1159 2491 1159 1978 
L 1159 0 
L 581 0 
L 581 4863 
L 1159 4863 
L 1159 2956 
Q 1366 3272 1645 3428 
Q 1925 3584 2291 3584 
Q 2894 3584 3203 3211 
Q 3513 2838 3513 2113 
z
" transform="scale(0.015625)"/>
      <path id="DejaVuSans-66" d="M 2375 4863 
L 2375 4384 
L 1825 4384 
Q 1516 4384 1395 4259 
Q 1275 4134 1275 3809 
L 1275 3500 
L 2222 3500 
L 2222 3053 
L 1275 3053 
L 1275 0 
L 697 0 
L 697 3053 
L 147 3053 
L 147 3500 
L 697 3500 
L 697 3744 
Q 697 4328 969 4595 
Q 1241 4863 1831 4863 
L 2375 4863 
z
" transform="scale(0.015625)"/>
      <path id="DejaVuSans-75" d="M 544 1381 
L 544 3500 
L 1119 3500 
L 1119 1403 
Q 1119 906 1312 657 
Q 1506 409 1894 409 
Q 2359 409 2629 706 
Q 2900 1003 2900 1516 
L 2900 3500 
L 3475 3500 
L 3475 0 
L 2900 0 
L 2900 538 
Q 2691 219 2414 64 
Q 2138 -91 1772 -91 
Q 1169 -91 856 284 
Q 544 659 544 1381 
z
M 1991 3584 
L 1991 3584 
z
" transform="scale(0.015625)"/>
      <path id="DejaVuSans-50" d="M 1259 4147 
L 1259 2394 
L 2053 2394 
Q 2494 2394 2734 2622 
Q 2975 2850 2975 3272 
Q 2975 3691 2734 3919 
Q 2494 4147 2053 4147 
L 1259 4147 
z
M 628 4666 
L 2053 4666 
Q 2838 4666 3239 4311 
Q 3641 3956 3641 3272 
Q 3641 2581 3239 2228 
Q 2838 1875 2053 1875 
L 1259 1875 
L 1259 0 
L 628 0 
L 628 4666 
z
" transform="scale(0.015625)"/>
      <path id="DejaVuSans-62" d="M 3116 1747 
Q 3116 2381 2855 2742 
Q 2594 3103 2138 3103 
Q 1681 3103 1420 2742 
Q 1159 2381 1159 1747 
Q 1159 1113 1420 752 
Q 1681 391 2138 391 
Q 2594 391 2855 752 
Q 3116 1113 3116 1747 
z
M 1159 2969 
Q 1341 3281 1617 3432 
Q 1894 3584 2278 3584 
Q 2916 3584 3314 3078 
Q 3713 2572 3713 1747 
Q 3713 922 3314 415 
Q 2916 -91 2278 -91 
Q 1894 -91 1617 61 
Q 1341 213 1159 525 
L 1159 0 
L 581 0 
L 581 4863 
L 1159 4863 
L 1159 2969 
z
" transform="scale(0.015625)"/>
     </defs>
     <use xlink:href="#DejaVuSans-43"/>
     <use xlink:href="#DejaVuSans-6f" x="69.824219"/>
     <use xlink:href="#DejaVuSans-6d" x="131.005859"/>
     <use xlink:href="#DejaVuSans-70" x="228.417969"/>
     <use xlink:href="#DejaVuSans-6f" x="291.894531"/>
     <use xlink:href="#DejaVuSans-73" x="353.076172"/>
     <use xlink:href="#DejaVuSans-65" x="405.175781"/>
     <use xlink:href="#DejaVuSans-64" x="466.699219"/>
     <use xlink:href="#DejaVuSans-20" x="530.175781"/>
     <use xlink:href="#DejaVuSans-73" x="561.962891"/>
     <use xlink:href="#DejaVuSans-70" x="614.0625"/>
     <use xlink:href="#DejaVuSans-65" x="677.539062"/>
     <use xlink:href="#DejaVuSans-63" x="739.0625"/>
     <use xlink:href="#DejaVuSans-74" x="794.042969"/>
     <use xlink:href="#DejaVuSans-72" x="833.251953"/>
     <use xlink:href="#DejaVuSans-61" x="874.365234"/>
     <use xlink:href="#DejaVuSans-73" x="935.644531"/>
     <use xlink:href="#DejaVuSans-20" x="987.744141"/>
     <use xlink:href="#DejaVuSans-77" x="1019.53125"/>
     <use xlink:href="#DejaVuSans-69" x="1101.318359"/>
     <use xlink:href="#DejaVuSans-74" x="1129.101562"/>
     <use xlink:href="#DejaVuSans-68" x="1168.310547"/>
     <use xlink:href="#DejaVuSans-20" x="1231.689453"/>
     <use xlink:href="#DejaVuSans-64" x="1263.476562"/>
     <use xlink:href="#DejaVuSans-69" x="1326.953125"/>
     <use xlink:href="#DejaVuSans-66" x="1354.736328"/>
     <use xlink:href="#DejaVuSans-66" x="1389.941406"/>
     <use xlink:href="#DejaVuSans-65" x="1425.146484"/>
     <use xlink:href="#DejaVuSans-72" x="1486.669922"/>
     <use xlink:href="#DejaVuSans-65" x="1525.533203"/>
     <use xlink:href="#DejaVuSans-6e" x="1587.056641"/>
     <use xlink:href="#DejaVuSans-74" x="1650.435547"/>
     <use xlink:href="#DejaVuSans-20" x="1689.644531"/>
     <use xlink:href="#DejaVuSans-61" x="1721.431641"/>
     <use xlink:href="#DejaVuSans-6d" x="1782.710938"/>
     <use xlink:href="#DejaVuSans-6f" x="1880.123047"/>
     <use xlink:href="#DejaVuSans-75" x="1941.304688"/>
     <use xlink:href="#DejaVuSans-6e" x="2004.683594"/>
     <use xlink:href="#DejaVuSans-74" x="2068.0625"/>
     <use xlink:href="#DejaVuSans-73" x="2107.271484"/>
     <use xlink:href="#DejaVuSans-20" x="2159.371094"/>
     <use xlink:href="#DejaVuSans-6f" x="2191.158203"/>
     <use xlink:href="#DejaVuSans-66" x="2252.339844"/>
     <use xlink:href="#DejaVuSans-20" x="2287.544922"/>
     <use xlink:href="#DejaVuSans-43" x="2319.332031"/>
     <use xlink:href="#DejaVuSans-75" x="2389.15625"/>
     <use xlink:href="#DejaVuSans-20" x="2452.535156"/>
     <use xlink:href="#DejaVuSans-61" x="2484.322266"/>
     <use xlink:href="#DejaVuSans-6e" x="2545.601562"/>
     <use xlink:href="#DejaVuSans-64" x="2608.980469"/>
     <use xlink:href="#DejaVuSans-20" x="2672.457031"/>
     <use xlink:href="#DejaVuSans-50" x="2704.244141"/>
     <use xlink:href="#DejaVuSans-62" x="2764.546875"/>
    </g>
   </g>
   <g id="legend_1">
    <g id="patch_7">
     <path d="M 263.599688 108.1845 
L 407.72 108.1845 
Q 409.72 108.1845 409.72 106.1845 
L 409.72 48.472 
Q 409.72 46.472 407.72 46.472 
L 263.599688 46.472 
Q 261.599688 46.472 261.599688 48.472 
L 261.599688 106.1845 
Q 261.599688 108.1845 263.599688 108.1845 
z
" style="fill: #ffffff; opacity: 0.8; stroke: #cccccc; stroke-linejoin: miter"/>
    </g>
    <g id="line2d_31">
     <path d="M 265.599688 54.570438 
L 275.599688 54.570438 
L 285.599688 54.570438 
" style="fill: none; stroke: #1f77b4; stroke-width: 1.5; stroke-linecap: square"/>
    </g>
    <g id="text_17">
     <!-- (Pb - 0.71), (Cu - 0.29) -->
     <g transform="translate(293.599688 58.070438) scale(0.1 -0.1)">
      <defs>
       <path id="DejaVuSans-28" d="M 1984 4856 
Q 1566 4138 1362 3434 
Q 1159 2731 1159 2009 
Q 1159 1288 1364 580 
Q 1569 -128 1984 -844 
L 1484 -844 
Q 1016 -109 783 600 
Q 550 1309 550 2009 
Q 550 2706 781 3412 
Q 1013 4119 1484 4856 
L 1984 4856 
z
" transform="scale(0.015625)"/>
       <path id="DejaVuSans-37" d="M 525 4666 
L 3525 4666 
L 3525 4397 
L 1831 0 
L 1172 0 
L 2766 4134 
L 525 4134 
L 525 4666 
z
" transform="scale(0.015625)"/>
       <path id="DejaVuSans-29" d="M 513 4856 
L 1013 4856 
Q 1481 4119 1714 3412 
Q 1947 2706 1947 2009 
Q 1947 1309 1714 600 
Q 1481 -109 1013 -844 
L 513 -844 
Q 928 -128 1133 580 
Q 1338 1288 1338 2009 
Q 1338 2731 1133 3434 
Q 928 4138 513 4856 
z
" transform="scale(0.015625)"/>
       <path id="DejaVuSans-2c" d="M 750 794 
L 1409 794 
L 1409 256 
L 897 -744 
L 494 -744 
L 750 256 
L 750 794 
z
" transform="scale(0.015625)"/>
       <path id="DejaVuSans-39" d="M 703 97 
L 703 672 
Q 941 559 1184 500 
Q 1428 441 1663 441 
Q 2288 441 2617 861 
Q 2947 1281 2994 2138 
Q 2813 1869 2534 1725 
Q 2256 1581 1919 1581 
Q 1219 1581 811 2004 
Q 403 2428 403 3163 
Q 403 3881 828 4315 
Q 1253 4750 1959 4750 
Q 2769 4750 3195 4129 
Q 3622 3509 3622 2328 
Q 3622 1225 3098 567 
Q 2575 -91 1691 -91 
Q 1453 -91 1209 -44 
Q 966 3 703 97 
z
M 1959 2075 
Q 2384 2075 2632 2365 
Q 2881 2656 2881 3163 
Q 2881 3666 2632 3958 
Q 2384 4250 1959 4250 
Q 1534 4250 1286 3958 
Q 1038 3666 1038 3163 
Q 1038 2656 1286 2365 
Q 1534 2075 1959 2075 
z
" transform="scale(0.015625)"/>
      </defs>
      <use xlink:href="#DejaVuSans-28"/>
      <use xlink:href="#DejaVuSans-50" x="39.013672"/>
      <use xlink:href="#DejaVuSans-62" x="99.316406"/>
      <use xlink:href="#DejaVuSans-20" x="162.792969"/>
      <use xlink:href="#DejaVuSans-2d" x="194.580078"/>
      <use xlink:href="#DejaVuSans-20" x="230.664062"/>
      <use xlink:href="#DejaVuSans-30" x="262.451172"/>
      <use xlink:href="#DejaVuSans-2e" x="326.074219"/>
      <use xlink:href="#DejaVuSans-37" x="357.861328"/>
      <use xlink:href="#DejaVuSans-31" x="421.484375"/>
      <use xlink:href="#DejaVuSans-29" x="485.107422"/>
      <use xlink:href="#DejaVuSans-2c" x="524.121094"/>
      <use xlink:href="#DejaVuSans-20" x="555.908203"/>
      <use xlink:href="#DejaVuSans-28" x="587.695312"/>
      <use xlink:href="#DejaVuSans-43" x="626.708984"/>
      <use xlink:href="#DejaVuSans-75" x="696.533203"/>
      <use xlink:href="#DejaVuSans-20" x="759.912109"/>
      <use xlink:href="#DejaVuSans-2d" x="791.699219"/>
      <use xlink:href="#DejaVuSans-20" x="827.783203"/>
      <use xlink:href="#DejaVuSans-30" x="859.570312"/>
      <use xlink:href="#DejaVuSans-2e" x="923.193359"/>
      <use xlink:href="#DejaVuSans-32" x="954.980469"/>
      <use xlink:href="#DejaVuSans-39" x="1018.603516"/>
      <use xlink:href="#DejaVuSans-29" x="1082.226562"/>
     </g>
    </g>
    <g id="line2d_32">
     <path d="M 265.599688 69.248563 
L 275.599688 69.248563 
L 285.599688 69.248563 
" style="fill: none; stroke: #ff7f0e; stroke-width: 1.5; stroke-linecap: square"/>
    </g>
    <g id="text_18">
     <!-- (Cu - 0.64), (Pb - 0.36) -->
     <g transform="translate(293.599688 72.748563) scale(0.1 -0.1)">
      <use xlink:href="#DejaVuSans-28"/>
      <use xlink:href="#DejaVuSans-43" x="39.013672"/>
      <use xlink:href="#DejaVuSans-75" x="108.837891"/>
      <use xlink:href="#DejaVuSans-20" x="172.216797"/>
      <use xlink:href="#DejaVuSans-2d" x="204.003906"/>
      <use xlink:href="#DejaVuSans-20" x="240.087891"/>
      <use xlink:href="#DejaVuSans-30" x="271.875"/>
      <use xlink:href="#DejaVuSans-2e" x="335.498047"/>
      <use xlink:href="#DejaVuSans-36" x="367.285156"/>
      <use xlink:href="#DejaVuSans-34" x="430.908203"/>
      <use xlink:href="#DejaVuSans-29" x="494.53125"/>
      <use xlink:href="#DejaVuSans-2c" x="533.544922"/>
      <use xlink:href="#DejaVuSans-20" x="565.332031"/>
      <use xlink:href="#DejaVuSans-28" x="597.119141"/>
      <use xlink:href="#DejaVuSans-50" x="636.132812"/>
      <use xlink:href="#DejaVuSans-62" x="696.435547"/>
      <use xlink:href="#DejaVuSans-20" x="759.912109"/>
      <use xlink:href="#DejaVuSans-2d" x="791.699219"/>
      <use xlink:href="#DejaVuSans-20" x="827.783203"/>
      <use xlink:href="#DejaVuSans-30" x="859.570312"/>
      <use xlink:href="#DejaVuSans-2e" x="923.193359"/>
      <use xlink:href="#DejaVuSans-33" x="954.980469"/>
      <use xlink:href="#DejaVuSans-36" x="1018.603516"/>
      <use xlink:href="#DejaVuSans-29" x="1082.226562"/>
     </g>
    </g>
    <g id="line2d_33">
     <path d="M 265.599688 83.926688 
L 275.599688 83.926688 
L 285.599688 83.926688 
" style="fill: none; stroke: #2ca02c; stroke-width: 1.5; stroke-linecap: square"/>
    </g>
    <g id="text_19">
     <!-- (Pb - 0.80), (Cu - 0.20) -->
     <g transform="translate(293.599688 87.426688) scale(0.1 -0.1)">
      <use xlink:href="#DejaVuSans-28"/>
      <use xlink:href="#DejaVuSans-50" x="39.013672"/>
      <use xlink:href="#DejaVuSans-62" x="99.316406"/>
      <use xlink:href="#DejaVuSans-20" x="162.792969"/>
      <use xlink:href="#DejaVuSans-2d" x="194.580078"/>
      <use xlink:href="#DejaVuSans-20" x="230.664062"/>
      <use xlink:href="#DejaVuSans-30" x="262.451172"/>
      <use xlink:href="#DejaVuSans-2e" x="326.074219"/>
      <use xlink:href="#DejaVuSans-38" x="357.861328"/>
      <use xlink:href="#DejaVuSans-30" x="421.484375"/>
      <use xlink:href="#DejaVuSans-29" x="485.107422"/>
      <use xlink:href="#DejaVuSans-2c" x="524.121094"/>
      <use xlink:href="#DejaVuSans-20" x="555.908203"/>
      <use xlink:href="#DejaVuSans-28" x="587.695312"/>
      <use xlink:href="#DejaVuSans-43" x="626.708984"/>
      <use xlink:href="#DejaVuSans-75" x="696.533203"/>
      <use xlink:href="#DejaVuSans-20" x="759.912109"/>
      <use xlink:href="#DejaVuSans-2d" x="791.699219"/>
      <use xlink:href="#DejaVuSans-20" x="827.783203"/>
      <use xlink:href="#DejaVuSans-30" x="859.570312"/>
      <use xlink:href="#DejaVuSans-2e" x="923.193359"/>
      <use xlink:href="#DejaVuSans-32" x="954.980469"/>
      <use xlink:href="#DejaVuSans-30" x="1018.603516"/>
      <use xlink:href="#DejaVuSans-29" x="1082.226562"/>
     </g>
    </g>
    <g id="line2d_34">
     <path d="M 265.599688 98.604813 
L 275.599688 98.604813 
L 285.599688 98.604813 
" style="fill: none; stroke: #d62728; stroke-width: 1.5; stroke-linecap: square"/>
    </g>
    <g id="text_20">
     <!-- (Cu - 0.58), (Pb - 0.42) -->
     <g transform="translate(293.599688 102.104813) scale(0.1 -0.1)">
      <use xlink:href="#DejaVuSans-28"/>
      <use xlink:href="#DejaVuSans-43" x="39.013672"/>
      <use xlink:href="#DejaVuSans-75" x="108.837891"/>
      <use xlink:href="#DejaVuSans-20" x="172.216797"/>
      <use xlink:href="#DejaVuSans-2d" x="204.003906"/>
      <use xlink:href="#DejaVuSans-20" x="240.087891"/>
      <use xlink:href="#DejaVuSans-30" x="271.875"/>
      <use xlink:href="#DejaVuSans-2e" x="335.498047"/>
      <use xlink:href="#DejaVuSans-35" x="367.285156"/>
      <use xlink:href="#DejaVuSans-38" x="430.908203"/>
      <use xlink:href="#DejaVuSans-29" x="494.53125"/>
      <use xlink:href="#DejaVuSans-2c" x="533.544922"/>
      <use xlink:href="#DejaVuSans-20" x="565.332031"/>
      <use xlink:href="#DejaVuSans-28" x="597.119141"/>
      <use xlink:href="#DejaVuSans-50" x="636.132812"/>
      <use xlink:href="#DejaVuSans-62" x="696.435547"/>
      <use xlink:href="#DejaVuSans-20" x="759.912109"/>
      <use xlink:href="#DejaVuSans-2d" x="791.699219"/>
      <use xlink:href="#DejaVuSans-20" x="827.783203"/>
      <use xlink:href="#DejaVuSans-30" x="859.570312"/>
      <use xlink:href="#DejaVuSans-2e" x="923.193359"/>
      <use xlink:href="#DejaVuSans-34" x="954.980469"/>
      <use xlink:href="#DejaVuSans-32" x="1018.603516"/>
      <use xlink:href="#DejaVuSans-29" x="1082.226562"/>
     </g>
    </g>
   </g>
  </g>
 </g>
 <defs>
  <clipPath id="p5412cc793e">
   <rect x="57.6" y="41.472" width="357.12" height="266.112"/>
  </clipPath>
 </defs>
</svg>
